<svg xmlns="http://www.w3.org/2000/svg" xmlns:xlink="http://www.w3.org/1999/xlink" width="200" zoomAndPan="magnify" viewBox="0 0 150 149.999998" height="200" preserveAspectRatio="xMidYMid meet" version="1.0"><defs><clipPath id="2658af8e69"><path d="M 33 41.039062 L 117 41.039062 L 117 117.539062 L 33 117.539062 Z M 33 41.039062 " clip-rule="nonzero"/></clipPath><clipPath id="bcc6141603"><path d="M 39.75 41.039062 L 110.238281 41.039062 C 113.964844 41.039062 116.988281 44.0625 116.988281 47.789062 L 116.988281 110.84375 C 116.988281 114.574219 113.964844 117.59375 110.238281 117.59375 L 39.75 117.59375 C 36.023438 117.59375 33 114.574219 33 110.84375 L 33 47.789062 C 33 44.0625 36.023438 41.039062 39.75 41.039062 Z M 39.75 41.039062 " clip-rule="nonzero"/></clipPath><clipPath id="60326eb424"><path d="M 35.8125 43.457031 L 114.582031 43.457031 L 114.582031 67.164062 L 35.8125 67.164062 Z M 35.8125 43.457031 " clip-rule="nonzero"/></clipPath><clipPath id="c700a28076"><path d="M 35.828125 43.457031 L 114.5625 43.457031 L 114.5625 67.152344 L 35.828125 67.152344 Z M 35.828125 43.457031 " clip-rule="nonzero"/></clipPath><clipPath id="4051d7f61e"><path d="M 48.097656 44.855469 L 57.691406 44.855469 L 57.691406 54.449219 L 48.097656 54.449219 Z M 48.097656 44.855469 " clip-rule="nonzero"/></clipPath><clipPath id="5939063cde"><path d="M 52.894531 44.855469 C 50.246094 44.855469 48.097656 47.003906 48.097656 49.652344 C 48.097656 52.300781 50.246094 54.449219 52.894531 54.449219 C 55.542969 54.449219 57.691406 52.300781 57.691406 49.652344 C 57.691406 47.003906 55.542969 44.855469 52.894531 44.855469 Z M 52.894531 44.855469 " clip-rule="nonzero"/></clipPath><clipPath id="cae330ee31"><path d="M 49.878906 32.398438 L 55.910156 32.398438 L 55.910156 51.660156 L 49.878906 51.660156 Z M 49.878906 32.398438 " clip-rule="nonzero"/></clipPath><clipPath id="ed998b79d2"><path d="M 52.894531 32.398438 C 54.558594 32.398438 55.910156 33.746094 55.910156 35.410156 L 55.910156 48.632812 C 55.910156 50.296875 54.558594 51.648438 52.894531 51.648438 C 51.230469 51.648438 49.878906 50.296875 49.878906 48.632812 L 49.878906 35.410156 C 49.878906 33.746094 51.230469 32.398438 52.894531 32.398438 Z M 52.894531 32.398438 " clip-rule="nonzero"/></clipPath><clipPath id="1808e07b47"><path d="M 92.910156 44.855469 L 102.503906 44.855469 L 102.503906 54.449219 L 92.910156 54.449219 Z M 92.910156 44.855469 " clip-rule="nonzero"/></clipPath><clipPath id="588de92c3e"><path d="M 97.707031 44.855469 C 95.058594 44.855469 92.910156 47.003906 92.910156 49.652344 C 92.910156 52.300781 95.058594 54.449219 97.707031 54.449219 C 100.355469 54.449219 102.503906 52.300781 102.503906 49.652344 C 102.503906 47.003906 100.355469 44.855469 97.707031 44.855469 Z M 97.707031 44.855469 " clip-rule="nonzero"/></clipPath><clipPath id="e3a95b8eef"><path d="M 94.695312 32.398438 L 100.722656 32.398438 L 100.722656 51.660156 L 94.695312 51.660156 Z M 94.695312 32.398438 " clip-rule="nonzero"/></clipPath><clipPath id="f98b0f7c08"><path d="M 97.707031 32.398438 C 99.371094 32.398438 100.722656 33.746094 100.722656 35.410156 L 100.722656 48.632812 C 100.722656 50.296875 99.371094 51.648438 97.707031 51.648438 C 96.042969 51.648438 94.695312 50.296875 94.695312 48.632812 L 94.695312 35.410156 C 94.695312 33.746094 96.042969 32.398438 97.707031 32.398438 Z M 97.707031 32.398438 " clip-rule="nonzero"/></clipPath><clipPath id="e8a522cda0"><path d="M 45.230469 71.78125 L 54.347656 71.78125 L 54.347656 81.359375 L 45.230469 81.359375 Z M 45.230469 71.78125 " clip-rule="nonzero"/></clipPath><clipPath id="2b56bce5c8"><path d="M 46.730469 71.78125 L 52.847656 71.78125 C 53.675781 71.78125 54.347656 72.449219 54.347656 73.28125 L 54.347656 79.828125 C 54.347656 80.65625 53.675781 81.328125 52.847656 81.328125 L 46.730469 81.328125 C 45.902344 81.328125 45.230469 80.65625 45.230469 79.828125 L 45.230469 73.28125 C 45.230469 72.449219 45.902344 71.78125 46.730469 71.78125 Z M 46.730469 71.78125 " clip-rule="nonzero"/></clipPath><clipPath id="57defa5c4e"><path d="M 62.113281 71.78125 L 71.226562 71.78125 L 71.226562 81.359375 L 62.113281 81.359375 Z M 62.113281 71.78125 " clip-rule="nonzero"/></clipPath><clipPath id="7589679aa9"><path d="M 63.613281 71.78125 L 69.726562 71.78125 C 70.554688 71.78125 71.226562 72.449219 71.226562 73.28125 L 71.226562 79.828125 C 71.226562 80.65625 70.554688 81.328125 69.726562 81.328125 L 63.613281 81.328125 C 62.785156 81.328125 62.113281 80.65625 62.113281 79.828125 L 62.113281 73.28125 C 62.113281 72.449219 62.785156 71.78125 63.613281 71.78125 Z M 63.613281 71.78125 " clip-rule="nonzero"/></clipPath><clipPath id="9c69fc3dec"><path d="M 78.992188 71.78125 L 88.109375 71.78125 L 88.109375 81.359375 L 78.992188 81.359375 Z M 78.992188 71.78125 " clip-rule="nonzero"/></clipPath><clipPath id="75401d6777"><path d="M 80.492188 71.78125 L 86.609375 71.78125 C 87.4375 71.78125 88.109375 72.449219 88.109375 73.28125 L 88.109375 79.828125 C 88.109375 80.65625 87.4375 81.328125 86.609375 81.328125 L 80.492188 81.328125 C 79.664062 81.328125 78.992188 80.65625 78.992188 79.828125 L 78.992188 73.28125 C 78.992188 72.449219 79.664062 71.78125 80.492188 71.78125 Z M 80.492188 71.78125 " clip-rule="nonzero"/></clipPath><clipPath id="c00f2b1ca5"><path d="M 95.871094 71.78125 L 104.988281 71.78125 L 104.988281 81.359375 L 95.871094 81.359375 Z M 95.871094 71.78125 " clip-rule="nonzero"/></clipPath><clipPath id="ec4bb65c83"><path d="M 97.371094 71.78125 L 103.488281 71.78125 C 104.316406 71.78125 104.988281 72.449219 104.988281 73.28125 L 104.988281 79.828125 C 104.988281 80.65625 104.316406 81.328125 103.488281 81.328125 L 97.371094 81.328125 C 96.542969 81.328125 95.871094 80.65625 95.871094 79.828125 L 95.871094 73.28125 C 95.871094 72.449219 96.542969 71.78125 97.371094 71.78125 Z M 97.371094 71.78125 " clip-rule="nonzero"/></clipPath><clipPath id="fc065d70e4"><path d="M 45.324219 85.75 L 54.4375 85.75 L 54.4375 95.328125 L 45.324219 95.328125 Z M 45.324219 85.75 " clip-rule="nonzero"/></clipPath><clipPath id="cb80b62343"><path d="M 46.824219 85.75 L 52.9375 85.75 C 53.765625 85.75 54.4375 86.417969 54.4375 87.25 L 54.4375 93.796875 C 54.4375 94.625 53.765625 95.296875 52.9375 95.296875 L 46.824219 95.296875 C 45.992188 95.296875 45.324219 94.625 45.324219 93.796875 L 45.324219 87.25 C 45.324219 86.417969 45.992188 85.75 46.824219 85.75 Z M 46.824219 85.75 " clip-rule="nonzero"/></clipPath><clipPath id="2b39aaf82e"><path d="M 45.230469 99.714844 L 54.347656 99.714844 L 54.347656 109.296875 L 45.230469 109.296875 Z M 45.230469 99.714844 " clip-rule="nonzero"/></clipPath><clipPath id="66fac8f05b"><path d="M 46.730469 99.714844 L 52.847656 99.714844 C 53.675781 99.714844 54.347656 100.386719 54.347656 101.214844 L 54.347656 107.765625 C 54.347656 108.59375 53.675781 109.265625 52.847656 109.265625 L 46.730469 109.265625 C 45.902344 109.265625 45.230469 108.59375 45.230469 107.765625 L 45.230469 101.214844 C 45.230469 100.386719 45.902344 99.714844 46.730469 99.714844 Z M 46.730469 99.714844 " clip-rule="nonzero"/></clipPath><clipPath id="8982dcfde9"><path d="M 62.113281 85.75 L 71.226562 85.75 L 71.226562 95.328125 L 62.113281 95.328125 Z M 62.113281 85.75 " clip-rule="nonzero"/></clipPath><clipPath id="c3506a06cc"><path d="M 63.613281 85.75 L 69.726562 85.75 C 70.554688 85.75 71.226562 86.417969 71.226562 87.25 L 71.226562 93.796875 C 71.226562 94.625 70.554688 95.296875 69.726562 95.296875 L 63.613281 95.296875 C 62.785156 95.296875 62.113281 94.625 62.113281 93.796875 L 62.113281 87.25 C 62.113281 86.417969 62.785156 85.75 63.613281 85.75 Z M 63.613281 85.75 " clip-rule="nonzero"/></clipPath><clipPath id="07c26c9d21"><path d="M 62.113281 99.714844 L 71.226562 99.714844 L 71.226562 109.296875 L 62.113281 109.296875 Z M 62.113281 99.714844 " clip-rule="nonzero"/></clipPath><clipPath id="fadbe7f92f"><path d="M 63.613281 99.714844 L 69.726562 99.714844 C 70.554688 99.714844 71.226562 100.386719 71.226562 101.214844 L 71.226562 107.765625 C 71.226562 108.59375 70.554688 109.265625 69.726562 109.265625 L 63.613281 109.265625 C 62.785156 109.265625 62.113281 108.59375 62.113281 107.765625 L 62.113281 101.214844 C 62.113281 100.386719 62.785156 99.714844 63.613281 99.714844 Z M 63.613281 99.714844 " clip-rule="nonzero"/></clipPath><clipPath id="eb55f42be0"><path d="M 78.992188 99.714844 L 88.109375 99.714844 L 88.109375 109.296875 L 78.992188 109.296875 Z M 78.992188 99.714844 " clip-rule="nonzero"/></clipPath><clipPath id="a3fe40a323"><path d="M 80.492188 99.714844 L 86.609375 99.714844 C 87.4375 99.714844 88.109375 100.386719 88.109375 101.214844 L 88.109375 107.765625 C 88.109375 108.59375 87.4375 109.265625 86.609375 109.265625 L 80.492188 109.265625 C 79.664062 109.265625 78.992188 108.59375 78.992188 107.765625 L 78.992188 101.214844 C 78.992188 100.386719 79.664062 99.714844 80.492188 99.714844 Z M 80.492188 99.714844 " clip-rule="nonzero"/></clipPath><clipPath id="65c8ba98c0"><path d="M 95.871094 85.75 L 104.988281 85.75 L 104.988281 95.328125 L 95.871094 95.328125 Z M 95.871094 85.75 " clip-rule="nonzero"/></clipPath><clipPath id="7b4007dc3d"><path d="M 97.371094 85.75 L 103.488281 85.75 C 104.316406 85.75 104.988281 86.417969 104.988281 87.25 L 104.988281 93.796875 C 104.988281 94.625 104.316406 95.296875 103.488281 95.296875 L 97.371094 95.296875 C 96.542969 95.296875 95.871094 94.625 95.871094 93.796875 L 95.871094 87.25 C 95.871094 86.417969 96.542969 85.75 97.371094 85.75 Z M 97.371094 85.75 " clip-rule="nonzero"/></clipPath></defs><g clip-path="url(#2658af8e69)"><g clip-path="url(#bcc6141603)"><path stroke-linecap="butt" transform="matrix(0.75, 0, 0, 0.75, 33.000157, 41.040744)" fill="none" stroke-linejoin="miter" d="M 8.999792 -0.00224147 L 102.984179 -0.00224147 C 107.952929 -0.00224147 111.98418 4.029009 111.98418 8.99776 L 111.98418 93.070687 C 111.98418 98.044646 107.952929 102.070688 102.984179 102.070688 L 8.999792 102.070688 C 4.031041 102.070688 -0.00020902 98.044646 -0.00020902 93.070687 L -0.00020902 8.99776 C -0.00020902 4.029009 4.031041 -0.00224147 8.999792 -0.00224147 Z M 8.999792 -0.00224147 " stroke="#254f91" stroke-width="8" stroke-opacity="1" stroke-miterlimit="4"/></g></g><g clip-path="url(#60326eb424)"><path fill="#254f91" d="M 35.8125 43.457031 L 114.617188 43.457031 L 114.617188 67.164062 L 35.8125 67.164062 Z M 35.8125 43.457031 " fill-opacity="1" fill-rule="nonzero"/></g><g clip-path="url(#c700a28076)"><path stroke-linecap="butt" transform="matrix(0.75, 0, 0, 0.75, 35.827561, 43.457227)" fill="none" stroke-linejoin="miter" d="M 0.000751573 -0.000260553 L 104.979924 -0.000260553 L 104.979924 31.593491 L 0.000751573 31.593491 Z M 0.000751573 -0.000260553 " stroke="#254f91" stroke-width="8" stroke-opacity="1" stroke-miterlimit="4"/></g><g clip-path="url(#4051d7f61e)"><g clip-path="url(#5939063cde)"><path fill="#dae8ff" d="M 48.097656 44.855469 L 57.691406 44.855469 L 57.691406 54.449219 L 48.097656 54.449219 Z M 48.097656 44.855469 " fill-opacity="1" fill-rule="nonzero"/></g></g><g clip-path="url(#cae330ee31)"><g clip-path="url(#ed998b79d2)"><path fill="#254f91" d="M 49.878906 32.398438 L 55.910156 32.398438 L 55.910156 51.636719 L 49.878906 51.636719 Z M 49.878906 32.398438 " fill-opacity="1" fill-rule="nonzero"/></g></g><g clip-path="url(#1808e07b47)"><g clip-path="url(#588de92c3e)"><path fill="#dae8ff" d="M 92.910156 44.855469 L 102.503906 44.855469 L 102.503906 54.449219 L 92.910156 54.449219 Z M 92.910156 44.855469 " fill-opacity="1" fill-rule="nonzero"/></g></g><g clip-path="url(#e3a95b8eef)"><g clip-path="url(#f98b0f7c08)"><path fill="#254f91" d="M 94.695312 32.398438 L 100.722656 32.398438 L 100.722656 51.636719 L 94.695312 51.636719 Z M 94.695312 32.398438 " fill-opacity="1" fill-rule="nonzero"/></g></g><g clip-path="url(#e8a522cda0)"><g clip-path="url(#2b56bce5c8)"><path fill="#254f91" d="M 45.230469 71.78125 L 54.347656 71.78125 L 54.347656 81.324219 L 45.230469 81.324219 Z M 45.230469 71.78125 " fill-opacity="1" fill-rule="nonzero"/></g></g><g clip-path="url(#57defa5c4e)"><g clip-path="url(#7589679aa9)"><path fill="#254f91" d="M 62.113281 71.78125 L 71.226562 71.78125 L 71.226562 81.324219 L 62.113281 81.324219 Z M 62.113281 71.78125 " fill-opacity="1" fill-rule="nonzero"/></g></g><g clip-path="url(#9c69fc3dec)"><g clip-path="url(#75401d6777)"><path fill="#254f91" d="M 78.992188 71.78125 L 88.109375 71.78125 L 88.109375 81.324219 L 78.992188 81.324219 Z M 78.992188 71.78125 " fill-opacity="1" fill-rule="nonzero"/></g></g><g clip-path="url(#c00f2b1ca5)"><g clip-path="url(#ec4bb65c83)"><path fill="#254f91" d="M 95.871094 71.78125 L 104.988281 71.78125 L 104.988281 81.324219 L 95.871094 81.324219 Z M 95.871094 71.78125 " fill-opacity="1" fill-rule="nonzero"/></g></g><g clip-path="url(#fc065d70e4)"><g clip-path="url(#cb80b62343)"><path fill="#254f91" d="M 45.324219 85.75 L 54.4375 85.75 L 54.4375 95.292969 L 45.324219 95.292969 Z M 45.324219 85.75 " fill-opacity="1" fill-rule="nonzero"/></g></g><g clip-path="url(#2b39aaf82e)"><g clip-path="url(#66fac8f05b)"><path fill="#254f91" d="M 45.230469 99.714844 L 54.347656 99.714844 L 54.347656 109.261719 L 45.230469 109.261719 Z M 45.230469 99.714844 " fill-opacity="1" fill-rule="nonzero"/></g></g><g clip-path="url(#8982dcfde9)"><g clip-path="url(#c3506a06cc)"><path fill="#254f91" d="M 62.113281 85.75 L 71.226562 85.75 L 71.226562 95.292969 L 62.113281 95.292969 Z M 62.113281 85.75 " fill-opacity="1" fill-rule="nonzero"/></g></g><g clip-path="url(#07c26c9d21)"><g clip-path="url(#fadbe7f92f)"><path fill="#254f91" d="M 62.113281 99.714844 L 71.226562 99.714844 L 71.226562 109.261719 L 62.113281 109.261719 Z M 62.113281 99.714844 " fill-opacity="1" fill-rule="nonzero"/></g></g><g clip-path="url(#eb55f42be0)"><g clip-path="url(#a3fe40a323)"><path fill="#254f91" d="M 78.992188 99.714844 L 88.109375 99.714844 L 88.109375 109.261719 L 78.992188 109.261719 Z M 78.992188 99.714844 " fill-opacity="1" fill-rule="nonzero"/></g></g><g clip-path="url(#65c8ba98c0)"><g clip-path="url(#7b4007dc3d)"><path fill="#254f91" d="M 95.871094 85.75 L 104.988281 85.75 L 104.988281 95.292969 L 95.871094 95.292969 Z M 95.871094 85.75 " fill-opacity="1" fill-rule="nonzero"/></g></g><path stroke-linecap="round" transform="matrix(0.494089, 0.564248, -0.564248, 0.494089, 79.798355, 87.883605)" fill="none" stroke-linejoin="miter" d="M 2.500173 2.503451 L 8.811334 2.498452 " stroke="#254f91" stroke-width="5" stroke-opacity="1" stroke-miterlimit="4"/><path stroke-linecap="round" transform="matrix(0.530734, -0.529926, 0.529926, 0.530734, 80.309886, 93.836927)" fill="none" stroke-linejoin="miter" d="M 2.49859 2.500284 L 14.747745 2.498323 " stroke="#254f91" stroke-width="5" stroke-opacity="1" stroke-miterlimit="4"/></svg>