<svg xmlns="http://www.w3.org/2000/svg" xmlns:xlink="http://www.w3.org/1999/xlink" width="200" zoomAndPan="magnify" viewBox="0 0 150 149.999998" height="200" preserveAspectRatio="xMidYMid meet" version="1.0"><defs><clipPath id="40f0e597c3"><path d="M 8 30.367188 L 142 30.367188 L 142 92 L 8 92 Z M 8 30.367188 " clip-rule="nonzero"/></clipPath></defs><path fill="#254f91" d="M 139.601562 73.953125 C 139.945312 73.703125 140.296875 73.441406 140.65625 73.152344 C 142.496094 71.597656 140.566406 69.734375 136.257812 68.003906 C 129.519531 65.300781 126.328125 63.695312 118.40625 60.460938 C 103.171875 54.238281 82.089844 43.359375 67.289062 36.210938 C 66.046875 35.613281 64.765625 35 63.390625 34.917969 C 62.476562 34.855469 61.589844 34.96875 60.722656 35.261719 C 42.640625 41.683594 25.363281 47.082031 15.976562 49.613281 C 11.519531 50.820312 7.492188 51.464844 8.894531 52.375 C 10.070312 53.082031 11.375 53.867188 12.757812 54.707031 C 9.828125 55.433594 7.867188 55.964844 8.894531 56.648438 L 12.757812 58.980469 C 9.828125 59.703125 7.847656 60.238281 8.894531 60.917969 L 12.757812 63.253906 C 9.828125 63.980469 7.867188 64.511719 8.894531 65.191406 L 12.757812 67.523438 C 9.828125 68.238281 7.847656 68.78125 8.894531 69.460938 L 12.757812 71.796875 C 9.828125 72.523438 7.867188 73.054688 8.894531 73.734375 L 9.785156 74.265625 C 10.03125 74.414062 9.824219 74.804688 10.078125 74.960938 C 15.53125 78.289062 23.554688 83.050781 29.660156 86.371094 C 36.492188 90.234375 42.941406 93.640625 49.777344 97.484375 C 58.742188 102.550781 76.714844 111.414062 86.203125 115.421875 C 92.328125 118.003906 93.695312 118.03125 100.335938 114.921875 C 106.734375 111.929688 129.179688 101.375 130.566406 100.660156 C 134.703125 98.539062 137.171875 97.773438 140.789062 94.878906 C 140.914062 94.773438 140.890625 94.269531 140.984375 94.164062 C 141.800781 93.183594 141.234375 92.101562 139.605469 91.015625 C 139.949219 90.769531 140.300781 90.503906 140.660156 90.214844 C 141.914062 89.15625 141.414062 87.949219 139.605469 86.746094 C 139.949219 86.492188 140.300781 86.230469 140.660156 85.945312 C 141.914062 84.882812 141.414062 83.679688 139.605469 82.46875 C 139.949219 82.21875 140.300781 81.957031 140.660156 81.667969 C 141.914062 80.609375 141.414062 79.40625 139.605469 78.195312 C 139.949219 77.949219 140.300781 77.6875 140.660156 77.398438 C 141.910156 76.359375 141.410156 75.160156 139.601562 73.953125 Z M 139.601562 73.953125 " fill-opacity="1" fill-rule="nonzero"/><g clip-path="url(#40f0e597c3)"><path fill="#426db0" d="M 136.121094 63.929688 C 129.453125 61.125 126.339844 59.246094 118.394531 56.011719 C 103.160156 49.789062 82.078125 38.90625 67.273438 31.761719 C 66.019531 31.164062 64.742188 30.550781 63.363281 30.457031 C 62.449219 30.394531 61.5625 30.507812 60.695312 30.796875 C 42.640625 37.230469 25.363281 42.632812 15.976562 45.164062 C 11.519531 46.371094 7.492188 47.015625 8.894531 47.925781 L 12.96875 50.382812 C 13.609375 50.769531 12.75 51.15625 13.410156 51.5625 C 18.0625 54.363281 24.328125 57.648438 28.898438 60.136719 C 35.730469 63.996094 42.1875 67.402344 49.019531 71.25 C 57.984375 76.316406 76.484375 85.507812 85.976562 89.515625 C 92.097656 92.101562 93.46875 92.128906 100.105469 89.019531 C 106.503906 86.03125 128.871094 75.960938 130.253906 75.242188 C 134.125 73.15625 136.578125 72.449219 139.542969 70.351562 C 139.675781 70.257812 139.621094 69.90625 139.753906 69.792969 C 140.011719 69.597656 140.28125 69.394531 140.554688 69.179688 C 142.410156 67.621094 140.765625 65.882812 136.121094 63.929688 Z M 136.121094 63.929688 " fill-opacity="1" fill-rule="nonzero"/></g><path fill="#578bdb" d="M 87.90625 57.285156 C 82.769531 53.441406 74.125 51.566406 68.546875 53.09375 C 62.96875 54.625 62.648438 58.980469 67.78125 62.820312 C 72.914062 66.660156 81.5625 68.542969 87.136719 67.011719 C 92.710938 65.484375 93.039062 61.128906 87.90625 57.285156 Z M 87.90625 57.285156 " fill-opacity="1" fill-rule="nonzero"/><path fill="#303f57" d="M 140.738281 95.226562 C 139.039062 96.851562 129.21875 102.1875 119.402344 106.402344 C 113.5 108.929688 106.636719 112.59375 102.171875 114.480469 C 98.507812 116.03125 94.03125 119.546875 88.117188 116.84375 C 73.957031 110.371094 65.363281 106.589844 49.71875 97.878906 C 46.164062 95.898438 41.109375 93.378906 37.601562 91.304688 C 29.109375 86.28125 17.15625 80.21875 9.402344 75.109375 C 8.859375 74.753906 9.207031 74.503906 9.792969 74.265625 C 15.285156 77.578125 23.066406 82.339844 29.453125 85.824219 C 36.285156 89.6875 42.742188 93.097656 49.574219 96.9375 C 58.539062 102.003906 76.511719 110.867188 86.023438 114.875 C 92.144531 117.457031 93.519531 117.484375 100.15625 114.378906 C 106.550781 111.390625 128.851562 101.015625 130.25 100.304688 C 134.386719 98.179688 137.085938 97.394531 140.695312 94.523438 C 140.8125 94.421875 140.921875 94.3125 141.019531 94.195312 C 141.027344 94.210938 141.039062 94.226562 141.050781 94.238281 C 141.320312 94.613281 141.078125 94.910156 140.738281 95.226562 Z M 49.675781 93.679688 C 65.304688 102.410156 73.890625 106.207031 88.042969 112.695312 C 93.949219 115.402344 98.421875 111.878906 102.089844 110.324219 C 106.535156 108.433594 113.40625 104.761719 119.308594 102.222656 C 127.621094 98.667969 136.5625 93.832031 140.148438 91.445312 C 139.980469 91.308594 139.792969 91.175781 139.597656 91.042969 C 136.484375 93.292969 133.933594 94.125 130.210938 96.03125 C 128.8125 96.746094 106.511719 107.121094 100.117188 110.113281 C 93.480469 113.226562 92.113281 113.1875 85.984375 110.605469 C 76.492188 106.605469 58.523438 97.738281 49.554688 92.671875 C 42.722656 88.8125 36.269531 85.402344 29.4375 81.558594 C 24.132812 78.671875 17.878906 74.890625 12.757812 71.8125 C 12.183594 71.957031 11.652344 72.089844 11.167969 72.222656 C 19.042969 77.488281 29.765625 82.464844 37.566406 87.082031 C 41.0625 89.164062 46.121094 91.691406 49.675781 93.679688 Z M 49.675781 89.402344 C 65.304688 98.136719 73.890625 101.933594 88.042969 108.425781 C 93.949219 111.132812 98.421875 107.605469 102.089844 106.050781 C 106.535156 104.160156 113.40625 100.488281 119.308594 97.945312 C 127.394531 94.472656 136.308594 89.679688 140.160156 87.179688 C 139.992188 87.046875 139.796875 86.910156 139.597656 86.773438 C 136.484375 89.019531 133.933594 89.851562 130.210938 91.757812 C 128.8125 92.476562 106.511719 102.871094 100.117188 105.839844 C 93.480469 108.953125 92.113281 108.917969 85.984375 106.335938 C 76.492188 102.335938 58.523438 93.464844 49.554688 88.398438 C 42.722656 84.535156 36.269531 81.128906 29.4375 77.285156 C 24.132812 74.402344 17.878906 70.617188 12.757812 67.542969 C 12.183594 67.683594 11.652344 67.816406 11.167969 67.945312 C 19.042969 73.234375 29.765625 78.203125 37.566406 82.828125 C 41.0625 84.890625 46.121094 87.417969 49.675781 89.402344 Z M 49.675781 85.132812 C 65.304688 93.867188 73.890625 97.664062 88.042969 104.152344 C 93.949219 106.859375 98.421875 103.335938 102.089844 101.777344 C 106.535156 99.886719 113.40625 96.214844 119.308594 93.675781 C 127.714844 90.0625 136.710938 85.273438 140.203125 82.945312 C 140.019531 82.796875 139.816406 82.648438 139.597656 82.5 C 136.484375 84.75 133.933594 85.582031 130.210938 87.488281 C 128.8125 88.203125 106.511719 98.574219 100.117188 101.566406 C 93.480469 104.675781 92.113281 104.644531 85.984375 102.0625 C 76.492188 98.0625 58.523438 89.171875 49.554688 84.125 C 42.722656 80.265625 36.269531 76.859375 29.4375 73.015625 C 24.132812 70.128906 17.878906 66.347656 12.757812 63.269531 C 12.183594 63.414062 11.652344 63.546875 11.167969 63.675781 C 19.042969 68.964844 29.765625 73.929688 37.566406 78.558594 C 41.0625 80.613281 46.121094 83.144531 49.675781 85.132812 Z M 49.675781 80.859375 C 65.304688 89.59375 73.890625 93.390625 88.042969 99.875 C 93.949219 102.585938 98.421875 99.0625 102.089844 97.507812 C 106.535156 95.613281 113.40625 91.941406 119.308594 89.402344 C 127.359375 85.941406 136.304688 81.175781 140.203125 78.671875 C 140.023438 78.527344 139.816406 78.375 139.597656 78.226562 C 136.484375 80.476562 133.933594 81.308594 130.210938 83.214844 C 128.8125 83.929688 106.511719 94.300781 100.117188 97.292969 C 93.480469 100.40625 92.113281 100.375 85.984375 97.785156 C 76.492188 93.785156 58.523438 84.921875 49.554688 79.855469 C 42.722656 75.992188 36.269531 72.585938 29.4375 68.742188 C 24.132812 65.855469 17.878906 62.074219 12.757812 59 C 12.183594 59.140625 11.652344 59.273438 11.167969 59.402344 C 19.042969 64.683594 29.765625 69.640625 37.566406 74.265625 C 41.0625 76.34375 46.121094 78.871094 49.675781 80.859375 Z M 49.675781 76.585938 C 65.304688 85.324219 73.890625 89.117188 88.042969 95.605469 C 93.949219 98.316406 98.421875 94.789062 102.089844 93.234375 C 106.535156 91.339844 113.40625 87.667969 119.308594 85.132812 C 127.542969 81.574219 136.59375 76.882812 140.3125 74.488281 C 140.085938 74.296875 139.847656 74.121094 139.597656 73.957031 C 136.484375 76.207031 133.933594 77.035156 130.210938 78.945312 C 128.8125 79.660156 106.511719 90.03125 100.117188 93.023438 C 93.480469 96.132812 92.113281 96.101562 85.984375 93.515625 C 76.492188 89.515625 58.523438 80.625 49.554688 75.582031 C 42.722656 71.71875 36.269531 68.3125 29.4375 64.46875 C 24.132812 61.585938 17.878906 57.800781 12.757812 54.726562 C 12.183594 54.867188 11.652344 55.003906 11.167969 55.132812 C 19.042969 60.402344 29.765625 65.367188 37.566406 70.019531 C 41.0625 72.070312 46.121094 74.601562 49.675781 76.585938 Z M 49.675781 72.144531 C 65.304688 80.871094 73.890625 84.667969 88.042969 91.160156 C 93.949219 93.871094 98.421875 90.339844 102.089844 88.789062 C 106.535156 86.894531 113.816406 83.175781 119.71875 80.636719 C 128.101562 77.027344 136.996094 72.609375 140.484375 70.375 C 140.257812 70.164062 140.015625 69.972656 139.761719 69.796875 C 136.59375 72.128906 134.308594 72.597656 130.261719 74.773438 C 128.878906 75.515625 106.511719 85.585938 100.117188 88.578125 C 93.480469 91.6875 92.113281 91.652344 85.984375 89.070312 C 76.492188 85.070312 58.523438 76.199219 49.554688 71.132812 C 42.722656 67.273438 36.269531 63.867188 29.4375 60.019531 C 24.210938 57.171875 18.042969 53.46875 12.988281 50.402344 C 12.417969 50.542969 11.875 50.675781 11.378906 50.804688 C 19.238281 56.046875 29.851562 60.972656 37.605469 65.5625 C 41.0625 67.621094 46.121094 70.152344 49.675781 72.136719 Z M 81.511719 59.597656 C 81.511719 59.082031 81.808594 57.140625 81.636719 56.765625 C 80.214844 57.058594 78.828125 57.460938 77.476562 57.980469 C 75.621094 57.210938 72.691406 56.15625 70.742188 55.476562 C 71.808594 56.777344 72.964844 57.988281 74.214844 59.113281 C 72.871094 59.640625 71.558594 60.230469 70.277344 60.890625 C 72.417969 61.308594 76.675781 61.675781 76.839844 61.75 C 78.21875 62.914062 79.671875 63.980469 81.195312 64.945312 C 81.261719 63.695312 81.195312 62.355469 81.195312 62.011719 C 82.855469 62.125 85.257812 62.265625 86.863281 62.273438 C 84.863281 61.242188 81.554688 59.632812 81.511719 59.597656 Z M 57.628906 49.925781 C 57.914062 50.488281 57.628906 50.816406 57.289062 51.257812 C 58.023438 51.078125 58.765625 51.035156 59.511719 51.136719 C 60.316406 51.242188 61.082031 51.464844 61.816406 51.804688 C 61.347656 51.457031 61 51.011719 60.78125 50.472656 C 60.664062 50.0625 60.738281 49.6875 60.996094 49.351562 C 60.328125 49.601562 59.640625 49.65625 58.941406 49.511719 C 57.835938 49.390625 55.675781 48.46875 55.675781 48.46875 C 56.445312 48.796875 57.09375 49.285156 57.628906 49.925781 Z M 89.925781 52.210938 C 88.824219 52.089844 86.664062 51.164062 86.664062 51.164062 C 87.429688 51.496094 88.085938 51.980469 88.625 52.621094 C 88.90625 53.1875 88.625 53.507812 88.28125 53.953125 C 89.015625 53.777344 89.757812 53.734375 90.503906 53.828125 C 91.304688 53.9375 92.074219 54.160156 92.808594 54.5 C 92.339844 54.152344 91.992188 53.707031 91.773438 53.167969 C 91.652344 52.757812 91.726562 52.386719 91.988281 52.050781 C 91.316406 52.296875 90.628906 52.351562 89.925781 52.210938 Z M 64.453125 66.398438 C 63.347656 66.28125 61.1875 65.355469 61.1875 65.355469 C 61.949219 65.6875 62.601562 66.171875 63.136719 66.808594 C 63.414062 67.378906 63.136719 67.699219 62.792969 68.140625 C 63.527344 67.964844 64.269531 67.925781 65.015625 68.015625 C 65.816406 68.125 66.585938 68.351562 67.320312 68.6875 C 66.847656 68.339844 66.503906 67.894531 66.28125 67.355469 C 66.164062 66.945312 66.238281 66.574219 66.5 66.238281 C 65.832031 66.484375 65.148438 66.539062 64.453125 66.398438 Z M 97.515625 69.636719 C 97.398438 69.226562 97.46875 68.855469 97.726562 68.519531 C 97.058594 68.765625 96.371094 68.816406 95.671875 68.675781 C 94.566406 68.554688 92.40625 67.628906 92.40625 67.628906 C 93.171875 67.964844 93.820312 68.449219 94.359375 69.085938 C 94.640625 69.652344 94.359375 69.972656 94.015625 70.417969 C 94.75 70.242188 95.492188 70.199219 96.238281 70.292969 C 97.039062 70.402344 97.808594 70.628906 98.542969 70.964844 C 98.074219 70.617188 97.734375 70.175781 97.515625 69.636719 Z M 69.425781 49.675781 C 69.71875 49.75 70.015625 49.761719 70.316406 49.703125 C 70.597656 49.609375 70.53125 49.300781 70.242188 49.097656 C 69.945312 48.914062 69.621094 48.8125 69.269531 48.800781 C 68.9375 48.800781 68.707031 48.894531 68.695312 49.058594 C 68.6875 49.207031 68.738281 49.324219 68.855469 49.410156 C 69.019531 49.542969 69.203125 49.628906 69.40625 49.675781 Z M 79.617188 50.382812 C 79.902344 50.289062 79.839844 49.980469 79.550781 49.777344 C 79.253906 49.59375 78.929688 49.496094 78.578125 49.480469 C 78.242188 49.480469 78.007812 49.574219 78 49.734375 C 77.992188 49.882812 78.042969 50 78.160156 50.089844 C 78.332031 50.226562 78.527344 50.3125 78.742188 50.355469 C 79.027344 50.425781 79.3125 50.4375 79.601562 50.382812 Z M 60.949219 60.828125 C 60.554688 60.625 60.136719 60.550781 59.695312 60.613281 C 59.460938 60.667969 59.3125 60.796875 59.417969 61.015625 C 59.613281 61.265625 59.867188 61.414062 60.179688 61.460938 C 60.40625 61.515625 60.636719 61.535156 60.867188 61.519531 C 61.117188 61.519531 61.199219 61.398438 61.21875 61.320312 C 61.238281 61.089844 61.144531 60.925781 60.933594 60.828125 Z M 59.921875 55.792969 C 59.527344 55.589844 59.109375 55.515625 58.667969 55.578125 C 58.433594 55.632812 58.28125 55.765625 58.394531 55.980469 C 58.585938 56.230469 58.835938 56.375 59.148438 56.425781 C 59.375 56.480469 59.609375 56.503906 59.84375 56.488281 C 60.085938 56.460938 60.171875 56.363281 60.191406 56.28125 C 60.210938 56.058594 60.121094 55.894531 59.921875 55.792969 Z M 84.136719 70.742188 C 84.433594 70.925781 84.757812 71.027344 85.109375 71.039062 C 85.445312 71.039062 85.675781 70.945312 85.6875 70.78125 C 85.695312 70.636719 85.640625 70.519531 85.527344 70.429688 C 85.351562 70.296875 85.160156 70.207031 84.945312 70.164062 C 84.648438 70.089844 84.351562 70.082031 84.054688 70.136719 C 83.785156 70.230469 83.847656 70.542969 84.136719 70.742188 Z M 76.496094 70.160156 C 76.835938 70.160156 77.066406 70.0625 77.074219 69.902344 C 77.085938 69.757812 77.03125 69.640625 76.914062 69.550781 C 76.742188 69.414062 76.550781 69.324219 76.332031 69.285156 C 76.039062 69.207031 75.742188 69.199219 75.445312 69.257812 C 75.160156 69.351562 75.222656 69.664062 75.511719 69.859375 C 75.8125 70.046875 76.140625 70.148438 76.496094 70.160156 Z M 96.058594 58.664062 C 95.828125 58.609375 95.597656 58.589844 95.363281 58.601562 C 95.117188 58.628906 95.035156 58.726562 95.011719 58.808594 C 95.011719 59.011719 95.101562 59.160156 95.285156 59.25 C 95.679688 59.457031 96.097656 59.53125 96.535156 59.46875 C 96.773438 59.410156 96.921875 59.28125 96.8125 59.066406 C 96.613281 58.835938 96.363281 58.703125 96.0625 58.664062 Z M 96.394531 63.597656 C 96.394531 63.800781 96.484375 63.949219 96.664062 64.042969 C 97.058594 64.25 97.476562 64.324219 97.917969 64.261719 C 98.15625 64.203125 98.300781 64.074219 98.195312 63.855469 C 98 63.605469 97.746094 63.457031 97.433594 63.414062 C 97.207031 63.359375 96.980469 63.335938 96.746094 63.351562 C 96.5 63.421875 96.421875 63.519531 96.398438 63.597656 Z M 64.363281 35.050781 C 65.515625 35.164062 66.625 35.445312 67.695312 35.886719 C 68.859375 36.308594 70.003906 36.753906 71.160156 37.1875 C 69.792969 36.261719 68.289062 35.34375 66.664062 34.457031 C 66.117188 34.132812 65.535156 33.902344 64.914062 33.773438 C 64.421875 33.6875 63.941406 33.738281 63.476562 33.921875 L 60.222656 35.082031 C 61.601562 34.960938 62.980469 34.953125 64.363281 35.050781 Z M 20 50.054688 C 21.679688 50.945312 23.1875 51.628906 24.984375 52.402344 C 23.945312 51.699219 22.957031 50.933594 22.023438 50.097656 C 21.8125 49.925781 21.683594 49.707031 21.628906 49.441406 C 21.574219 49.175781 21.613281 48.921875 21.738281 48.679688 C 21.921875 48.238281 22.160156 47.839844 22.375 47.421875 C 21.195312 47.679688 20.058594 48.058594 18.960938 48.554688 C 18.652344 48.703125 18.355469 48.886719 18.570312 49.179688 C 18.996094 49.554688 19.472656 49.847656 20 50.054688 Z M 92.042969 87.203125 C 92.539062 87.257812 93.015625 87.175781 93.464844 86.957031 L 96.625 85.574219 C 95.257812 85.789062 93.878906 85.894531 92.492188 85.886719 C 91.335938 85.851562 90.207031 85.648438 89.113281 85.273438 C 87.925781 84.925781 86.753906 84.5625 85.558594 84.203125 C 86.976562 85.039062 88.539062 85.847656 90.214844 86.621094 C 90.792969 86.917969 91.402344 87.109375 92.042969 87.203125 Z M 133.078125 68.164062 C 132.925781 68.609375 132.710938 69.027344 132.53125 69.460938 C 133.683594 69.132812 134.796875 68.6875 135.859375 68.128906 C 136.15625 67.964844 136.441406 67.765625 136.210938 67.480469 C 135.761719 67.128906 135.265625 66.863281 134.726562 66.683594 C 132.988281 65.925781 131.441406 65.324219 129.601562 64.664062 C 130.683594 65.296875 131.722656 66 132.710938 66.773438 C 132.929688 66.933594 133.074219 67.140625 133.140625 67.402344 C 133.210938 67.664062 133.1875 67.917969 133.078125 68.164062 Z M 30.511719 44.550781 L 30.597656 44.550781 C 30.597656 44.550781 30.574219 44.535156 30.511719 44.550781 Z M 33.851562 44.105469 Z M 26.183594 46.507812 C 26.433594 46.488281 26.679688 46.441406 26.921875 46.375 C 27.867188 46.105469 28.792969 45.78125 29.699219 45.394531 C 30.792969 45.066406 31.105469 45.054688 32.21875 44.65625 C 32.757812 44.492188 33.328125 44.289062 33.847656 44.105469 C 34.074219 43.964844 34.535156 43.882812 34.8125 43.738281 L 34.9375 43.738281 C 35.035156 43.679688 35.140625 43.640625 35.253906 43.621094 C 35.398438 43.546875 35.570312 43.507812 35.640625 43.46875 L 35.824219 43.40625 L 35.796875 43.425781 C 36.046875 43.316406 36.304688 43.230469 36.566406 43.160156 L 36.535156 43.125 C 37.066406 43.003906 37.21875 42.859375 37.703125 42.765625 C 38.257812 42.460938 38.65625 42.542969 39.226562 42.238281 C 39.152344 42.277344 39.265625 42.238281 39.261719 42.261719 C 39.535156 42.160156 39.828125 42.058594 39.808594 41.972656 C 40.011719 41.90625 39.980469 41.945312 40.015625 41.972656 C 40.050781 42 40.175781 41.867188 40.332031 41.8125 L 40.265625 41.847656 L 40.710938 41.6875 L 40.617188 41.6875 C 40.867188 41.632812 40.707031 41.753906 40.925781 41.660156 L 40.925781 41.609375 C 41.222656 41.542969 41.515625 41.5 41.816406 41.476562 C 43.148438 41.066406 44.550781 40.453125 45.816406 40.140625 L 45.886719 40.167969 C 45.933594 40.226562 46.199219 39.964844 46.265625 40.007812 L 46.402344 39.933594 C 46.449219 39.933594 46.539062 39.933594 46.472656 39.933594 C 46.550781 39.910156 46.625 39.878906 46.691406 39.832031 L 46.847656 39.832031 C 47.386719 39.691406 47.8125 39.46875 48.375 39.300781 C 49.273438 39.070312 50.148438 38.773438 51.003906 38.414062 C 51.992188 37.96875 53.257812 37.851562 54.261719 37.394531 C 54.296875 37.394531 54.378906 37.347656 54.375 37.335938 L 55.332031 37.03125 C 55.332031 37.03125 56.484375 36.652344 57.179688 36.339844 C 57.871094 36.03125 58.097656 35.816406 56.289062 36.160156 C 55.871094 36.253906 55.476562 36.402344 55.097656 36.601562 C 55.015625 36.535156 54.65625 36.738281 54.535156 36.75 C 54.242188 36.921875 53.863281 36.914062 53.578125 37.074219 C 53.578125 37.074219 53.578125 37.039062 53.660156 37.011719 C 53.4375 37.097656 53.136719 37.21875 53.109375 37.171875 C 52.5625 37.335938 52.03125 37.535156 51.511719 37.773438 C 51.367188 37.847656 51.21875 37.910156 51.066406 37.960938 C 51.066406 37.960938 51.035156 37.960938 51.035156 37.960938 C 50.78125 38.070312 50.523438 38.167969 50.257812 38.25 L 50.257812 38.222656 L 49.8125 38.363281 L 49.972656 38.320312 C 49.972656 38.429688 49.636719 38.367188 49.351562 38.527344 C 49.058594 38.609375 48.832031 38.90625 48.515625 38.972656 C 48.386719 39.058594 48.617188 38.863281 48.417969 38.972656 C 48.417969 38.929688 48.507812 38.910156 48.417969 38.886719 C 48.21875 38.980469 48.0625 38.953125 47.8125 39.070312 L 47.8125 39.035156 C 47.496094 39.210938 47.164062 39.191406 46.960938 39.328125 C 46.625 39.46875 46.691406 39.296875 46.355469 39.484375 L 46.199219 39.484375 C 46.042969 39.527344 46.109375 39.582031 45.933594 39.613281 C 45.933594 39.578125 45.707031 39.65625 45.800781 39.613281 C 45.394531 39.6875 45.035156 39.9375 44.496094 40.023438 C 44.410156 40.113281 44.136719 40.164062 44.050781 40.234375 C 44.050781 40.214844 43.535156 40.398438 43.808594 40.234375 C 43.808594 40.234375 43.875 40.207031 43.875 40.234375 L 43.875 40.1875 C 43.597656 40.257812 43.324219 40.351562 43.066406 40.476562 C 43.15625 40.476562 43.269531 40.421875 43.199219 40.476562 L 42.933594 40.554688 L 42.976562 40.507812 L 42.574219 40.617188 L 42.640625 40.640625 C 42.4375 40.683594 42.351562 40.640625 42.148438 40.765625 C 42.058594 40.828125 42.351562 40.765625 42.148438 40.835938 C 41.949219 40.90625 41.480469 40.980469 41.144531 41.078125 C 41.191406 41.109375 41.097656 41.136719 41.007812 41.175781 L 40.984375 41.140625 C 40.652344 41.304688 40.828125 41.101562 40.492188 41.257812 L 40.449219 41.328125 C 40.152344 41.503906 40.253906 41.328125 39.9375 41.519531 C 40.070312 41.472656 40.023438 41.582031 39.847656 41.617188 L 39.882812 41.570312 C 39.824219 41.601562 39.761719 41.625 39.695312 41.644531 C 39.746094 41.609375 39.695312 41.585938 39.570312 41.644531 L 39.652344 41.570312 L 39.410156 41.71875 C 39.195312 41.746094 38.886719 41.898438 38.789062 41.875 C 38.605469 41.917969 38.425781 41.988281 38.261719 42.078125 C 38.339844 42.019531 38.089844 42.078125 38.148438 42.023438 C 37.972656 42.132812 37.78125 42.203125 37.574219 42.234375 L 37.601562 42.234375 C 37.089844 42.355469 36.777344 42.570312 36.3125 42.679688 C 36.347656 42.714844 36.105469 42.769531 36.179688 42.804688 C 35.734375 43.003906 35.292969 42.960938 35.199219 43.183594 C 35.078125 43.226562 34.953125 43.246094 34.824219 43.25 L 34.875 43.226562 C 34.488281 43.363281 34.371094 43.40625 34.078125 43.492188 C 33.941406 43.554688 33.941406 43.644531 33.675781 43.707031 C 33.75 43.648438 33.648438 43.707031 33.546875 43.707031 C 33.605469 43.683594 33.625 43.667969 33.492188 43.683594 C 33.472656 43.703125 33.449219 43.71875 33.425781 43.730469 C 33.265625 43.792969 33.296875 43.792969 33.371094 43.773438 C 33.371094 43.773438 33.371094 43.773438 33.40625 43.773438 C 33.222656 43.773438 32.933594 43.929688 32.898438 43.878906 C 32.414062 44.054688 32.082031 44.21875 31.683594 44.375 C 31.628906 44.375 31.710938 44.300781 31.828125 44.253906 L 31.542969 44.359375 C 31.542969 44.320312 31.703125 44.28125 31.789062 44.246094 C 31.425781 44.292969 31.105469 44.539062 30.679688 44.609375 L 30.605469 44.667969 L 30.578125 44.667969 C 30.578125 44.667969 30.503906 44.734375 30.445312 44.761719 C 30.386719 44.785156 30.445312 44.679688 30.226562 44.761719 C 30.003906 44.816406 29.789062 44.898438 29.582031 45.003906 C 29.699219 44.972656 29.667969 45.003906 29.625 45.03125 C 29.578125 45.058594 29.453125 45.03125 29.382812 45.089844 L 29.355469 45.050781 C 29.414062 45.082031 29.113281 45.179688 29.085938 45.210938 C 29.058594 45.242188 29.226562 45.128906 29.246094 45.097656 L 28.648438 45.296875 C 28.445312 45.402344 28.699219 45.328125 28.613281 45.40625 C 28.425781 45.488281 28.230469 45.558594 28.027344 45.609375 L 28.113281 45.609375 C 27.855469 45.730469 27.585938 45.8125 27.304688 45.859375 C 26.058594 46.339844 25.96875 46.507812 26.183594 46.511719 Z M 104.550781 81.488281 L 104.636719 81.488281 C 104.636719 81.488281 104.628906 81.46875 104.550781 81.492188 Z M 107.835938 80.742188 Z M 128.285156 71.300781 C 128.191406 71.246094 127.867188 71.472656 127.738281 71.5 C 127.457031 71.699219 127.085938 71.726562 126.8125 71.90625 C 126.828125 71.875 126.851562 71.851562 126.882812 71.839844 C 126.675781 71.945312 126.386719 72.09375 126.351562 72.050781 C 125.820312 72.261719 125.308594 72.511719 124.816406 72.796875 C 124.675781 72.882812 124.527344 72.960938 124.371094 73.023438 C 124.371094 73.023438 124.339844 73.023438 124.339844 73.023438 C 124.097656 73.15625 123.847656 73.277344 123.589844 73.382812 L 123.566406 73.355469 L 123.164062 73.539062 L 123.320312 73.480469 C 123.320312 73.59375 122.984375 73.554688 122.714844 73.742188 C 122.433594 73.851562 122.230469 74.1875 121.921875 74.246094 C 121.804688 74.347656 122.015625 74.128906 121.824219 74.246094 C 121.796875 74.199219 121.910156 74.175781 121.824219 74.160156 C 121.632812 74.265625 121.472656 74.253906 121.238281 74.390625 L 121.214844 74.359375 C 120.917969 74.566406 120.585938 74.578125 120.394531 74.734375 C 120.074219 74.90625 120.121094 74.734375 119.808594 74.941406 L 119.652344 74.941406 C 119.496094 75 119.566406 75.050781 119.394531 75.09375 C 119.394531 75.0625 119.175781 75.160156 119.261719 75.09375 C 118.863281 75.210938 118.527344 75.488281 118.003906 75.617188 C 117.917969 75.726562 117.65625 75.796875 117.597656 75.871094 C 117.570312 75.871094 117.097656 76.082031 117.355469 75.90625 C 117.375 75.90625 117.414062 75.875 117.414062 75.90625 L 117.414062 75.859375 C 117.144531 75.953125 116.886719 76.074219 116.636719 76.222656 C 116.722656 76.222656 116.832031 76.152344 116.769531 76.222656 L 116.507812 76.328125 L 116.550781 76.277344 L 116.15625 76.421875 L 116.222656 76.421875 C 116.027344 76.484375 115.9375 76.453125 115.75 76.597656 C 115.664062 76.667969 115.945312 76.570312 115.75 76.664062 C 115.488281 76.746094 115.089844 76.871094 114.765625 76.996094 C 114.816406 77.027344 114.726562 77.0625 114.640625 77.109375 L 114.617188 77.078125 C 114.296875 77.273438 114.460938 77.078125 114.136719 77.238281 L 114.136719 77.203125 L 114.082031 77.3125 C 113.804688 77.511719 113.882812 77.3125 113.585938 77.546875 C 113.71875 77.484375 113.683594 77.601562 113.507812 77.65625 L 113.535156 77.605469 C 113.480469 77.640625 113.421875 77.671875 113.363281 77.695312 C 113.40625 77.65625 113.363281 77.632812 113.238281 77.695312 L 113.308594 77.609375 L 113.082031 77.785156 C 112.882812 77.863281 112.683594 77.9375 112.476562 77.996094 C 112.296875 78.058594 112.128906 78.140625 111.96875 78.246094 C 112.042969 78.179688 111.800781 78.246094 111.851562 78.195312 C 111.6875 78.324219 111.503906 78.414062 111.304688 78.464844 C 110.804688 78.628906 110.507812 78.867188 110.058594 79 C 110.09375 79.039062 109.859375 79.109375 109.9375 79.140625 C 109.515625 79.378906 109.085938 79.378906 108.992188 79.609375 C 108.875 79.660156 108.753906 79.691406 108.628906 79.707031 L 108.671875 79.683594 C 108.304688 79.855469 108.191406 79.902344 107.90625 80.019531 C 107.773438 80.09375 107.789062 80.179688 107.523438 80.269531 C 107.597656 80.207031 107.496094 80.269531 107.402344 80.296875 C 107.457031 80.265625 107.472656 80.246094 107.34375 80.296875 C 107.324219 80.316406 107.304688 80.332031 107.28125 80.34375 C 107.128906 80.425781 107.160156 80.417969 107.238281 80.394531 C 107.238281 80.394531 107.238281 80.394531 107.265625 80.394531 C 107.089844 80.425781 106.824219 80.589844 106.773438 80.542969 C 106.308594 80.757812 105.992188 80.957031 105.609375 81.144531 C 105.550781 81.144531 105.636719 81.074219 105.742188 81.015625 L 105.472656 81.144531 C 105.472656 81.105469 105.621094 81.054688 105.703125 81.011719 C 105.347656 81.089844 105.042969 81.363281 104.632812 81.457031 L 104.566406 81.523438 L 104.628906 81.523438 C 104.628906 81.523438 104.558594 81.597656 104.503906 81.625 C 104.445312 81.652344 104.476562 81.546875 104.285156 81.625 C 104.066406 81.699219 103.859375 81.800781 103.667969 81.925781 C 103.773438 81.886719 103.746094 81.925781 103.707031 81.953125 C 103.667969 81.980469 103.542969 81.984375 103.476562 82.027344 L 103.445312 81.988281 C 103.503906 82.015625 103.214844 82.144531 103.1875 82.175781 C 103.160156 82.207031 103.324219 82.082031 103.339844 82.046875 L 102.761719 82.304688 C 102.570312 82.425781 102.816406 82.332031 102.734375 82.410156 C 102.554688 82.515625 102.367188 82.601562 102.171875 82.667969 L 102.253906 82.667969 C 102.007812 82.8125 101.75 82.921875 101.476562 82.988281 C 100.273438 83.699219 100.199219 83.878906 100.410156 83.878906 C 100.65625 83.832031 100.898438 83.765625 101.132812 83.679688 C 102.046875 83.324219 102.9375 82.914062 103.800781 82.449219 C 104.859375 82.007812 105.167969 81.980469 106.242188 81.480469 C 106.761719 81.269531 107.308594 81.039062 107.808594 80.789062 C 108.023438 80.625 108.476562 80.503906 108.738281 80.34375 L 108.863281 80.34375 C 108.957031 80.277344 109.058594 80.230469 109.171875 80.203125 C 109.304688 80.113281 109.476562 80.054688 109.542969 80.011719 L 109.722656 79.929688 L 109.695312 79.957031 C 109.933594 79.824219 110.183594 79.710938 110.441406 79.621094 L 110.402344 79.589844 C 110.917969 79.425781 111.0625 79.257812 111.535156 79.144531 C 112.050781 78.792969 112.460938 78.835938 112.996094 78.480469 C 112.929688 78.527344 113.039062 78.480469 113.039062 78.480469 C 113.300781 78.351562 113.585938 78.222656 113.554688 78.144531 C 113.753906 78.058594 113.726562 78.097656 113.761719 78.144531 C 113.796875 78.1875 113.914062 78.019531 114.0625 77.953125 L 113.996094 77.996094 L 114.441406 77.796875 L 114.328125 77.765625 C 114.566406 77.6875 114.417969 77.824219 114.632812 77.710938 L 114.605469 77.660156 C 114.898438 77.570312 115.195312 77.496094 115.496094 77.441406 C 116.796875 76.914062 118.128906 76.179688 119.371094 75.761719 L 119.441406 75.761719 C 119.492188 75.808594 119.734375 75.53125 119.804688 75.566406 L 119.933594 75.476562 C 119.976562 75.476562 120.066406 75.445312 120 75.476562 C 120.078125 75.449219 120.148438 75.40625 120.214844 75.355469 L 120.367188 75.355469 C 120.890625 75.164062 121.292969 74.910156 121.839844 74.691406 C 122.710938 74.367188 123.558594 73.988281 124.378906 73.550781 C 125.320312 73.035156 126.570312 72.789062 127.523438 72.246094 C 127.5625 72.246094 127.640625 72.183594 127.636719 72.171875 L 128.554688 71.78125 C 128.554688 71.78125 129.671875 71.296875 130.332031 70.925781 C 130.996094 70.550781 131.222656 70.320312 129.414062 70.828125 C 129.011719 70.933594 128.636719 71.09375 128.28125 71.308594 Z M 35.039062 58.3125 L 35.167969 58.40625 C 35.167969 58.40625 35.140625 58.371094 35.039062 58.3125 Z M 40.125 61.726562 L 40.085938 61.726562 Z M 62.183594 73.183594 L 62.410156 73.347656 C 63.300781 73.84375 64.109375 74.167969 65.078125 74.679688 C 66.191406 75.351562 68.386719 76.390625 69.652344 76.988281 C 71.429688 77.800781 73.375 79.066406 75.222656 79.878906 C 75.289062 79.917969 75.363281 79.945312 75.441406 79.960938 L 77.089844 80.792969 L 78.25 81.363281 C 78.917969 81.667969 79.734375 82.058594 80.382812 82.316406 C 81.03125 82.574219 81.507812 82.71875 81.421875 82.597656 C 81.339844 82.476562 80.710938 82.152344 79.25 81.265625 L 79.296875 81.265625 C 78.613281 80.886719 77.910156 80.554688 77.1875 80.265625 C 77.125 80.136719 76.449219 79.886719 76.25 79.757812 C 75.667969 79.542969 75.140625 79.140625 74.585938 78.925781 C 74.648438 78.925781 74.703125 78.941406 74.75 78.976562 C 74.421875 78.839844 74.113281 78.667969 73.820312 78.464844 C 72.894531 78.019531 71.597656 77.339844 70.996094 77.128906 L 71.039062 77.128906 C 70.679688 77.003906 70.59375 76.914062 70.210938 76.746094 L 70.175781 76.710938 C 69.785156 76.574219 69.105469 76.175781 68.800781 76.046875 L 68.800781 76.003906 L 68.070312 75.640625 L 68.335938 75.785156 C 68.199219 75.824219 67.8125 75.449219 67.261719 75.230469 C 66.710938 75.015625 66.167969 74.894531 65.679688 74.585938 C 65.410156 74.503906 65.921875 74.632812 65.546875 74.476562 C 65.546875 74.425781 65.726562 74.539062 65.652344 74.476562 C 65.28125 74.3125 65.085938 74.125 64.628906 73.929688 L 64.628906 73.886719 C 64.019531 73.648438 63.5625 73.28125 63.148438 73.136719 C 62.539062 72.859375 62.800781 72.832031 62.148438 72.578125 L 61.9375 72.40625 C 61.671875 72.261719 61.714844 72.363281 61.433594 72.191406 C 61.464844 72.191406 61.074219 71.972656 61.261719 72.035156 C 60.621094 71.644531 59.878906 71.398438 59.039062 70.867188 C 58.820312 70.828125 58.398438 70.566406 58.234375 70.535156 C 58.234375 70.492188 57.34375 70.089844 57.871094 70.269531 C 57.917969 70.269531 57.992188 70.328125 57.984375 70.339844 L 58.058594 70.339844 C 57.601562 70.078125 57.128906 69.84375 56.644531 69.636719 C 56.789062 69.71875 56.984375 69.816406 56.839844 69.773438 L 56.398438 69.535156 L 56.503906 69.535156 L 55.832031 69.164062 L 55.90625 69.246094 C 55.65625 69.0625 55.382812 68.914062 55.09375 68.800781 C 54.90625 68.738281 55.382812 69.011719 55.027344 68.839844 C 54.582031 68.582031 53.941406 68.195312 53.378906 67.886719 C 53.410156 67.957031 53.257812 67.886719 53.09375 67.800781 L 53.09375 67.753906 C 52.46875 67.484375 52.910156 67.5625 52.292969 67.3125 L 52.359375 67.3125 L 52.160156 67.3125 C 51.585938 67.09375 51.90625 67.085938 51.273438 66.867188 C 51.511719 66.984375 51.34375 67 51.058594 66.835938 L 51.152344 66.835938 C 50.984375 66.753906 50.925781 66.742188 50.816406 66.679688 C 50.925781 66.710938 50.894531 66.679688 50.652344 66.539062 L 50.835938 66.582031 L 50.351562 66.402344 C 50.023438 66.1875 49.460938 65.960938 49.332031 65.820312 C 49.035156 65.652344 48.722656 65.503906 48.398438 65.378906 C 48.566406 65.425781 48.160156 65.199219 48.296875 65.222656 C 47.9375 65.082031 47.601562 64.902344 47.285156 64.683594 L 47.328125 64.683594 C 46.507812 64.199219 45.851562 63.976562 45.105469 63.527344 C 45.105469 63.585938 44.734375 63.355469 44.804688 63.457031 C 43.992188 63.09375 43.425781 62.59375 43.0625 62.601562 C 42.859375 62.496094 42.664062 62.371094 42.480469 62.234375 L 42.566406 62.269531 C 41.890625 61.933594 41.679688 61.824219 41.203125 61.5625 C 40.9375 61.484375 40.679688 61.375 40.433594 61.242188 C 40.59375 61.292969 40.40625 61.199219 40.242188 61.113281 C 40.351562 61.164062 40.390625 61.171875 40.179688 61.035156 C 40.136719 61.023438 40.089844 61.007812 40.046875 60.988281 C 39.761719 60.851562 39.808594 60.882812 39.933594 60.957031 C 39.933594 60.957031 39.933594 60.957031 39.96875 61 C 39.699219 60.808594 39.167969 60.554688 39.160156 60.503906 C 38.320312 60.0625 37.695312 59.808594 36.992188 59.457031 C 36.925781 59.390625 37.101562 59.457031 37.308594 59.550781 L 36.8125 59.296875 C 36.839844 59.261719 37.105469 59.425781 37.257812 59.5 C 36.703125 59.117188 36.019531 58.90625 35.363281 58.460938 L 35.207031 58.414062 L 35.167969 58.390625 C 35.070312 58.371094 34.980469 58.335938 34.890625 58.292969 C 34.8125 58.207031 34.941406 58.21875 34.597656 58.042969 C 34.234375 57.828125 33.855469 57.640625 33.46875 57.472656 C 33.65625 57.582031 33.585938 57.566406 33.496094 57.53125 C 33.328125 57.441406 33.246094 57.359375 33.109375 57.300781 L 33.109375 57.246094 C 33.152344 57.328125 32.664062 57.050781 32.574219 57.035156 C 32.488281 57.015625 32.851562 57.152344 32.902344 57.148438 L 31.886719 56.597656 C 31.507812 56.433594 31.929688 56.679688 31.734375 56.597656 C 31.414062 56.429688 31.085938 56.292969 30.734375 56.066406 L 30.828125 56.167969 C 30.363281 55.949219 29.917969 55.691406 29.496094 55.398438 C 27.183594 54.316406 26.921875 54.167969 27.167969 54.464844 C 27.386719 54.648438 27.613281 54.820312 27.84375 54.980469 C 28.101562 55.160156 28.316406 55.285156 28.316406 55.285156 C 30.019531 56.367188 30.984375 56.75 33.105469 57.863281 C 34.945312 58.878906 35.390625 59.226562 37.328125 60.214844 C 38.214844 60.710938 39.226562 61.214844 40.125 61.683594 C 40.566406 61.851562 41.300781 62.304688 41.832031 62.523438 L 42.007812 62.660156 C 42.203125 62.738281 42.386719 62.832031 42.5625 62.941406 C 42.839844 63.058594 43.125 63.226562 43.257812 63.277344 L 43.578125 63.445312 L 43.515625 63.445312 C 43.960938 63.65625 44.449219 63.886719 44.847656 64.132812 L 44.847656 64.074219 C 45.703125 64.582031 46.066406 64.671875 46.832031 65.136719 C 47.890625 65.582031 48.378906 66.027344 49.460938 66.46875 C 49.328125 66.417969 49.507812 66.519531 49.492188 66.523438 C 49.972656 66.765625 50.488281 67.023438 50.535156 66.96875 C 50.878906 67.152344 50.804688 67.136719 50.835938 67.195312 C 51.046875 67.242188 51.246094 67.324219 51.433594 67.441406 L 51.296875 67.390625 L 52.082031 67.785156 L 51.964844 67.640625 C 52.363281 67.875 52.027344 67.773438 52.410156 67.964844 L 52.4375 67.90625 C 52.996094 68.21875 53.289062 68.476562 53.820312 68.796875 C 56.105469 70.011719 58.636719 71.164062 60.722656 72.351562 L 60.796875 72.441406 C 60.796875 72.519531 61.433594 72.660156 61.488281 72.757812 L 61.75 72.859375 C 61.8125 72.902344 61.953125 72.992188 61.820312 72.941406 C 61.933594 73.03125 62.058594 73.113281 62.183594 73.183594 Z M 81.445312 41.507812 L 81.578125 41.589844 C 81.578125 41.589844 81.546875 41.570312 81.445312 41.507812 Z M 86.683594 44.679688 L 86.640625 44.679688 Z M 74.558594 38.902344 C 76.339844 39.847656 77.316406 40.183594 79.484375 41.175781 C 81.371094 42.097656 81.835938 42.414062 83.816406 43.320312 C 84.75 43.765625 85.753906 44.230469 86.671875 44.652344 C 87.117188 44.800781 87.878906 45.222656 88.414062 45.417969 L 88.597656 45.546875 C 88.792969 45.617188 88.984375 45.703125 89.167969 45.804688 C 89.441406 45.90625 89.734375 46.0625 89.875 46.113281 L 90.199219 46.261719 L 90.136719 46.261719 C 90.613281 46.453125 91.085938 46.679688 91.5 46.894531 L 91.5 46.835938 C 92.390625 47.308594 92.746094 47.378906 93.527344 47.820312 C 94.601562 48.195312 95.109375 48.664062 96.195312 49.0625 C 96.058594 49.011719 96.242188 49.109375 96.226562 49.113281 C 96.714844 49.335938 97.238281 49.558594 97.285156 49.5 C 97.636719 49.667969 97.558594 49.660156 97.589844 49.710938 C 97.804688 49.753906 98.007812 49.832031 98.195312 49.9375 L 98.0625 49.890625 L 98.863281 50.253906 L 98.738281 50.117188 C 99.144531 50.335938 98.804688 50.246094 99.210938 50.421875 L 99.234375 50.367188 C 99.808594 50.648438 100.125 50.898438 100.652344 51.207031 C 102.976562 52.339844 105.542969 53.398438 107.675781 54.527344 L 107.753906 54.617188 C 107.753906 54.695312 108.398438 54.8125 108.449219 54.902344 L 108.714844 54.996094 C 108.785156 55.042969 108.925781 55.125 108.796875 55.078125 C 108.929688 55.148438 109.070312 55.203125 109.214844 55.246094 L 109.445312 55.402344 C 110.355469 55.875 111.175781 56.175781 112.136719 56.652344 C 113.265625 57.28125 115.492188 58.257812 116.777344 58.816406 C 118.59375 59.570312 120.546875 60.796875 122.414062 61.558594 C 122.480469 61.601562 122.554688 61.628906 122.632812 61.644531 L 124.292969 62.441406 C 124.292969 62.441406 132.351562 66.3125 126.457031 62.886719 L 126.507812 62.886719 C 125.820312 62.507812 125.109375 62.183594 124.378906 61.90625 C 124.320312 61.777344 123.632812 61.539062 123.433594 61.410156 L 123.457031 61.410156 C 122.871094 61.210938 122.335938 60.816406 121.777344 60.617188 C 121.835938 60.613281 121.894531 60.628906 121.945312 60.660156 C 121.597656 60.554688 121.265625 60.414062 120.949219 60.238281 C 120.011719 59.792969 118.726562 59.164062 118.085938 58.953125 L 118.132812 58.953125 C 117.765625 58.839844 117.6875 58.75 117.296875 58.59375 C 117.296875 58.59375 117.25 58.5625 117.261719 58.5625 C 116.863281 58.433594 116.171875 58.054688 115.863281 57.929688 L 115.863281 57.890625 L 115.121094 57.550781 L 115.394531 57.6875 C 115.261719 57.726562 114.859375 57.367188 114.300781 57.167969 C 113.738281 56.96875 113.199219 56.859375 112.699219 56.570312 C 112.433594 56.492188 112.949219 56.609375 112.5625 56.464844 C 112.5625 56.410156 112.75 56.519531 112.667969 56.4375 C 112.296875 56.285156 112.09375 56.109375 111.632812 55.921875 L 111.632812 55.878906 C 111.019531 55.664062 110.546875 55.308594 110.128906 55.179688 C 109.511719 54.921875 109.773438 54.886719 109.113281 54.65625 L 108.890625 54.492188 C 108.625 54.351562 108.671875 54.457031 108.382812 54.289062 C 108.414062 54.289062 108.015625 54.085938 108.207031 54.144531 C 107.550781 53.773438 106.800781 53.554688 105.949219 53.050781 C 105.730469 53.019531 105.296875 52.769531 105.128906 52.742188 C 105.128906 52.707031 104.242188 52.300781 104.765625 52.5 C 104.808594 52.5 104.886719 52.554688 104.875 52.558594 L 104.953125 52.558594 C 104.484375 52.3125 104.007812 52.09375 103.515625 51.902344 C 103.65625 51.988281 103.859375 52.078125 103.714844 52.039062 L 103.238281 51.792969 L 103.351562 51.792969 L 102.667969 51.445312 L 102.742188 51.527344 C 102.484375 51.34375 102.210938 51.195312 101.914062 51.082031 C 101.730469 51.027344 102.214844 51.285156 101.847656 51.125 C 101.40625 50.886719 100.742188 50.519531 100.164062 50.238281 C 100.199219 50.304688 100.042969 50.238281 99.878906 50.15625 L 99.878906 50.113281 C 99.238281 49.867188 99.6875 49.929688 99.0625 49.667969 L 98.929688 49.667969 C 98.347656 49.476562 98.667969 49.453125 98.007812 49.257812 C 98.253906 49.367188 98.082031 49.386719 97.792969 49.230469 L 97.882812 49.230469 C 97.769531 49.191406 97.660156 49.144531 97.550781 49.089844 C 97.65625 49.121094 97.625 49.066406 97.378906 48.957031 L 97.5625 48.992188 L 97.074219 48.835938 C 96.738281 48.632812 96.15625 48.390625 96.03125 48.289062 C 95.722656 48.125 95.40625 47.988281 95.078125 47.871094 C 95.246094 47.917969 94.835938 47.703125 94.972656 47.722656 C 94.613281 47.609375 94.269531 47.460938 93.945312 47.277344 L 93.988281 47.277344 C 93.144531 46.832031 92.488281 46.628906 91.734375 46.214844 C 91.734375 46.265625 91.355469 46.054688 91.429688 46.152344 C 90.601562 45.824219 90.019531 45.351562 89.652344 45.375 C 89.449219 45.289062 89.253906 45.191406 89.070312 45.082031 L 89.15625 45.113281 C 88.46875 44.800781 88.269531 44.707031 87.761719 44.460938 C 87.492188 44.394531 87.230469 44.300781 86.980469 44.179688 C 87.144531 44.21875 86.953125 44.132812 86.785156 44.054688 C 86.894531 44.101562 86.933594 44.105469 86.722656 43.984375 L 86.585938 43.941406 C 86.296875 43.816406 86.339844 43.855469 86.46875 43.941406 C 86.46875 43.941406 86.46875 43.941406 86.503906 43.984375 C 86.226562 43.804688 85.6875 43.589844 85.671875 43.539062 C 84.816406 43.140625 84.179688 42.90625 83.449219 42.585938 C 83.382812 42.523438 83.558594 42.585938 83.769531 42.667969 L 83.261719 42.441406 C 83.285156 42.40625 83.5625 42.554688 83.707031 42.621094 C 83.132812 42.277344 82.441406 42.09375 81.765625 41.703125 L 81.605469 41.660156 L 81.566406 41.640625 C 81.46875 41.625 81.375 41.597656 81.285156 41.554688 C 81.207031 41.476562 81.328125 41.484375 80.984375 41.320312 C 80.605469 41.128906 80.21875 40.957031 79.824219 40.808594 C 80.015625 40.90625 79.941406 40.898438 79.855469 40.867188 C 79.679688 40.785156 79.597656 40.707031 79.453125 40.65625 L 79.453125 40.605469 C 79.503906 40.679688 78.976562 40.429688 78.90625 40.421875 C 78.824219 40.34375 79.191406 40.519531 79.246094 40.515625 L 78.195312 40.027344 C 77.808594 39.878906 78.246094 40.097656 78.046875 40.054688 C 77.714844 39.90625 77.378906 39.78125 77.011719 39.578125 L 77.117188 39.671875 C 76.636719 39.464844 76.175781 39.21875 75.734375 38.941406 C 70.984375 37.070312 74.558594 38.902344 74.558594 38.902344 Z M 74.558594 38.902344 " fill-opacity="1" fill-rule="nonzero"/></svg>