<svg xmlns="http://www.w3.org/2000/svg" xmlns:xlink="http://www.w3.org/1999/xlink" width="200" zoomAndPan="magnify" viewBox="0 0 150 149.999998" height="200" preserveAspectRatio="xMidYMid meet" version="1.0"><defs><clipPath id="b5e2ee416c"><path d="M 25.710938 25 L 108 25 L 108 125 L 25.710938 125 Z M 25.710938 25 " clip-rule="nonzero"/></clipPath><clipPath id="754d3915dd"><path d="M 81 47 L 123.960938 47 L 123.960938 90 L 81 90 Z M 81 47 " clip-rule="nonzero"/></clipPath></defs><path fill="#254f91" d="M 76.09375 97.414062 L 87.863281 92.757812 L 78.128906 83.027344 L 73.484375 94.796875 C 72.546875 97.175781 73.722656 98.351562 76.09375 97.414062 Z M 76.09375 97.414062 " fill-opacity="1" fill-rule="nonzero"/><g clip-path="url(#b5e2ee416c)"><path fill="#254f91" d="M 77.804688 101.734375 C 76.714844 102.15625 75.648438 102.378906 74.640625 102.378906 C 72.53125 102.378906 70.683594 101.433594 69.5625 99.789062 C 68.847656 98.730469 67.835938 96.449219 69.164062 93.089844 L 71.136719 88.089844 L 40.167969 88.089844 L 40.167969 83.453125 L 72.96875 83.453125 L 74.171875 80.421875 L 88.160156 66.433594 L 40.167969 66.433594 L 40.167969 61.796875 L 92.804688 61.796875 L 107.710938 46.886719 L 107.710938 30.6875 C 107.710938 27.601562 105.214844 25.09375 102.121094 25.09375 L 31.300781 25.09375 C 28.214844 25.09375 25.710938 27.601562 25.710938 30.6875 L 25.710938 119.203125 C 25.710938 122.292969 28.214844 124.796875 31.300781 124.796875 L 102.121094 124.796875 C 105.214844 124.796875 107.710938 122.292969 107.710938 119.203125 L 107.710938 79.480469 L 90.464844 96.726562 Z M 40.167969 40.128906 L 93.265625 40.128906 L 93.265625 44.769531 L 40.167969 44.769531 Z M 66.710938 109.761719 L 40.167969 109.761719 L 40.167969 105.121094 L 66.71875 105.121094 L 66.71875 109.761719 Z M 66.710938 109.761719 " fill-opacity="1" fill-rule="nonzero"/></g><g clip-path="url(#754d3915dd)"><path fill="#254f91" d="M 122.414062 51.644531 L 119.257812 48.476562 C 117.453125 46.671875 114.492188 46.671875 112.695312 48.476562 L 81.417969 79.753906 L 91.148438 89.484375 L 122.417969 58.207031 C 124.222656 56.402344 124.222656 53.449219 122.414062 51.644531 Z M 122.414062 51.644531 " fill-opacity="1" fill-rule="nonzero"/></g></svg>