<svg xmlns="http://www.w3.org/2000/svg" xmlns:xlink="http://www.w3.org/1999/xlink" width="200" zoomAndPan="magnify" viewBox="0 0 150 149.999998" height="200" preserveAspectRatio="xMidYMid meet" version="1.0"><defs><clipPath id="e06d707592"><path d="M 18.648438 18.648438 L 131.148438 18.648438 L 131.148438 131.148438 L 18.648438 131.148438 Z M 18.648438 18.648438 " clip-rule="nonzero"/></clipPath></defs><g clip-path="url(#e06d707592)"><path fill="#254f91" d="M 129.199219 59.636719 L 116.707031 72.175781 C 116.746094 73.101562 116.792969 74.039062 116.792969 75 C 116.792969 98.035156 98.035156 116.792969 75 116.792969 C 51.960938 116.792969 33.203125 98.035156 33.203125 75 C 33.203125 51.960938 51.960938 33.203125 75 33.203125 C 82.722656 33.203125 89.992188 35.304688 96.222656 39.027344 L 106.765625 28.484375 C 97.714844 22.289062 86.800781 18.648438 75 18.648438 C 43.953125 18.648438 18.648438 43.917969 18.648438 75 C 18.648438 106.042969 43.953125 131.347656 75 131.347656 C 106.078125 131.347656 131.347656 106.042969 131.347656 75 C 131.347656 69.660156 130.625 64.535156 129.199219 59.636719 Z M 129.199219 59.636719 " fill-opacity="1" fill-rule="nonzero"/></g><path fill="#254f91" d="M 61.902344 67.285156 C 58.921875 64.308594 54.082031 64.308594 51.09375 67.285156 C 48.117188 70.277344 48.117188 75.105469 51.09375 78.09375 L 67.535156 94.535156 C 69.03125 96.03125 70.988281 96.765625 72.933594 96.765625 C 74.890625 96.765625 76.847656 96.019531 78.34375 94.535156 L 126.554688 46.324219 C 129.542969 43.347656 129.542969 38.507812 126.554688 35.519531 C 123.578125 32.527344 118.738281 32.527344 115.746094 35.519531 L 72.933594 78.332031 Z M 61.902344 67.285156 " fill-opacity="1" fill-rule="nonzero"/></svg>