<svg xmlns="http://www.w3.org/2000/svg" xmlns:xlink="http://www.w3.org/1999/xlink" width="200" zoomAndPan="magnify" viewBox="0 0 150 149.999998" height="200" preserveAspectRatio="xMidYMid meet" version="1.0"><defs><clipPath id="3ce2209b9e"><path d="M 20.820312 20.6875 L 128.820312 20.6875 L 128.820312 129.4375 L 20.820312 129.4375 Z M 20.820312 20.6875 " clip-rule="nonzero"/></clipPath></defs><g clip-path="url(#3ce2209b9e)"><path fill="#254f91" d="M 34.613281 20.753906 L 38.445312 20.753906 C 39.511719 20.753906 40.378906 21.621094 40.378906 22.6875 L 40.378906 32.484375 C 40.378906 33.546875 39.511719 34.417969 38.445312 34.417969 L 34.613281 34.417969 C 33.546875 34.417969 32.679688 33.546875 32.679688 32.484375 L 32.679688 22.6875 C 32.679688 21.621094 33.546875 20.753906 34.613281 20.753906 Z M 103.179688 77.257812 C 88.824219 77.257812 77.1875 88.894531 77.1875 103.25 C 77.1875 117.601562 88.824219 129.238281 103.179688 129.238281 C 117.535156 129.238281 129.171875 117.601562 129.171875 103.25 C 129.171875 88.894531 117.535156 77.257812 103.179688 77.257812 Z M 87.039062 105.054688 C 86.039062 105.054688 85.230469 104.246094 85.230469 103.25 C 85.230469 102.25 86.039062 101.441406 87.039062 101.441406 L 88.789062 101.441406 C 89.785156 101.441406 90.597656 102.25 90.597656 103.25 C 90.597656 104.246094 89.785156 105.054688 88.789062 105.054688 Z M 104.988281 119.390625 C 104.988281 120.386719 104.179688 121.199219 103.179688 121.199219 C 102.179688 121.199219 101.371094 120.386719 101.371094 119.390625 L 101.371094 117.640625 C 101.371094 116.640625 102.179688 115.832031 103.179688 115.832031 C 104.179688 115.832031 104.988281 116.640625 104.988281 117.640625 Z M 119.320312 101.441406 C 120.320312 101.441406 121.128906 102.25 121.128906 103.25 C 121.128906 104.246094 120.320312 105.054688 119.320312 105.054688 L 117.570312 105.054688 C 116.574219 105.054688 115.761719 104.246094 115.761719 103.25 C 115.761719 102.25 116.574219 101.441406 117.570312 101.441406 Z M 90.488281 93.113281 C 89.78125 92.40625 89.78125 91.261719 90.488281 90.554688 C 91.195312 89.851562 92.339844 89.851562 93.042969 90.554688 L 94.28125 91.792969 C 94.988281 92.5 94.988281 93.644531 94.28125 94.351562 C 93.574219 95.054688 92.429688 95.054688 91.726562 94.351562 Z M 93.042969 115.941406 C 92.339844 116.648438 91.195312 116.648438 90.488281 115.941406 C 89.78125 115.234375 89.78125 114.089844 90.488281 113.382812 L 91.726562 112.148438 C 92.429688 111.441406 93.574219 111.441406 94.28125 112.148438 C 94.988281 112.851562 94.988281 113.996094 94.28125 114.703125 Z M 115.871094 113.382812 C 116.578125 114.089844 116.578125 115.234375 115.871094 115.941406 C 115.164062 116.644531 114.019531 116.644531 113.316406 115.941406 L 112.078125 114.703125 C 111.371094 113.996094 111.371094 112.851562 112.078125 112.144531 C 112.785156 111.441406 113.929688 111.441406 114.632812 112.144531 Z M 113.316406 90.554688 C 114.019531 89.851562 115.164062 89.851562 115.871094 90.554688 C 116.578125 91.261719 116.578125 92.40625 115.871094 93.113281 L 114.632812 94.351562 C 113.929688 95.054688 112.785156 95.054688 112.078125 94.351562 C 111.371094 93.644531 111.371094 92.5 112.078125 91.792969 Z M 101.371094 87.105469 C 101.371094 86.109375 102.179688 85.300781 103.179688 85.300781 C 104.179688 85.300781 104.988281 86.109375 104.988281 87.105469 L 104.988281 88.855469 C 104.988281 89.855469 104.179688 90.664062 103.179688 90.664062 C 102.179688 90.664062 101.371094 89.855469 101.371094 88.855469 Z M 101.371094 93.417969 C 101.371094 92.417969 102.179688 91.609375 103.179688 91.609375 C 104.179688 91.609375 104.988281 92.417969 104.988281 93.417969 L 104.988281 103.25 C 104.988281 104.246094 104.179688 105.054688 103.179688 105.054688 L 97.15625 105.054688 C 96.160156 105.054688 95.347656 104.246094 95.347656 103.25 C 95.347656 102.25 96.160156 101.441406 97.15625 101.441406 L 101.371094 101.441406 Z M 103.179688 82.976562 C 114.375 82.976562 123.453125 92.050781 123.453125 103.25 C 123.453125 114.445312 114.375 123.523438 103.179688 123.523438 C 91.984375 123.523438 82.90625 114.445312 82.90625 103.25 C 82.90625 92.050781 91.984375 82.976562 103.179688 82.976562 Z M 29.128906 92.902344 L 40.824219 92.902344 C 41.664062 92.902344 42.347656 93.589844 42.347656 94.429688 L 42.347656 106.121094 C 42.347656 106.960938 41.664062 107.648438 40.824219 107.648438 L 29.128906 107.648438 C 28.292969 107.648438 27.605469 106.960938 27.605469 106.121094 L 27.605469 94.429688 C 27.605469 93.589844 28.292969 92.902344 29.128906 92.902344 Z M 30.589844 101.25 L 33.152344 103.816406 C 33.917969 104.578125 35.171875 104.503906 35.84375 103.664062 L 39.492188 99.152344 C 40.121094 98.375 40 97.238281 39.226562 96.609375 C 38.449219 95.980469 37.308594 96.101562 36.683594 96.878906 L 34.289062 99.835938 L 33.144531 98.695312 C 32.4375 97.988281 31.292969 97.988281 30.589844 98.695312 C 29.882812 99.402344 29.882812 100.546875 30.589844 101.25 Z M 53.125 80.234375 C 52.417969 79.527344 52.417969 78.382812 53.125 77.675781 C 53.832031 76.972656 54.976562 76.972656 55.683594 77.675781 L 56.824219 78.820312 L 59.21875 75.859375 C 59.847656 75.082031 60.984375 74.964844 61.761719 75.589844 C 62.539062 76.21875 62.65625 77.359375 62.03125 78.132812 L 58.382812 82.644531 C 57.710938 83.488281 56.453125 83.5625 55.6875 82.796875 Z M 30.589844 59.214844 C 29.882812 58.507812 29.882812 57.363281 30.589844 56.660156 C 31.292969 55.953125 32.4375 55.953125 33.144531 56.660156 L 34.289062 57.800781 L 36.683594 54.839844 C 37.308594 54.066406 38.449219 53.945312 39.222656 54.574219 C 40 55.199219 40.121094 56.339844 39.492188 57.117188 L 35.84375 61.625 C 35.171875 62.46875 33.917969 62.542969 33.152344 61.777344 Z M 50.140625 106.121094 C 50.140625 102.222656 50.140625 98.328125 50.140625 94.429688 C 50.140625 93.589844 50.828125 92.902344 51.667969 92.902344 C 55.566406 92.902344 59.460938 92.902344 63.359375 92.902344 C 64.199219 92.902344 64.886719 93.589844 64.886719 94.429688 C 64.886719 98.328125 64.886719 102.222656 64.886719 106.121094 C 64.886719 106.960938 64.199219 107.648438 63.359375 107.648438 C 59.460938 107.648438 55.566406 107.648438 51.667969 107.648438 C 50.828125 107.648438 50.140625 106.960938 50.140625 106.121094 Z M 76.675781 116.457031 L 28.558594 116.457031 C 24.296875 116.457031 20.824219 112.984375 20.824219 108.722656 L 20.824219 44.085938 L 116.742188 44.085938 L 116.742188 76.921875 C 114.617188 75.824219 112.34375 74.980469 109.960938 74.421875 L 109.960938 73.410156 C 109.960938 72.570312 109.273438 71.886719 108.433594 71.886719 L 96.742188 71.886719 C 95.902344 71.886719 95.214844 72.570312 95.214844 73.410156 L 95.214844 74.722656 C 92.429688 75.5 89.8125 76.671875 87.421875 78.175781 C 87.421875 76.589844 87.421875 75 87.421875 73.410156 C 87.421875 72.570312 86.738281 71.886719 85.898438 71.886719 C 82 71.886719 78.101562 71.886719 74.203125 71.886719 C 73.363281 71.886719 72.679688 72.570312 72.679688 73.410156 C 72.679688 77.308594 72.679688 81.207031 72.679688 85.105469 C 72.679688 85.941406 73.363281 86.628906 74.203125 86.628906 C 75.695312 86.628906 77.183594 86.628906 78.671875 86.628906 C 77.355469 88.570312 76.261719 90.671875 75.429688 92.902344 C 75.019531 92.902344 74.613281 92.902344 74.203125 92.902344 C 73.363281 92.902344 72.679688 93.589844 72.679688 94.429688 C 72.679688 98.328125 72.679688 102.222656 72.679688 106.121094 C 72.679688 106.855469 73.199219 107.46875 73.890625 107.617188 C 74.355469 110.75 75.308594 113.722656 76.675781 116.457031 Z M 40.824219 86.628906 C 41.664062 86.628906 42.347656 85.941406 42.347656 85.105469 L 42.347656 73.410156 C 42.347656 72.570312 41.664062 71.886719 40.824219 71.886719 L 29.128906 71.886719 C 28.292969 71.886719 27.605469 72.570312 27.605469 73.410156 L 27.605469 85.105469 C 27.605469 85.941406 28.292969 86.628906 29.128906 86.628906 Z M 50.140625 85.105469 C 50.140625 85.941406 50.828125 86.628906 51.667969 86.628906 C 55.566406 86.628906 59.460938 86.628906 63.359375 86.628906 C 64.199219 86.628906 64.886719 85.941406 64.886719 85.105469 C 64.886719 81.207031 64.886719 77.308594 64.886719 73.410156 C 64.886719 72.570312 64.199219 71.886719 63.359375 71.886719 C 59.460938 71.886719 55.566406 71.886719 51.667969 71.886719 C 50.828125 71.886719 50.140625 72.570312 50.140625 73.410156 C 50.140625 77.308594 50.140625 81.207031 50.140625 85.105469 Z M 74.203125 65.613281 C 78.101562 65.613281 82 65.613281 85.898438 65.613281 C 86.738281 65.613281 87.421875 64.925781 87.421875 64.085938 C 87.421875 60.1875 87.421875 56.289062 87.421875 52.394531 C 87.421875 51.554688 86.738281 50.867188 85.898438 50.867188 C 82 50.867188 78.101562 50.867188 74.203125 50.867188 C 73.363281 50.867188 72.679688 51.554688 72.679688 52.394531 C 72.679688 56.289062 72.679688 60.1875 72.679688 64.085938 C 72.679688 64.925781 73.363281 65.613281 74.203125 65.613281 Z M 95.214844 64.085938 C 95.214844 64.925781 95.902344 65.613281 96.742188 65.613281 L 108.433594 65.613281 C 109.273438 65.613281 109.960938 64.925781 109.960938 64.085938 L 109.960938 52.394531 C 109.960938 51.554688 109.273438 50.867188 108.433594 50.867188 L 96.742188 50.867188 C 95.902344 50.867188 95.214844 51.554688 95.214844 52.394531 Z M 50.140625 64.085938 C 50.140625 64.925781 50.828125 65.613281 51.667969 65.613281 C 55.566406 65.613281 59.460938 65.613281 63.359375 65.613281 C 64.199219 65.613281 64.886719 64.925781 64.886719 64.085938 C 64.886719 60.1875 64.886719 56.289062 64.886719 52.394531 C 64.886719 51.554688 64.199219 50.867188 63.359375 50.867188 C 59.460938 50.867188 55.566406 50.867188 51.667969 50.867188 C 50.828125 50.867188 50.140625 51.554688 50.140625 52.394531 C 50.140625 56.289062 50.140625 60.1875 50.140625 64.085938 Z M 40.824219 65.613281 C 41.664062 65.613281 42.347656 64.925781 42.347656 64.085938 L 42.347656 52.394531 C 42.347656 51.554688 41.664062 50.867188 40.824219 50.867188 L 29.128906 50.867188 C 28.292969 50.867188 27.605469 51.554688 27.605469 52.394531 L 27.605469 64.085938 C 27.605469 64.925781 28.292969 65.613281 29.128906 65.613281 Z M 20.824219 40.46875 L 116.742188 40.46875 L 116.742188 34.941406 C 116.742188 30.679688 113.265625 27.203125 109.003906 27.203125 L 108.503906 27.203125 L 108.503906 32.484375 C 108.503906 35.542969 106.011719 38.03125 102.953125 38.03125 L 99.117188 38.03125 C 96.058594 38.03125 93.566406 35.542969 93.566406 32.484375 L 93.566406 27.203125 L 87 27.203125 L 87 32.484375 C 87 35.542969 84.511719 38.03125 81.449219 38.03125 L 77.617188 38.03125 C 74.554688 38.03125 72.066406 35.542969 72.066406 32.484375 L 72.066406 27.203125 L 65.5 27.203125 L 65.5 32.484375 C 65.5 35.542969 63.007812 38.03125 59.949219 38.03125 L 56.113281 38.03125 C 53.054688 38.03125 50.5625 35.542969 50.5625 32.484375 L 50.5625 27.203125 L 43.996094 27.203125 L 43.996094 32.484375 C 43.996094 35.542969 41.507812 38.03125 38.445312 38.03125 L 34.613281 38.03125 C 31.550781 38.03125 29.0625 35.542969 29.0625 32.484375 L 29.0625 27.203125 L 28.558594 27.203125 C 24.296875 27.203125 20.824219 30.679688 20.824219 34.941406 Z M 99.117188 20.753906 L 102.953125 20.753906 C 104.019531 20.753906 104.886719 21.621094 104.886719 22.6875 L 104.886719 32.484375 C 104.886719 33.546875 104.015625 34.417969 102.953125 34.417969 L 99.117188 34.417969 C 98.054688 34.417969 97.183594 33.546875 97.183594 32.484375 L 97.183594 22.6875 C 97.183594 21.621094 98.050781 20.753906 99.117188 20.753906 Z M 77.617188 20.753906 L 81.449219 20.753906 C 82.515625 20.753906 83.382812 21.621094 83.382812 22.6875 L 83.382812 32.484375 C 83.382812 33.546875 82.515625 34.417969 81.449219 34.417969 L 77.617188 34.417969 C 76.550781 34.417969 75.683594 33.546875 75.683594 32.484375 L 75.683594 22.6875 C 75.683594 21.621094 76.550781 20.753906 77.617188 20.753906 Z M 56.113281 20.753906 L 59.949219 20.753906 C 61.015625 20.753906 61.882812 21.621094 61.882812 22.6875 L 61.882812 32.484375 C 61.882812 33.546875 61.015625 34.417969 59.949219 34.417969 L 56.113281 34.417969 C 55.050781 34.417969 54.179688 33.546875 54.179688 32.484375 L 54.179688 22.6875 C 54.179688 21.621094 55.050781 20.753906 56.113281 20.753906 Z M 56.113281 20.753906 " fill-opacity="1" fill-rule="evenodd"/></g></svg>