<svg xmlns="http://www.w3.org/2000/svg" xmlns:xlink="http://www.w3.org/1999/xlink" width="200" zoomAndPan="magnify" viewBox="0 0 150 149.999998" height="200" preserveAspectRatio="xMidYMid meet" version="1.0"><path fill="#000000" d="M 62.78125 64.867188 C 62.953125 64.695312 63.15625 64.5625 63.382812 64.46875 C 63.609375 64.375 63.84375 64.328125 64.089844 64.328125 C 64.332031 64.328125 64.570312 64.375 64.796875 64.46875 C 65.019531 64.5625 65.222656 64.695312 65.394531 64.867188 L 67.8125 67.273438 C 68.011719 67.042969 68.195312 66.804688 68.363281 66.558594 C 68.535156 66.308594 68.6875 66.050781 68.824219 65.78125 C 68.964844 65.511719 69.085938 65.238281 69.191406 64.957031 C 69.296875 64.671875 69.382812 64.386719 69.453125 64.09375 C 69.523438 63.800781 69.578125 63.503906 69.609375 63.203125 C 69.644531 62.90625 69.660156 62.605469 69.660156 62.304688 C 69.65625 62.003906 69.636719 61.703125 69.597656 61.402344 C 69.5625 61.105469 69.503906 60.808594 69.429688 60.519531 C 69.355469 60.226562 69.265625 59.9375 69.15625 59.65625 C 69.046875 59.375 68.921875 59.101562 68.78125 58.835938 C 68.640625 58.570312 68.480469 58.316406 68.308594 58.066406 C 68.136719 57.820312 67.949219 57.585938 67.746094 57.359375 C 67.546875 57.136719 67.332031 56.921875 67.105469 56.722656 C 66.878906 56.523438 66.640625 56.339844 66.390625 56.171875 C 66.140625 56 65.882812 55.84375 65.613281 55.707031 C 65.34375 55.566406 65.070312 55.445312 64.785156 55.335938 C 64.503906 55.230469 64.214844 55.140625 63.921875 55.070312 C 63.628906 55 63.332031 54.945312 63.03125 54.910156 C 62.730469 54.871094 62.429688 54.855469 62.125 54.855469 C 61.824219 54.855469 61.523438 54.875 61.222656 54.910156 C 60.921875 54.945312 60.625 55 60.332031 55.074219 C 60.035156 55.144531 59.75 55.234375 59.464844 55.339844 C 59.183594 55.445312 58.90625 55.570312 58.640625 55.710938 C 58.371094 55.851562 58.113281 56.003906 57.863281 56.175781 C 57.613281 56.347656 57.375 56.53125 57.148438 56.730469 C 56.921875 56.929688 56.707031 57.140625 56.507812 57.367188 C 56.304688 57.59375 56.117188 57.828125 55.945312 58.074219 C 55.773438 58.324219 55.617188 58.578125 55.476562 58.847656 C 55.332031 59.113281 55.207031 59.386719 55.101562 59.667969 C 54.992188 59.949219 54.902344 60.234375 54.828125 60.527344 C 54.753906 60.820312 54.699219 61.113281 54.660156 61.414062 C 54.621094 61.710938 54.601562 62.011719 54.601562 62.3125 C 54.597656 62.613281 54.617188 62.914062 54.652344 63.214844 C 54.6875 63.511719 54.738281 63.808594 54.808594 64.101562 C 54.878906 64.394531 54.96875 64.683594 55.074219 64.964844 C 55.179688 65.246094 55.300781 65.523438 55.441406 65.789062 C 55.578125 66.058594 55.734375 66.316406 55.902344 66.566406 C 56.074219 66.8125 56.257812 67.050781 56.457031 67.277344 C 56.65625 67.507812 56.867188 67.71875 57.089844 67.921875 C 57.316406 68.125 57.550781 68.3125 57.800781 68.484375 C 58.046875 68.65625 58.304688 68.816406 58.570312 68.957031 C 58.835938 69.101562 59.113281 69.226562 59.394531 69.335938 C 59.675781 69.445312 59.960938 69.539062 60.253906 69.613281 C 60.546875 69.6875 60.84375 69.746094 61.144531 69.785156 C 61.445312 69.824219 61.746094 69.84375 62.046875 69.847656 C 62.351562 69.851562 62.652344 69.835938 62.953125 69.804688 C 63.253906 69.769531 63.550781 69.71875 63.847656 69.652344 C 64.140625 69.582031 64.429688 69.496094 64.714844 69.394531 L 62.78125 67.46875 C 62.609375 67.296875 62.476562 67.097656 62.382812 66.871094 C 62.289062 66.648438 62.242188 66.410156 62.242188 66.167969 C 62.242188 65.925781 62.289062 65.691406 62.382812 65.464844 C 62.476562 65.238281 62.609375 65.039062 62.78125 64.867188 Z M 62.78125 64.867188 " fill-opacity="1" fill-rule="nonzero"/><path fill="#000000" d="M 80.550781 44.296875 C 79.15625 42.902344 77.617188 41.679688 75.9375 40.636719 C 74.261719 39.59375 72.484375 38.75 70.613281 38.113281 C 68.742188 37.476562 66.820312 37.058594 64.851562 36.859375 C 62.882812 36.660156 60.917969 36.6875 58.957031 36.9375 C 58.429688 37.003906 57.910156 37.085938 57.390625 37.1875 C 56.871094 37.285156 56.355469 37.398438 55.84375 37.527344 C 55.332031 37.65625 54.824219 37.804688 54.320312 37.964844 C 53.816406 38.125 53.320312 38.300781 52.828125 38.492188 C 52.335938 38.683594 51.851562 38.890625 51.371094 39.109375 C 50.890625 39.332031 50.417969 39.566406 49.953125 39.816406 C 49.488281 40.066406 49.03125 40.328125 48.582031 40.605469 C 48.132812 40.886719 47.695312 41.175781 47.265625 41.480469 C 46.832031 41.785156 46.410156 42.101562 46 42.433594 C 45.589844 42.761719 45.1875 43.105469 44.796875 43.460938 C 44.40625 43.8125 44.027344 44.179688 43.660156 44.558594 C 43.292969 44.9375 42.9375 45.324219 42.59375 45.722656 C 42.25 46.125 41.917969 46.53125 41.601562 46.953125 C 41.28125 47.371094 40.976562 47.800781 40.683594 48.238281 C 40.394531 48.679688 40.113281 49.125 39.851562 49.578125 C 39.585938 50.035156 39.335938 50.5 39.097656 50.96875 C 38.863281 51.441406 38.640625 51.917969 38.433594 52.402344 C 38.226562 52.886719 38.035156 53.375 37.859375 53.871094 C 37.683594 54.367188 37.523438 54.867188 37.375 55.371094 C 37.230469 55.878906 37.101562 56.386719 36.984375 56.902344 C 36.871094 57.414062 36.773438 57.933594 36.691406 58.453125 C 36.609375 58.972656 36.542969 59.492188 36.492188 60.015625 C 36.441406 60.539062 36.40625 61.066406 36.390625 61.589844 C 36.371094 62.117188 36.367188 62.640625 36.382812 63.167969 C 36.398438 63.695312 36.429688 64.21875 36.472656 64.742188 C 36.519531 65.265625 36.582031 65.789062 36.664062 66.308594 C 36.742188 66.828125 36.835938 67.347656 36.945312 67.859375 C 37.058594 68.375 37.183594 68.886719 37.324219 69.390625 C 37.46875 69.898438 37.625 70.402344 37.796875 70.898438 C 37.972656 71.394531 38.160156 71.886719 38.363281 72.371094 C 38.566406 72.855469 38.785156 73.335938 39.015625 73.808594 C 39.25 74.28125 39.496094 74.746094 39.757812 75.203125 C 40.015625 75.625 40.101562 76.082031 40.015625 76.574219 L 38.644531 83.066406 C 38.578125 83.375 38.554688 83.6875 38.570312 84 C 38.585938 84.316406 38.640625 84.625 38.734375 84.925781 C 38.832031 85.226562 38.960938 85.511719 39.132812 85.777344 C 39.300781 86.046875 39.5 86.285156 39.730469 86.503906 C 39.960938 86.71875 40.21875 86.902344 40.496094 87.054688 C 40.773438 87.203125 41.066406 87.316406 41.375 87.390625 C 41.683594 87.46875 41.996094 87.503906 42.3125 87.5 C 42.628906 87.496094 42.941406 87.449219 43.246094 87.367188 L 49.726562 85.574219 C 50.207031 85.457031 50.667969 85.511719 51.109375 85.734375 C 54.632812 87.414062 58.347656 88.25 62.253906 88.242188 C 63.566406 88.242188 64.867188 88.148438 66.164062 87.957031 C 67.339844 87.777344 68.496094 87.519531 69.636719 87.179688 C 70.777344 86.84375 71.886719 86.429688 72.972656 85.9375 C 74.054688 85.445312 75.097656 84.882812 76.101562 84.25 C 77.105469 83.613281 78.0625 82.914062 78.96875 82.148438 C 79.878906 81.382812 80.726562 80.558594 81.523438 79.679688 C 82.316406 78.796875 83.042969 77.863281 83.707031 76.882812 C 84.371094 75.898438 84.964844 74.875 85.488281 73.8125 C 86.011719 72.746094 86.457031 71.652344 86.828125 70.527344 C 87.199219 69.402344 87.492188 68.257812 87.703125 67.089844 C 87.914062 65.925781 88.046875 64.75 88.09375 63.570312 C 88.144531 62.386719 88.113281 61.203125 88 60.023438 C 87.882812 58.847656 87.6875 57.679688 87.414062 56.527344 C 87.136719 55.375 86.785156 54.25 86.351562 53.144531 C 85.921875 52.042969 85.414062 50.972656 84.832031 49.9375 C 84.253906 48.90625 83.605469 47.914062 82.886719 46.972656 C 82.171875 46.027344 81.390625 45.132812 80.550781 44.296875 Z M 72.789062 72.226562 C 72.96875 72.398438 73.105469 72.597656 73.203125 72.824219 C 73.300781 73.050781 73.351562 73.285156 73.355469 73.53125 C 73.355469 73.78125 73.3125 74.015625 73.21875 74.246094 C 73.125 74.472656 72.988281 74.675781 72.8125 74.851562 C 72.636719 75.023438 72.4375 75.160156 72.207031 75.25 C 71.976562 75.34375 71.738281 75.390625 71.492188 75.390625 C 71.242188 75.386719 71.003906 75.335938 70.777344 75.238281 C 70.550781 75.140625 70.351562 75.003906 70.179688 74.828125 L 67.523438 72.191406 C 67.117188 72.414062 66.699219 72.609375 66.269531 72.78125 C 65.839844 72.953125 65.398438 73.097656 64.949219 73.210938 C 64.503906 73.328125 64.046875 73.417969 63.589844 73.476562 C 63.128906 73.539062 62.667969 73.570312 62.203125 73.574219 C 61.738281 73.578125 61.277344 73.550781 60.816406 73.5 C 60.355469 73.445312 59.902344 73.363281 59.453125 73.253906 C 59 73.144531 58.558594 73.003906 58.125 72.839844 C 57.691406 72.675781 57.273438 72.484375 56.863281 72.269531 C 56.453125 72.054688 56.058594 71.8125 55.679688 71.546875 C 55.300781 71.28125 54.9375 70.992188 54.59375 70.683594 C 54.25 70.375 53.929688 70.042969 53.625 69.695312 C 53.324219 69.34375 53.042969 68.976562 52.789062 68.59375 C 52.53125 68.207031 52.300781 67.808594 52.09375 67.394531 C 51.886719 66.984375 51.703125 66.558594 51.550781 66.125 C 51.398438 65.6875 51.269531 65.246094 51.171875 64.792969 C 51.074219 64.34375 51.003906 63.886719 50.960938 63.429688 C 50.917969 62.96875 50.90625 62.507812 50.921875 62.046875 C 50.9375 61.585938 50.980469 61.125 51.050781 60.671875 C 51.125 60.214844 51.226562 59.765625 51.355469 59.320312 C 51.484375 58.878906 51.636719 58.445312 51.820312 58.019531 C 52.003906 57.59375 52.210938 57.183594 52.445312 56.785156 C 52.679688 56.386719 52.9375 56.003906 53.21875 55.636719 C 53.5 55.273438 53.804688 54.921875 54.128906 54.59375 C 54.453125 54.265625 54.800781 53.957031 55.164062 53.671875 C 55.527344 53.382812 55.90625 53.121094 56.300781 52.882812 C 56.699219 52.640625 57.109375 52.425781 57.53125 52.238281 C 57.953125 52.050781 58.386719 51.886719 58.828125 51.75 C 59.273438 51.617188 59.722656 51.507812 60.179688 51.429688 C 60.636719 51.347656 61.097656 51.296875 61.558594 51.273438 C 62.023438 51.25 62.484375 51.253906 62.945312 51.289062 C 63.410156 51.324219 63.867188 51.386719 64.320312 51.476562 C 64.777344 51.566406 65.222656 51.6875 65.664062 51.832031 C 66.105469 51.976562 66.53125 52.148438 66.949219 52.347656 C 67.371094 52.546875 67.773438 52.773438 68.164062 53.019531 C 68.554688 53.269531 68.929688 53.542969 69.285156 53.835938 C 69.640625 54.132812 69.976562 54.449219 70.296875 54.785156 C 70.613281 55.121094 70.90625 55.476562 71.179688 55.847656 C 71.453125 56.222656 71.703125 56.609375 71.925781 57.015625 C 72.152344 57.417969 72.347656 57.835938 72.523438 58.261719 C 72.695312 58.691406 72.839844 59.128906 72.957031 59.574219 C 73.074219 60.023438 73.164062 60.472656 73.226562 60.929688 C 73.289062 61.386719 73.320312 61.847656 73.328125 62.308594 C 73.332031 62.769531 73.308594 63.230469 73.253906 63.691406 C 73.199219 64.148438 73.121094 64.601562 73.011719 65.050781 C 72.902344 65.5 72.765625 65.9375 72.601562 66.371094 C 72.433594 66.800781 72.246094 67.222656 72.027344 67.628906 C 71.8125 68.039062 71.570312 68.433594 71.304688 68.808594 C 71.039062 69.1875 70.75 69.546875 70.441406 69.890625 Z M 72.789062 72.226562 " fill-opacity="1" fill-rule="nonzero"/><path fill="#000000" d="M 86.367188 93.707031 L 93.480469 93.578125 L 89.957031 86.558594 Z M 86.367188 93.707031 " fill-opacity="1" fill-rule="nonzero"/><path fill="#000000" d="M 110.632812 103.164062 C 110.546875 102.671875 110.632812 102.210938 110.890625 101.78125 C 111.132812 101.359375 111.359375 100.925781 111.570312 100.488281 C 111.785156 100.050781 111.984375 99.605469 112.171875 99.15625 C 112.359375 98.703125 112.53125 98.25 112.6875 97.789062 C 112.847656 97.324219 112.992188 96.859375 113.121094 96.390625 C 113.25 95.921875 113.367188 95.445312 113.464844 94.96875 C 113.566406 94.492188 113.652344 94.015625 113.722656 93.53125 C 113.792969 93.050781 113.851562 92.566406 113.890625 92.078125 C 113.933594 91.59375 113.960938 91.109375 113.972656 90.621094 C 113.984375 90.132812 113.980469 89.648438 113.960938 89.160156 C 113.941406 88.671875 113.910156 88.1875 113.863281 87.703125 C 113.8125 87.214844 113.75 86.734375 113.671875 86.253906 C 113.59375 85.769531 113.5 85.292969 113.394531 84.816406 C 113.289062 84.34375 113.164062 83.871094 113.027344 83.402344 C 112.894531 82.933594 112.742188 82.472656 112.578125 82.011719 C 112.414062 81.554688 112.234375 81.101562 112.042969 80.652344 C 111.847656 80.203125 111.640625 79.761719 111.421875 79.328125 C 111.203125 78.890625 110.96875 78.460938 110.722656 78.042969 C 110.476562 77.621094 110.21875 77.207031 109.945312 76.800781 C 109.675781 76.394531 109.390625 76 109.097656 75.609375 C 108.800781 75.222656 108.492188 74.84375 108.171875 74.472656 C 107.855469 74.105469 107.523438 73.746094 107.183594 73.394531 C 106.839844 73.046875 106.488281 72.707031 106.128906 72.378906 C 105.765625 72.050781 105.394531 71.734375 105.011719 71.429688 C 104.628906 71.125 104.238281 70.832031 103.839844 70.550781 C 103.441406 70.269531 103.03125 70 102.617188 69.742188 C 102.199219 69.488281 101.777344 69.242188 101.347656 69.011719 C 100.914062 68.78125 100.476562 68.5625 100.03125 68.359375 C 99.589844 68.15625 99.136719 67.964844 98.683594 67.789062 C 98.226562 67.609375 97.765625 67.449219 97.296875 67.300781 C 96.832031 67.152344 96.363281 67.015625 95.886719 66.898438 C 95.414062 66.777344 94.933594 66.671875 94.453125 66.582031 C 93.972656 66.488281 93.492188 66.414062 93.003906 66.351562 C 92.523438 66.296875 92.042969 66.242188 91.5625 66.222656 L 91.5625 66.277344 C 91.363281 67.851562 91.035156 69.398438 90.582031 70.921875 C 90.128906 72.441406 89.554688 73.917969 88.859375 75.34375 C 88.167969 76.773438 87.363281 78.136719 86.445312 79.433594 C 85.53125 80.734375 84.515625 81.949219 83.402344 83.085938 C 82.289062 84.21875 81.089844 85.257812 79.804688 86.199219 C 78.523438 87.140625 77.171875 87.972656 75.753906 88.695312 C 74.335938 89.417969 72.867188 90.023438 71.351562 90.507812 C 69.835938 90.996094 68.289062 91.355469 66.710938 91.589844 C 66.472656 91.628906 66.230469 91.664062 65.992188 91.683594 C 66.027344 92.179688 66.082031 92.675781 66.140625 93.171875 C 66.3125 94.503906 66.601562 95.8125 66.996094 97.097656 C 67.390625 98.378906 67.894531 99.621094 68.5 100.820312 C 69.105469 102.023438 69.808594 103.164062 70.609375 104.246094 C 71.40625 105.328125 72.292969 106.335938 73.261719 107.269531 C 74.230469 108.203125 75.273438 109.046875 76.382812 109.808594 C 77.496094 110.566406 78.664062 111.230469 79.890625 111.792969 C 81.113281 112.355469 82.378906 112.8125 83.679688 113.164062 C 84.980469 113.515625 86.304688 113.757812 87.644531 113.886719 C 88.402344 113.960938 89.179688 114 89.9375 114 C 93.527344 114.003906 96.945312 113.242188 100.191406 111.71875 C 100.628906 111.5 101.085938 111.441406 101.558594 111.550781 L 107.230469 113.113281 C 107.851562 113.292969 108.472656 113.304688 109.101562 113.152344 C 109.726562 113.003906 110.273438 112.707031 110.742188 112.269531 C 111.214844 111.828125 111.550781 111.296875 111.742188 110.683594 C 111.9375 110.066406 111.96875 109.441406 111.832031 108.808594 Z M 100.019531 102.484375 C 99.800781 102.597656 99.570312 102.660156 99.324219 102.679688 C 99.078125 102.699219 98.839844 102.671875 98.605469 102.59375 C 98.371094 102.519531 98.164062 102.398438 97.976562 102.242188 C 97.789062 102.082031 97.640625 101.890625 97.53125 101.671875 L 95.316406 97.222656 L 84.503906 97.421875 L 82.378906 101.671875 C 82.269531 101.890625 82.121094 102.078125 81.9375 102.238281 C 81.75 102.398438 81.542969 102.515625 81.308594 102.59375 C 81.074219 102.667969 80.835938 102.699219 80.59375 102.679688 C 80.347656 102.664062 80.117188 102.597656 79.894531 102.488281 C 79.675781 102.378906 79.488281 102.234375 79.328125 102.046875 C 79.167969 101.863281 79.046875 101.65625 78.972656 101.421875 C 78.894531 101.191406 78.863281 100.953125 78.882812 100.710938 C 78.898438 100.464844 78.964844 100.234375 79.074219 100.015625 L 88.3125 81.621094 C 88.398438 81.480469 88.5 81.347656 88.617188 81.234375 C 88.738281 81.117188 88.871094 81.019531 89.015625 80.9375 C 89.160156 80.855469 89.3125 80.792969 89.472656 80.75 C 89.636719 80.707031 89.796875 80.6875 89.964844 80.6875 C 90.132812 80.6875 90.296875 80.707031 90.457031 80.75 C 90.617188 80.792969 90.769531 80.855469 90.914062 80.9375 C 91.0625 81.019531 91.191406 81.117188 91.3125 81.234375 C 91.429688 81.347656 91.535156 81.480469 91.617188 81.621094 L 98.085938 94.53125 C 98.109375 94.578125 98.132812 94.621094 98.15625 94.671875 L 100.859375 100.015625 C 100.96875 100.234375 101.03125 100.46875 101.046875 100.710938 C 101.0625 100.957031 101.03125 101.191406 100.953125 101.425781 C 100.875 101.65625 100.753906 101.863281 100.59375 102.046875 C 100.433594 102.230469 100.242188 102.378906 100.019531 102.484375 Z M 100.019531 102.484375 " fill-opacity="1" fill-rule="nonzero"/></svg>