<svg xmlns="http://www.w3.org/2000/svg" xmlns:xlink="http://www.w3.org/1999/xlink" width="200" zoomAndPan="magnify" viewBox="0 0 150 149.999998" height="200" preserveAspectRatio="xMidYMid meet" version="1.0"><defs><clipPath id="044f2ada57"><path d="M 0 0 L 7 0 L 7 2 L 0 2 Z M 0 0 " clip-rule="nonzero"/></clipPath><clipPath id="9b2667e148"><path d="M -40.410156 -18.804688 L -2.898438 -43.777344 L 19.007812 -10.875 L -18.503906 14.101562 Z M -40.410156 -18.804688 " clip-rule="nonzero"/></clipPath><clipPath id="816435ed66"><path d="M -35.355469 -14.429688 C -35.0625 -7.40625 -29.679688 -3.960938 -25.269531 -3.164062 L 0.492188 1.453125 L 5.878906 -23.824219 C 6.527344 -28.269531 5.523438 -31.855469 2.804688 -34.785156 C -0.957031 -38.839844 -7.046875 -39.871094 -12.007812 -37.296875 C -15.046875 -35.714844 -17.253906 -33.085938 -18.207031 -29.886719 C -18.464844 -29.023438 -18.625 -28.148438 -18.683594 -27.269531 C -19.65625 -27.574219 -20.683594 -27.765625 -21.746094 -27.832031 C -25.449219 -28.0625 -29.074219 -26.722656 -31.699219 -24.144531 C -34.179688 -21.699219 -35.511719 -18.160156 -35.355469 -14.429688 Z M -35.355469 -14.429688 " clip-rule="nonzero"/></clipPath><clipPath id="58efa6e1a6"><path d="M 27 65 L 121 65 L 121 129.882812 L 27 129.882812 Z M 27 65 " clip-rule="nonzero"/></clipPath><clipPath id="f8f5ff257a"><path d="M 23 20.382812 L 127.367188 20.382812 L 127.367188 90 L 23 90 Z M 23 20.382812 " clip-rule="nonzero"/></clipPath></defs><g clip-path="url(#044f2ada57)"><g clip-path="url(#9b2667e148)"><g clip-path="url(#816435ed66)"><path fill="#ffffff" d="M -40.324219 -18.675781 L -2.8125 -43.648438 L 19.007812 -10.875 L -18.503906 14.101562 Z M -40.324219 -18.675781 " fill-opacity="1" fill-rule="nonzero"/></g></g></g><g clip-path="url(#58efa6e1a6)"><path fill="#000000" d="M 27.1875 129.902344 L 27.1875 99.0625 L 52.851562 99.0625 L 52.851562 129.902344 Z M 86.328125 129.902344 L 86.328125 85.792969 L 61.035156 85.792969 L 61.035156 129.902344 Z M 120.546875 129.902344 L 120.546875 65.984375 L 94.878906 65.984375 L 94.878906 129.902344 Z M 120.546875 129.902344 " fill-opacity="1" fill-rule="nonzero"/></g><g clip-path="url(#f8f5ff257a)"><path fill="#000000" d="M 26.324219 89.691406 C 24.945312 89.175781 22.46875 87.792969 23.234375 84.550781 C 23.777344 82.269531 25.667969 80.558594 27.945312 80.042969 C 37.378906 77.875 71.242188 67.828125 113.105469 28.605469 L 107.710938 23 L 127.242188 20.390625 L 124.644531 38.707031 L 119.066406 34.21875 C 119.066406 34.21875 83.289062 73.953125 27.910156 89.742188 C 27.375 89.898438 26.847656 89.882812 26.324219 89.691406 Z M 26.324219 89.691406 " fill-opacity="1" fill-rule="nonzero"/></g></svg>