<svg xmlns="http://www.w3.org/2000/svg" xmlns:xlink="http://www.w3.org/1999/xlink" width="200" zoomAndPan="magnify" viewBox="0 0 150 149.999998" height="200" preserveAspectRatio="xMidYMid meet" version="1.0"><defs><clipPath id="6e20960d7f"><path d="M 13.71875 12.441406 L 135.96875 12.441406 L 135.96875 134.691406 L 13.71875 134.691406 Z M 13.71875 12.441406 " clip-rule="nonzero"/></clipPath></defs><g clip-path="url(#6e20960d7f)"><path fill="#254f91" d="M 134.675781 25.644531 L 125.761719 25.644531 C 125.757812 24.921875 125.484375 24.203125 124.933594 23.652344 C 124.398438 23.121094 123.707031 22.851562 123.011719 22.832031 L 123.011719 13.980469 C 123.011719 13.410156 122.667969 12.890625 122.136719 12.671875 C 121.613281 12.453125 121 12.570312 120.597656 12.972656 L 110.976562 22.492188 C 110.707031 22.757812 110.554688 23.125 110.558594 23.503906 L 110.578125 33.996094 L 106.1875 38.390625 C 96.375 29.570312 83.40625 24.191406 69.203125 24.191406 C 38.65625 24.191406 13.800781 49.046875 13.800781 79.59375 C 13.800781 110.144531 38.65625 134.996094 69.203125 134.996094 C 99.75 134.996094 124.605469 110.144531 124.605469 79.59375 C 124.605469 65.285156 119.152344 52.226562 110.214844 42.382812 L 114.601562 37.996094 L 125.085938 37.972656 C 125.460938 37.972656 125.816406 37.824219 126.082031 37.5625 L 135.671875 28.070312 C 136.082031 27.667969 136.207031 27.054688 135.988281 26.523438 C 135.769531 25.992188 135.25 25.644531 134.675781 25.644531 Z M 114.679688 79.59375 C 114.679688 104.671875 94.277344 125.070312 69.203125 125.070312 C 44.128906 125.070312 23.726562 104.671875 23.726562 79.59375 C 23.726562 54.519531 44.128906 34.117188 69.203125 34.117188 C 80.671875 34.117188 91.152344 38.394531 99.160156 45.421875 L 90.621094 53.960938 C 84.816406 49.101562 77.347656 46.167969 69.203125 46.167969 C 50.773438 46.167969 35.777344 61.164062 35.777344 79.59375 C 35.777344 98.023438 50.773438 113.019531 69.203125 113.019531 C 87.632812 113.019531 102.628906 98.023438 102.628906 79.59375 C 102.628906 71.34375 99.617188 63.789062 94.648438 57.953125 L 103.183594 49.414062 C 110.328125 57.453125 114.679688 68.023438 114.679688 79.59375 Z M 69.203125 92.460938 C 76.296875 92.460938 82.070312 86.6875 82.070312 79.59375 C 82.070312 77.019531 81.300781 74.625 79.992188 72.609375 L 88.605469 63.996094 C 92.046875 68.269531 94.121094 73.691406 94.121094 79.59375 C 94.121094 93.335938 82.945312 104.511719 69.203125 104.511719 C 55.460938 104.511719 44.285156 93.335938 44.285156 79.59375 C 44.285156 65.855469 55.460938 54.675781 69.203125 54.675781 C 75 54.675781 80.328125 56.683594 84.566406 60.015625 L 75.933594 68.652344 C 73.972656 67.441406 71.671875 66.726562 69.203125 66.726562 C 62.109375 66.726562 56.335938 72.5 56.335938 79.59375 C 56.335938 86.6875 62.109375 92.460938 69.203125 92.460938 Z M 69.203125 92.460938 " fill-opacity="1" fill-rule="nonzero"/></g></svg>