<svg xmlns="http://www.w3.org/2000/svg" xmlns:xlink="http://www.w3.org/1999/xlink" width="500" zoomAndPan="magnify" viewBox="0 0 375 374.999991" height="500" preserveAspectRatio="xMidYMid meet" version="1.0"><defs><clipPath id="525d6c0166"><path d="M 0 23 L 375 23 L 375 341 L 0 341 Z M 0 23 " clip-rule="nonzero"/></clipPath><clipPath id="b64af887ef"><path d="M 14.867188 75.828125 C -15.539062 125.921875 5.882812 174.679688 32.800781 200.554688 L 170.171875 332.351562 C 181.335938 343.0625 198.984375 342.984375 210.050781 332.175781 L 344.273438 201.09375 C 369.308594 173.257812 378.90625 143.730469 373.574219 110.851562 C 366.214844 65.367188 328.734375 30.082031 282.433594 25.042969 C 254.035156 21.984375 226.601562 30.019531 205.195312 47.8125 C 199.429688 52.597656 194.28125 57.949219 189.792969 63.765625 C 184.464844 57.144531 178.21875 51.085938 171.15625 45.714844 C 146.535156 27.003906 115.199219 19.578125 85.09375 25.355469 C 56.582031 30.863281 30.992188 49.253906 14.867188 75.828125 Z M 14.867188 75.828125 " clip-rule="nonzero"/></clipPath></defs><g clip-path="url(#525d6c0166)"><g clip-path="url(#b64af887ef)"><path fill="#254f91" d="M 0 23.4375 L 375.550781 23.4375 L 375.550781 351.5625 L 0 351.5625 Z M 0 23.4375 " fill-opacity="1" fill-rule="nonzero"/></g></g></svg>