<svg xmlns="http://www.w3.org/2000/svg" xmlns:xlink="http://www.w3.org/1999/xlink" width="200" zoomAndPan="magnify" viewBox="0 0 150 149.999998" height="200" preserveAspectRatio="xMidYMid meet" version="1.0"><path fill="#000000" d="M 43.9375 0.523438 C 35.957031 0.902344 30.507812 2.175781 25.746094 4.046875 C 20.8125 5.96875 16.636719 8.546875 12.476562 12.71875 C 8.320312 16.894531 5.757812 21.074219 3.851562 26.011719 C 2.003906 30.789062 0.753906 36.242188 0.402344 44.226562 C 0.046875 52.210938 -0.03125 54.777344 0.0078125 75.144531 C 0.046875 95.511719 0.136719 98.0625 0.523438 106.066406 C 0.90625 114.042969 2.175781 119.492188 4.046875 124.257812 C 5.972656 129.1875 8.546875 133.363281 12.722656 137.523438 C 16.894531 141.683594 21.074219 144.238281 26.023438 146.148438 C 30.796875 147.992188 36.25 149.25 44.234375 149.597656 C 52.214844 149.949219 54.785156 150.03125 75.148438 149.992188 C 95.507812 149.953125 98.070312 149.863281 106.070312 149.484375 C 114.070312 149.101562 119.488281 147.824219 124.257812 145.960938 C 129.1875 144.03125 133.367188 141.460938 137.523438 137.285156 C 141.679688 133.109375 144.238281 128.925781 146.148438 123.984375 C 147.996094 119.214844 149.25 113.757812 149.597656 105.78125 C 149.945312 97.777344 150.027344 95.21875 149.988281 74.855469 C 149.949219 54.492188 149.859375 51.9375 149.480469 43.941406 C 149.101562 35.941406 147.828125 30.511719 145.960938 25.742188 C 144.03125 20.8125 141.460938 16.636719 137.285156 12.476562 C 133.113281 8.3125 128.925781 5.753906 123.984375 3.851562 C 119.210938 2.007812 113.761719 0.75 105.777344 0.402344 C 97.792969 0.0585938 95.222656 -0.03125 74.855469 0.0078125 C 54.488281 0.046875 51.9375 0.136719 43.9375 0.523438 M 44.8125 136.105469 C 37.5 135.789062 33.53125 134.574219 30.886719 133.558594 C 27.382812 132.207031 24.886719 130.574219 22.246094 127.964844 C 19.609375 125.351562 17.992188 122.847656 16.621094 119.351562 C 15.59375 116.703125 14.359375 112.738281 14.015625 105.425781 C 13.644531 97.523438 13.566406 95.148438 13.523438 75.125 C 13.480469 55.101562 13.554688 52.734375 13.902344 44.824219 C 14.214844 37.519531 15.4375 33.542969 16.453125 30.898438 C 17.800781 27.390625 19.429688 24.898438 22.046875 22.265625 C 24.664062 19.628906 27.160156 18.007812 30.660156 16.636719 C 33.304688 15.605469 37.269531 14.378906 44.578125 14.03125 C 52.488281 13.65625 54.859375 13.582031 74.878906 13.539062 C 94.898438 13.492188 97.273438 13.570312 105.1875 13.917969 C 112.492188 14.234375 116.46875 15.445312 119.113281 16.46875 C 122.617188 17.816406 125.113281 19.4375 127.746094 22.058594 C 130.382812 24.683594 132.007812 27.171875 133.375 30.679688 C 134.410156 33.3125 135.636719 37.277344 135.980469 44.59375 C 136.359375 52.5 136.441406 54.871094 136.480469 74.890625 C 136.515625 94.910156 136.445312 97.289062 136.097656 105.191406 C 135.777344 112.503906 134.566406 116.476562 133.546875 119.125 C 132.199219 122.628906 130.570312 125.125 127.953125 127.757812 C 125.332031 130.394531 122.839844 132.015625 119.335938 133.382812 C 116.695312 134.414062 112.726562 135.644531 105.421875 135.992188 C 97.511719 136.363281 95.144531 136.441406 75.117188 136.488281 C 55.085938 136.53125 52.726562 136.449219 44.816406 136.105469 M 105.957031 34.914062 C 105.957031 35.507812 106.015625 36.089844 106.132812 36.671875 C 106.246094 37.25 106.417969 37.8125 106.644531 38.359375 C 106.875 38.90625 107.152344 39.421875 107.480469 39.914062 C 107.808594 40.402344 108.183594 40.859375 108.601562 41.277344 C 109.019531 41.691406 109.476562 42.066406 109.96875 42.390625 C 110.460938 42.71875 110.980469 42.996094 111.527344 43.222656 C 112.074219 43.445312 112.636719 43.617188 113.214844 43.730469 C 113.796875 43.84375 114.378906 43.902344 114.972656 43.902344 C 115.5625 43.898438 116.148438 43.839844 116.726562 43.722656 C 117.304688 43.609375 117.867188 43.4375 118.414062 43.210938 C 118.960938 42.980469 119.476562 42.703125 119.96875 42.375 C 120.460938 42.046875 120.914062 41.671875 121.332031 41.253906 C 121.75 40.835938 122.121094 40.378906 122.449219 39.886719 C 122.773438 39.394531 123.050781 38.875 123.277344 38.328125 C 123.503906 37.78125 123.671875 37.21875 123.785156 36.640625 C 123.898438 36.058594 123.957031 35.472656 123.957031 34.882812 C 123.953125 34.292969 123.894531 33.707031 123.777344 33.128906 C 123.664062 32.546875 123.492188 31.984375 123.265625 31.441406 C 123.035156 30.894531 122.757812 30.375 122.429688 29.886719 C 122.101562 29.394531 121.726562 28.941406 121.308594 28.523438 C 120.886719 28.105469 120.433594 27.734375 119.941406 27.40625 C 119.449219 27.082031 118.929688 26.804688 118.382812 26.578125 C 117.835938 26.355469 117.273438 26.183594 116.695312 26.070312 C 116.113281 25.957031 115.527344 25.898438 114.9375 25.902344 C 114.347656 25.902344 113.761719 25.960938 113.183594 26.078125 C 112.601562 26.191406 112.039062 26.363281 111.496094 26.59375 C 110.949219 26.820312 110.433594 27.097656 109.941406 27.425781 C 109.449219 27.753906 108.996094 28.128906 108.578125 28.546875 C 108.164062 28.964844 107.789062 29.421875 107.464844 29.914062 C 107.136719 30.40625 106.859375 30.925781 106.632812 31.472656 C 106.410156 32.015625 106.238281 32.582031 106.125 33.160156 C 106.011719 33.738281 105.953125 34.324219 105.957031 34.914062 M 36.492188 75.074219 C 36.53125 96.34375 53.804688 113.546875 75.070312 113.507812 C 96.335938 113.46875 113.554688 96.195312 113.511719 74.925781 C 113.472656 53.65625 96.195312 36.445312 74.925781 36.488281 C 53.65625 36.53125 36.449219 53.808594 36.492188 75.074219 M 50 75.046875 C 49.996094 74.230469 50.035156 73.414062 50.113281 72.597656 C 50.195312 71.78125 50.3125 70.972656 50.46875 70.167969 C 50.628906 69.367188 50.824219 68.574219 51.0625 67.789062 C 51.296875 67.003906 51.570312 66.234375 51.882812 65.476562 C 52.195312 64.71875 52.542969 63.980469 52.929688 63.257812 C 53.3125 62.535156 53.730469 61.832031 54.183594 61.148438 C 54.640625 60.46875 55.125 59.8125 55.644531 59.175781 C 56.160156 58.542969 56.710938 57.9375 57.285156 57.355469 C 57.863281 56.777344 58.46875 56.226562 59.101562 55.703125 C 59.734375 55.183594 60.390625 54.695312 61.070312 54.238281 C 61.75 53.78125 62.449219 53.359375 63.171875 52.972656 C 63.890625 52.585938 64.632812 52.234375 65.386719 51.921875 C 66.144531 51.605469 66.914062 51.328125 67.695312 51.089844 C 68.476562 50.851562 69.269531 50.648438 70.074219 50.488281 C 70.875 50.328125 71.683594 50.207031 72.5 50.125 C 73.316406 50.042969 74.132812 50 74.949219 50 C 75.769531 49.996094 76.585938 50.035156 77.402344 50.113281 C 78.214844 50.191406 79.023438 50.3125 79.828125 50.46875 C 80.632812 50.628906 81.425781 50.824219 82.210938 51.058594 C 82.992188 51.296875 83.765625 51.570312 84.519531 51.882812 C 85.277344 52.195312 86.019531 52.542969 86.742188 52.925781 C 87.464844 53.3125 88.167969 53.730469 88.847656 54.183594 C 89.53125 54.636719 90.1875 55.125 90.820312 55.640625 C 91.457031 56.160156 92.0625 56.707031 92.644531 57.285156 C 93.222656 57.863281 93.773438 58.46875 94.292969 59.101562 C 94.816406 59.730469 95.304688 60.386719 95.757812 61.066406 C 96.214844 61.746094 96.636719 62.449219 97.023438 63.167969 C 97.414062 63.890625 97.761719 64.628906 98.078125 65.386719 C 98.394531 66.140625 98.671875 66.910156 98.910156 67.695312 C 99.148438 68.476562 99.347656 69.269531 99.511719 70.074219 C 99.671875 70.875 99.792969 71.683594 99.875 72.5 C 99.957031 73.3125 100 74.128906 100 74.949219 C 100.003906 75.769531 99.964844 76.585938 99.886719 77.398438 C 99.804688 78.214844 99.6875 79.023438 99.53125 79.828125 C 99.371094 80.628906 99.175781 81.425781 98.9375 82.207031 C 98.703125 82.992188 98.429688 83.761719 98.117188 84.519531 C 97.804688 85.277344 97.457031 86.015625 97.070312 86.738281 C 96.6875 87.460938 96.269531 88.164062 95.816406 88.847656 C 95.359375 89.527344 94.875 90.1875 94.355469 90.820312 C 93.839844 91.453125 93.289062 92.0625 92.714844 92.640625 C 92.136719 93.222656 91.53125 93.773438 90.898438 94.292969 C 90.265625 94.8125 89.609375 95.300781 88.929688 95.757812 C 88.25 96.214844 87.550781 96.636719 86.828125 97.023438 C 86.109375 97.410156 85.367188 97.761719 84.613281 98.078125 C 83.855469 98.390625 83.085938 98.667969 82.304688 98.90625 C 81.523438 99.148438 80.730469 99.347656 79.925781 99.507812 C 79.125 99.671875 78.3125 99.792969 77.5 99.875 C 76.683594 99.957031 75.867188 99.996094 75.050781 100 C 74.230469 100 73.414062 99.960938 72.597656 99.882812 C 71.785156 99.804688 70.972656 99.6875 70.171875 99.527344 C 69.367188 99.371094 68.574219 99.171875 67.789062 98.9375 C 67.003906 98.703125 66.234375 98.425781 65.476562 98.117188 C 64.722656 97.804688 63.980469 97.457031 63.257812 97.070312 C 62.535156 96.6875 61.832031 96.269531 61.152344 95.8125 C 60.46875 95.359375 59.8125 94.875 59.175781 94.355469 C 58.542969 93.839844 57.9375 93.289062 57.355469 92.710938 C 56.777344 92.132812 56.226562 91.53125 55.703125 90.898438 C 55.183594 90.265625 54.695312 89.609375 54.238281 88.929688 C 53.78125 88.25 53.363281 87.550781 52.972656 86.828125 C 52.585938 86.105469 52.234375 85.367188 51.921875 84.613281 C 51.605469 83.855469 51.328125 83.085938 51.089844 82.304688 C 50.851562 81.519531 50.648438 80.726562 50.488281 79.925781 C 50.328125 79.121094 50.207031 78.3125 50.125 77.5 C 50.042969 76.683594 50 75.867188 50 75.046875 " fill-opacity="1" fill-rule="nonzero"/></svg>