<svg xmlns="http://www.w3.org/2000/svg" xmlns:xlink="http://www.w3.org/1999/xlink" width="200" zoomAndPan="magnify" viewBox="0 0 150 149.999998" height="200" preserveAspectRatio="xMidYMid meet" version="1.0"><defs><clipPath id="077c131ca9"><path d="M 76 4.5 L 104 4.5 L 104 14 L 76 14 Z M 76 4.5 " clip-rule="nonzero"/></clipPath><clipPath id="784a33b7bc"><path d="M 85 4.5 L 95 4.5 L 95 28 L 85 28 Z M 85 4.5 " clip-rule="nonzero"/></clipPath><clipPath id="c8e687f950"><path d="M 0 68 L 60 68 L 60 145.5 L 0 145.5 Z M 0 68 " clip-rule="nonzero"/></clipPath></defs><g clip-path="url(#077c131ca9)"><path fill="#254f91" d="M 99.160156 13.761719 L 80.8125 13.761719 C 80.511719 13.761719 80.214844 13.730469 79.917969 13.671875 C 79.621094 13.613281 79.335938 13.527344 79.058594 13.414062 C 78.777344 13.296875 78.515625 13.15625 78.265625 12.988281 C 78.015625 12.820312 77.78125 12.632812 77.570312 12.417969 C 77.355469 12.203125 77.167969 11.972656 77 11.722656 C 76.832031 11.472656 76.691406 11.207031 76.574219 10.929688 C 76.460938 10.652344 76.371094 10.363281 76.3125 10.070312 C 76.253906 9.773438 76.226562 9.476562 76.226562 9.175781 C 76.226562 8.875 76.253906 8.574219 76.3125 8.28125 C 76.371094 7.984375 76.460938 7.695312 76.574219 7.417969 C 76.691406 7.140625 76.832031 6.875 77 6.625 C 77.167969 6.375 77.355469 6.144531 77.570312 5.929688 C 77.78125 5.71875 78.015625 5.527344 78.265625 5.359375 C 78.515625 5.191406 78.777344 5.050781 79.058594 4.9375 C 79.335938 4.820312 79.621094 4.734375 79.917969 4.675781 C 80.214844 4.617188 80.511719 4.585938 80.8125 4.585938 L 99.160156 4.585938 C 99.460938 4.585938 99.761719 4.617188 100.054688 4.675781 C 100.351562 4.734375 100.636719 4.820312 100.917969 4.9375 C 101.195312 5.050781 101.460938 5.191406 101.710938 5.359375 C 101.960938 5.527344 102.191406 5.71875 102.40625 5.929688 C 102.617188 6.144531 102.808594 6.375 102.976562 6.625 C 103.144531 6.875 103.285156 7.140625 103.398438 7.417969 C 103.515625 7.695312 103.601562 7.984375 103.660156 8.28125 C 103.71875 8.574219 103.75 8.875 103.75 9.175781 C 103.75 9.476562 103.71875 9.773438 103.660156 10.070312 C 103.601562 10.363281 103.515625 10.652344 103.398438 10.929688 C 103.285156 11.207031 103.144531 11.472656 102.976562 11.722656 C 102.808594 11.972656 102.617188 12.203125 102.40625 12.417969 C 102.191406 12.632812 101.960938 12.820312 101.710938 12.988281 C 101.460938 13.15625 101.195312 13.296875 100.917969 13.414062 C 100.636719 13.527344 100.351562 13.613281 100.054688 13.671875 C 99.761719 13.730469 99.460938 13.761719 99.160156 13.761719 Z M 99.160156 13.761719 " fill-opacity="1" fill-rule="nonzero"/></g><g clip-path="url(#784a33b7bc)"><path fill="#254f91" d="M 89.988281 27.523438 C 89.6875 27.523438 89.386719 27.492188 89.09375 27.433594 C 88.796875 27.375 88.511719 27.289062 88.230469 27.171875 C 87.953125 27.058594 87.6875 26.917969 87.4375 26.75 C 87.1875 26.582031 86.957031 26.390625 86.742188 26.179688 C 86.53125 25.964844 86.339844 25.734375 86.171875 25.484375 C 86.003906 25.234375 85.863281 24.96875 85.75 24.691406 C 85.632812 24.414062 85.546875 24.125 85.488281 23.832031 C 85.429688 23.535156 85.398438 23.238281 85.398438 22.9375 L 85.398438 9.175781 C 85.398438 8.875 85.429688 8.574219 85.488281 8.28125 C 85.546875 7.984375 85.632812 7.695312 85.75 7.417969 C 85.863281 7.140625 86.003906 6.875 86.171875 6.625 C 86.339844 6.375 86.53125 6.144531 86.742188 5.929688 C 86.957031 5.71875 87.1875 5.527344 87.4375 5.359375 C 87.6875 5.191406 87.953125 5.050781 88.230469 4.9375 C 88.511719 4.820312 88.796875 4.734375 89.09375 4.675781 C 89.386719 4.617188 89.6875 4.585938 89.988281 4.585938 C 90.289062 4.585938 90.585938 4.617188 90.882812 4.675781 C 91.175781 4.734375 91.464844 4.820312 91.742188 4.9375 C 92.019531 5.050781 92.285156 5.191406 92.535156 5.359375 C 92.785156 5.527344 93.019531 5.71875 93.230469 5.929688 C 93.445312 6.144531 93.632812 6.375 93.800781 6.625 C 93.96875 6.875 94.109375 7.140625 94.226562 7.417969 C 94.339844 7.695312 94.425781 7.984375 94.484375 8.28125 C 94.542969 8.574219 94.574219 8.875 94.574219 9.175781 L 94.574219 22.9375 C 94.574219 23.238281 94.542969 23.535156 94.484375 23.832031 C 94.425781 24.125 94.339844 24.414062 94.226562 24.691406 C 94.109375 24.96875 93.96875 25.234375 93.800781 25.484375 C 93.632812 25.734375 93.445312 25.964844 93.230469 26.179688 C 93.019531 26.390625 92.785156 26.582031 92.535156 26.75 C 92.285156 26.917969 92.019531 27.058594 91.742188 27.171875 C 91.464844 27.289062 91.175781 27.375 90.882812 27.433594 C 90.585938 27.492188 90.289062 27.523438 89.988281 27.523438 Z M 89.988281 27.523438 " fill-opacity="1" fill-rule="nonzero"/></g><path fill="#254f91" d="M 48.230469 43.644531 C 46.964844 43.648438 45.882812 43.199219 44.988281 42.300781 L 38.503906 35.816406 C 38.289062 35.601562 38.097656 35.371094 37.929688 35.121094 C 37.761719 34.871094 37.621094 34.605469 37.503906 34.328125 C 37.390625 34.046875 37.300781 33.761719 37.242188 33.464844 C 37.183594 33.171875 37.15625 32.871094 37.152344 32.570312 C 37.152344 32.269531 37.183594 31.96875 37.242188 31.675781 C 37.300781 31.378906 37.386719 31.089844 37.503906 30.8125 C 37.617188 30.535156 37.757812 30.269531 37.925781 30.019531 C 38.09375 29.769531 38.285156 29.535156 38.496094 29.324219 C 38.710938 29.109375 38.941406 28.917969 39.195312 28.753906 C 39.445312 28.585938 39.707031 28.445312 39.988281 28.328125 C 40.265625 28.214844 40.554688 28.125 40.847656 28.066406 C 41.144531 28.007812 41.441406 27.980469 41.746094 27.980469 C 42.046875 27.980469 42.34375 28.011719 42.640625 28.070312 C 42.9375 28.128906 43.222656 28.214844 43.5 28.332031 C 43.78125 28.445312 44.042969 28.589844 44.292969 28.757812 C 44.542969 28.925781 44.777344 29.113281 44.988281 29.328125 L 51.476562 35.816406 C 51.796875 36.136719 52.0625 36.496094 52.277344 36.894531 C 52.492188 37.296875 52.640625 37.71875 52.730469 38.164062 C 52.820312 38.609375 52.839844 39.054688 52.796875 39.507812 C 52.753906 39.957031 52.644531 40.394531 52.46875 40.8125 C 52.296875 41.230469 52.066406 41.617188 51.777344 41.96875 C 51.488281 42.316406 51.15625 42.621094 50.78125 42.871094 C 50.402344 43.125 49.996094 43.316406 49.5625 43.449219 C 49.128906 43.578125 48.6875 43.644531 48.234375 43.644531 Z M 48.230469 43.644531 " fill-opacity="1" fill-rule="nonzero"/><path fill="#254f91" d="M 131.742188 43.644531 C 131.289062 43.644531 130.84375 43.578125 130.410156 43.449219 C 129.976562 43.316406 129.570312 43.125 129.195312 42.871094 C 128.816406 42.621094 128.484375 42.320312 128.195312 41.96875 C 127.910156 41.617188 127.679688 41.230469 127.503906 40.8125 C 127.332031 40.394531 127.222656 39.960938 127.179688 39.507812 C 127.132812 39.054688 127.15625 38.609375 127.242188 38.164062 C 127.332031 37.71875 127.484375 37.296875 127.695312 36.894531 C 127.910156 36.496094 128.179688 36.136719 128.5 35.816406 L 134.988281 29.328125 C 135.199219 29.117188 135.433594 28.925781 135.683594 28.757812 C 135.933594 28.59375 136.199219 28.449219 136.476562 28.335938 C 136.753906 28.222656 137.039062 28.132812 137.335938 28.074219 C 137.628906 28.015625 137.929688 27.988281 138.230469 27.988281 C 138.53125 27.988281 138.828125 28.015625 139.125 28.078125 C 139.417969 28.136719 139.707031 28.222656 139.984375 28.335938 C 140.261719 28.453125 140.527344 28.59375 140.777344 28.761719 C 141.027344 28.929688 141.257812 29.117188 141.472656 29.332031 C 141.683594 29.542969 141.875 29.777344 142.042969 30.027344 C 142.207031 30.277344 142.351562 30.539062 142.464844 30.820312 C 142.582031 31.097656 142.667969 31.382812 142.726562 31.679688 C 142.785156 31.972656 142.8125 32.273438 142.816406 32.574219 C 142.816406 32.875 142.785156 33.171875 142.726562 33.46875 C 142.667969 33.761719 142.582031 34.046875 142.464844 34.328125 C 142.351562 34.605469 142.210938 34.871094 142.042969 35.121094 C 141.875 35.371094 141.6875 35.601562 141.472656 35.816406 L 134.984375 42.300781 C 134.089844 43.199219 133.007812 43.648438 131.742188 43.644531 Z M 131.742188 43.644531 " fill-opacity="1" fill-rule="nonzero"/><g clip-path="url(#c8e687f950)"><path fill="#254f91" d="M 29.882812 68.46875 L 0 77.90625 L 0 115.597656 C -0.148438 119.921875 0.726562 124.03125 2.621094 127.917969 C 9.175781 140.921875 25.6875 144.640625 29.882812 145.429688 C 34.078125 144.640625 50.539062 140.921875 57.089844 127.867188 C 58.976562 124.050781 59.851562 120.011719 59.710938 115.757812 L 59.710938 77.90625 Z M 51.847656 97.617188 L 31.402344 118.011719 C 31.164062 118.257812 30.902344 118.480469 30.617188 118.675781 C 30.332031 118.875 30.03125 119.039062 29.714844 119.175781 C 29.398438 119.308594 29.070312 119.410156 28.730469 119.480469 C 28.394531 119.550781 28.050781 119.582031 27.707031 119.582031 C 27.363281 119.582031 27.019531 119.550781 26.683594 119.480469 C 26.34375 119.410156 26.015625 119.308594 25.699219 119.175781 C 25.382812 119.039062 25.082031 118.875 24.796875 118.675781 C 24.511719 118.480469 24.25 118.257812 24.011719 118.011719 L 13.160156 107.210938 C 12.917969 106.96875 12.699219 106.707031 12.507812 106.417969 C 12.316406 106.132812 12.15625 105.832031 12.023438 105.515625 C 11.894531 105.199219 11.792969 104.871094 11.726562 104.535156 C 11.660156 104.199219 11.625 103.859375 11.625 103.515625 C 11.625 103.171875 11.660156 102.832031 11.726562 102.496094 C 11.792969 102.160156 11.894531 101.832031 12.023438 101.515625 C 12.15625 101.199219 12.316406 100.898438 12.507812 100.609375 C 12.699219 100.324219 12.917969 100.0625 13.160156 99.820312 C 13.40625 99.578125 13.671875 99.359375 13.957031 99.167969 C 14.246094 98.976562 14.550781 98.816406 14.867188 98.683594 C 15.1875 98.554688 15.515625 98.453125 15.855469 98.386719 C 16.195312 98.320312 16.535156 98.285156 16.882812 98.285156 C 17.226562 98.285156 17.570312 98.320312 17.90625 98.386719 C 18.246094 98.453125 18.574219 98.554688 18.894531 98.683594 C 19.214844 98.816406 19.515625 98.976562 19.804688 99.167969 C 20.09375 99.359375 20.359375 99.578125 20.605469 99.820312 L 27.734375 106.898438 L 44.40625 90.226562 C 44.648438 89.984375 44.914062 89.765625 45.203125 89.574219 C 45.492188 89.382812 45.792969 89.222656 46.113281 89.089844 C 46.433594 88.960938 46.761719 88.859375 47.101562 88.792969 C 47.4375 88.726562 47.78125 88.691406 48.125 88.691406 C 48.472656 88.691406 48.8125 88.726562 49.152344 88.792969 C 49.492188 88.859375 49.820312 88.960938 50.140625 89.089844 C 50.457031 89.222656 50.761719 89.382812 51.050781 89.574219 C 51.335938 89.765625 51.605469 89.984375 51.847656 90.226562 C 52.089844 90.46875 52.308594 90.734375 52.5 91.019531 C 52.691406 91.304688 52.851562 91.605469 52.984375 91.921875 C 53.113281 92.238281 53.214844 92.566406 53.28125 92.902344 C 53.347656 93.238281 53.382812 93.578125 53.382812 93.921875 C 53.382812 94.265625 53.347656 94.605469 53.28125 94.941406 C 53.214844 95.277344 53.113281 95.605469 52.984375 95.921875 C 52.851562 96.238281 52.691406 96.539062 52.5 96.828125 C 52.308594 97.113281 52.089844 97.375 51.847656 97.617188 Z M 51.847656 97.617188 " fill-opacity="1" fill-rule="nonzero"/></g><path fill="#254f91" d="M 120.578125 77.328125 C 120.578125 77.007812 120.613281 76.6875 120.675781 76.367188 C 120.738281 76.050781 120.828125 75.742188 120.949219 75.441406 C 121.070312 75.140625 121.21875 74.855469 121.390625 74.582031 C 121.566406 74.308594 121.761719 74.054688 121.984375 73.820312 C 122.207031 73.582031 122.449219 73.367188 122.707031 73.179688 C 122.96875 72.988281 123.246094 72.824219 123.539062 72.683594 C 123.832031 72.542969 124.132812 72.433594 124.445312 72.351562 C 124.757812 72.269531 125.078125 72.214844 125.398438 72.191406 C 124.96875 69.128906 124.164062 66.167969 122.980469 63.3125 C 121.800781 60.453125 120.28125 57.785156 118.425781 55.3125 C 117.46875 56.160156 116.351562 56.597656 115.074219 56.621094 C 114.378906 56.617188 113.707031 56.484375 113.0625 56.222656 C 112.417969 55.960938 111.847656 55.585938 111.351562 55.101562 C 111.125 54.867188 110.921875 54.617188 110.742188 54.347656 C 110.5625 54.074219 110.410156 53.789062 110.28125 53.492188 C 110.15625 53.191406 110.058594 52.882812 109.988281 52.566406 C 109.917969 52.25 109.878906 51.929688 109.871094 51.605469 C 109.859375 51.277344 109.878906 50.957031 109.929688 50.636719 C 109.980469 50.3125 110.058594 50 110.167969 49.695312 C 110.277344 49.386719 110.414062 49.09375 110.578125 48.8125 C 110.742188 48.535156 110.929688 48.269531 111.140625 48.023438 C 108.667969 46.167969 106 44.652344 103.140625 43.46875 C 100.28125 42.289062 97.324219 41.484375 94.261719 41.050781 C 94.238281 41.375 94.1875 41.691406 94.109375 42.003906 C 94.027344 42.320312 93.917969 42.621094 93.78125 42.914062 C 93.644531 43.207031 93.480469 43.484375 93.292969 43.746094 C 93.101562 44.007812 92.890625 44.25 92.652344 44.472656 C 92.417969 44.691406 92.164062 44.890625 91.894531 45.066406 C 91.621094 45.238281 91.335938 45.386719 91.035156 45.507812 C 90.734375 45.625 90.425781 45.71875 90.109375 45.78125 C 89.789062 45.839844 89.46875 45.875 89.148438 45.875 C 88.824219 45.875 88.503906 45.847656 88.183594 45.789062 C 87.867188 45.730469 87.558594 45.644531 87.257812 45.527344 C 86.953125 45.410156 86.667969 45.265625 86.394531 45.09375 C 86.117188 44.921875 85.863281 44.726562 85.625 44.507812 C 85.386719 44.289062 85.171875 44.046875 84.980469 43.789062 C 84.789062 43.527344 84.621094 43.253906 84.480469 42.960938 C 84.339844 42.671875 84.230469 42.367188 84.144531 42.054688 C 84.0625 41.746094 84.007812 41.425781 83.984375 41.105469 C 80.929688 41.535156 77.976562 42.339844 75.128906 43.519531 C 72.277344 44.703125 69.621094 46.21875 67.15625 48.078125 C 67.570312 48.578125 67.878906 49.132812 68.085938 49.746094 C 68.292969 50.359375 68.386719 50.992188 68.363281 51.640625 C 68.335938 52.285156 68.199219 52.910156 67.945312 53.503906 C 67.695312 54.101562 67.34375 54.632812 66.894531 55.101562 C 66.667969 55.332031 66.417969 55.539062 66.152344 55.71875 C 65.886719 55.902344 65.605469 56.058594 65.308594 56.191406 C 65.011719 56.320312 64.707031 56.421875 64.390625 56.492188 C 64.078125 56.566406 63.757812 56.605469 63.433594 56.617188 C 63.109375 56.632812 62.789062 56.613281 62.46875 56.5625 C 62.148438 56.515625 61.835938 56.4375 61.53125 56.332031 C 61.226562 56.222656 60.933594 56.089844 60.65625 55.925781 C 60.375 55.761719 60.113281 55.574219 59.871094 55.363281 C 57.605469 58.398438 55.839844 61.703125 54.574219 65.273438 L 66.527344 69.046875 C 67.0625 69.214844 67.558594 69.460938 68.011719 69.789062 C 68.46875 70.117188 68.859375 70.503906 69.191406 70.957031 C 69.523438 71.410156 69.773438 71.90625 69.945312 72.4375 C 70.117188 72.972656 70.199219 73.519531 70.195312 74.078125 L 70.195312 108.625 C 74.445312 111.25 79.042969 112.910156 83.984375 113.605469 C 84.003906 113.285156 84.054688 112.964844 84.136719 112.652344 C 84.21875 112.335938 84.328125 112.03125 84.464844 111.738281 C 84.601562 111.445312 84.769531 111.167969 84.957031 110.90625 C 85.148438 110.644531 85.363281 110.402344 85.597656 110.179688 C 85.835938 109.957031 86.089844 109.757812 86.363281 109.585938 C 86.636719 109.410156 86.925781 109.265625 87.226562 109.144531 C 87.53125 109.027344 87.839844 108.9375 88.15625 108.875 C 88.476562 108.816406 88.796875 108.785156 89.121094 108.785156 C 89.445312 108.785156 89.769531 108.816406 90.085938 108.875 C 90.40625 108.9375 90.714844 109.027344 91.015625 109.144531 C 91.320312 109.265625 91.605469 109.410156 91.878906 109.585938 C 92.152344 109.757812 92.410156 109.957031 92.644531 110.179688 C 92.882812 110.402344 93.097656 110.644531 93.285156 110.90625 C 93.476562 111.167969 93.640625 111.445312 93.78125 111.738281 C 93.917969 112.03125 94.027344 112.335938 94.109375 112.652344 C 94.1875 112.964844 94.238281 113.285156 94.261719 113.605469 C 97.324219 113.175781 100.28125 112.371094 103.140625 111.1875 C 106 110.007812 108.667969 108.488281 111.140625 106.636719 C 110.925781 106.390625 110.730469 106.128906 110.566406 105.847656 C 110.398438 105.570312 110.257812 105.277344 110.148438 104.96875 C 110.035156 104.664062 109.957031 104.347656 109.902344 104.027344 C 109.851562 103.703125 109.832031 103.378906 109.839844 103.054688 C 109.851562 102.730469 109.890625 102.40625 109.960938 102.089844 C 110.03125 101.769531 110.132812 101.460938 110.261719 101.160156 C 110.390625 100.863281 110.546875 100.578125 110.730469 100.308594 C 110.914062 100.039062 111.121094 99.789062 111.351562 99.558594 C 111.582031 99.328125 111.832031 99.121094 112.101562 98.9375 C 112.371094 98.753906 112.65625 98.597656 112.953125 98.46875 C 113.253906 98.339844 113.5625 98.238281 113.878906 98.167969 C 114.199219 98.097656 114.519531 98.058594 114.847656 98.046875 C 115.171875 98.039062 115.496094 98.058594 115.820312 98.109375 C 116.140625 98.164062 116.457031 98.246094 116.761719 98.355469 C 117.066406 98.46875 117.363281 98.605469 117.640625 98.773438 C 117.921875 98.941406 118.183594 99.132812 118.425781 99.347656 C 120.28125 96.875 121.800781 94.207031 122.980469 91.347656 C 124.160156 88.488281 124.96875 85.53125 125.398438 82.46875 C 125.078125 82.445312 124.757812 82.390625 124.445312 82.308594 C 124.132812 82.226562 123.832031 82.113281 123.539062 81.976562 C 123.246094 81.835938 122.96875 81.671875 122.707031 81.480469 C 122.449219 81.289062 122.207031 81.078125 121.984375 80.839844 C 121.761719 80.605469 121.566406 80.351562 121.390625 80.078125 C 121.21875 79.804688 121.070312 79.519531 120.949219 79.21875 C 120.828125 78.917969 120.738281 78.609375 120.675781 78.292969 C 120.613281 77.972656 120.578125 77.652344 120.578125 77.328125 Z M 100.234375 82.570312 L 89.121094 82.570312 C 88.777344 82.570312 88.4375 82.535156 88.101562 82.46875 C 87.761719 82.402344 87.4375 82.300781 87.117188 82.167969 C 86.800781 82.035156 86.5 81.875 86.214844 81.683594 C 85.925781 81.492188 85.664062 81.273438 85.417969 81.03125 C 85.175781 80.789062 84.960938 80.523438 84.769531 80.238281 C 84.578125 79.953125 84.414062 79.652344 84.28125 79.332031 C 84.152344 79.015625 84.050781 78.6875 83.984375 78.351562 C 83.914062 78.015625 83.882812 77.671875 83.878906 77.328125 L 83.878906 61.65625 C 83.878906 61.3125 83.914062 60.96875 83.980469 60.632812 C 84.046875 60.292969 84.148438 59.964844 84.277344 59.648438 C 84.410156 59.332031 84.570312 59.027344 84.761719 58.742188 C 84.953125 58.457031 85.171875 58.191406 85.414062 57.949219 C 85.660156 57.703125 85.921875 57.488281 86.210938 57.296875 C 86.496094 57.105469 86.796875 56.941406 87.117188 56.8125 C 87.433594 56.679688 87.761719 56.582031 88.097656 56.511719 C 88.4375 56.445312 88.777344 56.414062 89.121094 56.414062 C 89.464844 56.414062 89.808594 56.445312 90.144531 56.511719 C 90.484375 56.582031 90.808594 56.679688 91.128906 56.8125 C 91.445312 56.941406 91.75 57.105469 92.035156 57.296875 C 92.320312 57.488281 92.585938 57.703125 92.828125 57.949219 C 93.074219 58.191406 93.289062 58.457031 93.480469 58.742188 C 93.671875 59.027344 93.832031 59.332031 93.964844 59.648438 C 94.097656 59.964844 94.195312 60.292969 94.265625 60.632812 C 94.332031 60.96875 94.363281 61.3125 94.363281 61.65625 L 94.363281 72.085938 L 100.234375 72.085938 C 100.582031 72.085938 100.921875 72.117188 101.261719 72.183594 C 101.601562 72.25 101.929688 72.351562 102.246094 72.480469 C 102.566406 72.613281 102.867188 72.773438 103.15625 72.964844 C 103.441406 73.15625 103.707031 73.375 103.953125 73.617188 C 104.199219 73.859375 104.414062 74.125 104.605469 74.414062 C 104.800781 74.699219 104.960938 75 105.09375 75.320312 C 105.226562 75.636719 105.324219 75.964844 105.394531 76.304688 C 105.460938 76.644531 105.492188 76.984375 105.492188 77.328125 C 105.492188 77.675781 105.460938 78.015625 105.394531 78.355469 C 105.324219 78.691406 105.226562 79.019531 105.09375 79.339844 C 104.960938 79.65625 104.800781 79.960938 104.605469 80.246094 C 104.414062 80.535156 104.199219 80.796875 103.953125 81.042969 C 103.707031 81.285156 103.441406 81.503906 103.15625 81.695312 C 102.867188 81.886719 102.566406 82.046875 102.246094 82.175781 C 101.929688 82.308594 101.601562 82.40625 101.261719 82.472656 C 100.921875 82.539062 100.582031 82.574219 100.234375 82.570312 Z M 100.234375 82.570312 " fill-opacity="1" fill-rule="nonzero"/><path fill="#254f91" d="M 89.121094 134.996094 C 81.5625 134.964844 74.28125 133.511719 67.285156 130.644531 C 68.71875 127.351562 69.621094 123.917969 70.003906 120.347656 C 76.078125 123.101562 82.453125 124.492188 89.121094 124.511719 C 90.558594 124.511719 91.996094 124.449219 93.425781 124.316406 C 94.855469 124.1875 96.28125 123.992188 97.695312 123.730469 C 99.105469 123.472656 100.507812 123.148438 101.890625 122.757812 C 103.273438 122.371094 104.636719 121.921875 105.980469 121.410156 C 107.324219 120.894531 108.640625 120.324219 109.929688 119.691406 C 111.222656 119.058594 112.480469 118.367188 113.707031 117.617188 C 114.9375 116.871094 116.125 116.066406 117.28125 115.210938 C 118.433594 114.355469 119.546875 113.445312 120.617188 112.488281 C 121.6875 111.527344 122.714844 110.523438 123.695312 109.472656 C 124.671875 108.417969 125.601562 107.324219 126.480469 106.1875 C 127.359375 105.050781 128.1875 103.875 128.957031 102.660156 C 129.730469 101.449219 130.445312 100.203125 131.101562 98.925781 C 131.761719 97.648438 132.359375 96.34375 132.898438 95.007812 C 133.4375 93.675781 133.914062 92.320312 134.328125 90.945312 C 134.742188 89.570312 135.09375 88.175781 135.382812 86.769531 C 135.667969 85.359375 135.890625 83.941406 136.050781 82.511719 C 136.207031 81.085938 136.300781 79.652344 136.328125 78.214844 C 136.355469 76.777344 136.316406 75.339844 136.210938 73.90625 C 136.105469 72.472656 135.9375 71.046875 135.703125 69.628906 C 135.46875 68.210938 135.167969 66.808594 134.804688 65.417969 C 134.441406 64.027344 134.015625 62.652344 133.527344 61.300781 C 133.039062 59.949219 132.492188 58.625 131.882812 57.320312 C 131.273438 56.019531 130.605469 54.75 129.878906 53.507812 C 129.152344 52.265625 128.371094 51.0625 127.535156 49.890625 C 126.699219 48.722656 125.8125 47.59375 124.875 46.503906 C 123.933594 45.417969 122.949219 44.375 121.914062 43.375 C 120.878906 42.378906 119.800781 41.429688 118.679688 40.53125 C 117.558594 39.628906 116.398438 38.785156 115.199219 37.988281 C 114.003906 37.195312 112.769531 36.457031 111.503906 35.777344 C 110.238281 35.097656 108.945312 34.476562 107.621094 33.914062 C 106.296875 33.351562 104.953125 32.847656 103.585938 32.410156 C 102.214844 31.96875 100.832031 31.59375 99.425781 31.28125 C 98.023438 30.96875 96.609375 30.71875 95.183594 30.535156 C 93.757812 30.351562 92.328125 30.234375 90.890625 30.179688 C 89.453125 30.125 88.019531 30.140625 86.582031 30.21875 C 85.148438 30.296875 83.71875 30.441406 82.296875 30.648438 C 80.875 30.859375 79.464844 31.128906 78.066406 31.46875 C 76.671875 31.804688 75.292969 32.207031 73.929688 32.671875 C 72.570312 33.132812 71.234375 33.660156 69.921875 34.246094 C 68.609375 34.832031 67.324219 35.476562 66.070312 36.179688 C 64.816406 36.882812 63.597656 37.640625 62.414062 38.457031 C 61.230469 39.269531 60.085938 40.136719 58.980469 41.054688 C 57.875 41.976562 56.816406 42.945312 55.796875 43.960938 C 54.78125 44.976562 53.8125 46.035156 52.894531 47.140625 C 51.972656 48.246094 51.105469 49.390625 50.289062 50.574219 C 49.476562 51.757812 48.714844 52.976562 48.011719 54.230469 C 47.308594 55.484375 46.664062 56.765625 46.078125 58.078125 C 45.492188 59.390625 44.964844 60.726562 44.5 62.085938 L 34.523438 58.933594 C 35.082031 57.269531 35.71875 55.632812 36.429688 54.023438 C 37.144531 52.417969 37.925781 50.84375 38.78125 49.308594 C 39.636719 47.773438 40.558594 46.28125 41.550781 44.828125 C 42.542969 43.378906 43.597656 41.976562 44.71875 40.621094 C 45.839844 39.265625 47.019531 37.964844 48.257812 36.71875 C 49.496094 35.472656 50.789062 34.285156 52.136719 33.15625 C 53.484375 32.027344 54.878906 30.964844 56.324219 29.964844 C 57.769531 28.960938 59.257812 28.03125 60.789062 27.164062 C 62.316406 26.300781 63.882812 25.507812 65.488281 24.785156 C 67.089844 24.066406 68.722656 23.417969 70.382812 22.847656 C 72.046875 22.273438 73.730469 21.777344 75.4375 21.359375 C 77.144531 20.941406 78.867188 20.605469 80.605469 20.34375 C 82.34375 20.082031 84.089844 19.902344 85.84375 19.800781 C 87.601562 19.703125 89.355469 19.679688 91.113281 19.742188 C 92.867188 19.800781 94.617188 19.941406 96.363281 20.160156 C 98.105469 20.382812 99.835938 20.679688 101.550781 21.058594 C 103.269531 21.4375 104.964844 21.894531 106.640625 22.425781 C 108.3125 22.960938 109.960938 23.570312 111.578125 24.253906 C 113.199219 24.9375 114.785156 25.695312 116.332031 26.523438 C 117.882812 27.351562 119.390625 28.25 120.859375 29.214844 C 122.328125 30.183594 123.746094 31.214844 125.121094 32.3125 C 126.492188 33.410156 127.8125 34.566406 129.082031 35.785156 C 130.347656 37 131.558594 38.273438 132.710938 39.601562 C 133.859375 40.929688 134.949219 42.308594 135.972656 43.738281 C 137 45.164062 137.957031 46.636719 138.847656 48.152344 C 139.738281 49.667969 140.554688 51.21875 141.304688 52.8125 C 142.050781 54.402344 142.726562 56.023438 143.328125 57.675781 C 143.925781 59.328125 144.449219 61.003906 144.894531 62.703125 C 145.34375 64.402344 145.710938 66.117188 146 67.851562 C 146.289062 69.585938 146.5 71.328125 146.628906 73.082031 C 146.761719 74.835938 146.8125 76.589844 146.78125 78.347656 C 146.75 80.105469 146.640625 81.855469 146.449219 83.605469 C 146.257812 85.351562 145.988281 87.085938 145.640625 88.808594 C 145.289062 90.53125 144.863281 92.234375 144.355469 93.917969 C 143.851562 95.601562 143.273438 97.257812 142.613281 98.886719 C 141.957031 100.519531 141.230469 102.117188 140.425781 103.679688 C 139.625 105.242188 138.75 106.765625 137.808594 108.25 C 136.867188 109.734375 135.859375 111.171875 134.785156 112.5625 C 133.710938 113.953125 132.578125 115.292969 131.378906 116.582031 C 130.183594 117.871094 128.933594 119.101562 127.625 120.273438 C 126.316406 121.445312 124.953125 122.558594 123.542969 123.605469 C 122.132812 124.65625 120.679688 125.636719 119.179688 126.554688 C 117.679688 127.46875 116.140625 128.316406 114.5625 129.089844 C 112.984375 129.863281 111.375 130.566406 109.734375 131.195312 C 108.09375 131.820312 106.425781 132.375 104.734375 132.847656 C 103.039062 133.324219 101.332031 133.722656 99.601562 134.039062 C 97.875 134.359375 96.132812 134.597656 94.382812 134.757812 C 92.632812 134.917969 90.878906 134.996094 89.121094 134.996094 Z M 89.121094 134.996094 " fill-opacity="1" fill-rule="nonzero"/></svg>