<svg xmlns="http://www.w3.org/2000/svg" xmlns:xlink="http://www.w3.org/1999/xlink" width="200" zoomAndPan="magnify" viewBox="0 0 150 149.999998" height="200" preserveAspectRatio="xMidYMid meet" version="1.0"><defs><clipPath id="2f2c5e2a0f"><path d="M 0 0 L 7 0 L 7 2 L 0 2 Z M 0 0 " clip-rule="nonzero"/></clipPath><clipPath id="d4633e48d4"><path d="M -40.410156 -18.804688 L -2.898438 -43.777344 L 19.007812 -10.875 L -18.503906 14.101562 Z M -40.410156 -18.804688 " clip-rule="nonzero"/></clipPath><clipPath id="dc6c9172df"><path d="M -35.355469 -14.429688 C -35.0625 -7.40625 -29.679688 -3.960938 -25.269531 -3.164062 L 0.492188 1.453125 L 5.878906 -23.824219 C 6.527344 -28.269531 5.523438 -31.855469 2.804688 -34.785156 C -0.957031 -38.839844 -7.046875 -39.871094 -12.007812 -37.296875 C -15.046875 -35.714844 -17.253906 -33.085938 -18.207031 -29.886719 C -18.464844 -29.023438 -18.625 -28.148438 -18.683594 -27.269531 C -19.65625 -27.574219 -20.683594 -27.765625 -21.746094 -27.832031 C -25.449219 -28.0625 -29.074219 -26.722656 -31.699219 -24.144531 C -34.179688 -21.699219 -35.511719 -18.160156 -35.355469 -14.429688 Z M -35.355469 -14.429688 " clip-rule="nonzero"/></clipPath></defs><g clip-path="url(#2f2c5e2a0f)"><g clip-path="url(#d4633e48d4)"><g clip-path="url(#dc6c9172df)"><path fill="#ffffff" d="M -40.324219 -18.675781 L -2.8125 -43.648438 L 19.007812 -10.875 L -18.503906 14.101562 Z M -40.324219 -18.675781 " fill-opacity="1" fill-rule="nonzero"/></g></g></g><path stroke-linecap="round" transform="matrix(1.298764, 0, 0, 1.298764, 15.879353, 38.160146)" fill="none" stroke-linejoin="miter" d="M 6.499223 6.499575 L 84.54215 6.499575 " stroke="#000000" stroke-width="13" stroke-opacity="1" stroke-miterlimit="4"/><path stroke-linecap="round" transform="matrix(1.298764, 0.000000000000000248, -0.000000000000000248, 1.298764, 37.282008, 66.383091)" fill="none" stroke-linejoin="miter" d="M 6.498983 6.499353 L 68.062907 6.499353 " stroke="#000000" stroke-width="13" stroke-opacity="1" stroke-miterlimit="4"/><path stroke-linecap="round" transform="matrix(1.298764, -0.000000000000000322, 0.000000000000000322, 1.298764, 52.799725, 94.955915)" fill="none" stroke-linejoin="miter" d="M 6.500381 6.500427 L 56.114845 6.500427 " stroke="#000000" stroke-width="13" stroke-opacity="1" stroke-miterlimit="4"/></svg>