<svg xmlns="http://www.w3.org/2000/svg" xmlns:xlink="http://www.w3.org/1999/xlink" width="200" zoomAndPan="magnify" viewBox="0 0 150 149.999998" height="200" preserveAspectRatio="xMidYMid meet" version="1.0"><defs><clipPath id="d086e884fb"><path d="M 28.804688 32.269531 L 121.054688 32.269531 L 121.054688 117.769531 L 28.804688 117.769531 Z M 28.804688 32.269531 " clip-rule="nonzero"/></clipPath><clipPath id="97e2e32a26"><path d="M 28.804688 32.269531 L 121.054688 32.269531 L 121.054688 117.769531 L 28.804688 117.769531 Z M 28.804688 32.269531 " clip-rule="nonzero"/></clipPath></defs><g clip-path="url(#d086e884fb)"><path fill="#000000" d="M 119.507812 95.785156 C 119.136719 96.320312 118.601562 96.742188 117.9375 96.976562 L 62.582031 116.460938 C 62.226562 116.585938 61.867188 116.644531 61.515625 116.644531 C 60.855469 116.644531 60.210938 116.4375 59.675781 116.066406 C 59.140625 115.695312 58.71875 115.160156 58.484375 114.496094 L 53.722656 100.964844 L 58.605469 104.609375 L 61.683594 113.351562 L 116.691406 93.992188 L 107.253906 67.175781 L 95.097656 71.457031 L 98.558594 66.8125 L 106.355469 64.066406 C 106.710938 63.945312 107.066406 63.886719 107.421875 63.886719 C 108.082031 63.886719 108.726562 64.09375 109.261719 64.464844 C 109.796875 64.835938 110.21875 65.371094 110.453125 66.03125 L 119.902344 92.878906 C 120.027344 93.234375 120.085938 93.59375 120.085938 93.945312 C 120.085938 94.605469 119.878906 95.25 119.507812 95.785156 Z M 105.183594 72.820312 C 104.734375 72.976562 104.242188 72.742188 104.085938 72.292969 C 103.925781 71.84375 104.164062 71.351562 104.613281 71.195312 C 105.0625 71.035156 105.554688 71.273438 105.710938 71.722656 C 105.871094 72.171875 105.632812 72.660156 105.183594 72.820312 Z M 111.542969 90.886719 C 111.992188 90.730469 112.484375 90.964844 112.644531 91.414062 C 112.800781 91.863281 112.566406 92.355469 112.117188 92.515625 C 111.667969 92.671875 111.175781 92.4375 111.015625 91.988281 C 110.859375 91.539062 111.09375 91.046875 111.542969 90.886719 Z M 91.351562 89.722656 C 91.726562 90.789062 91.8125 91.886719 91.652344 92.929688 C 90.214844 90.53125 87.242188 89.390625 84.5 90.359375 C 81.761719 91.324219 80.15625 94.070312 80.539062 96.84375 C 79.761719 96.125 79.140625 95.21875 78.765625 94.152344 C 78.699219 93.964844 78.644531 93.777344 78.59375 93.589844 L 84.792969 85.277344 C 87.640625 85.164062 90.355469 86.890625 91.351562 89.722656 Z M 89.703125 80.355469 L 89.703125 80.359375 C 89.855469 80.589844 90.121094 80.71875 90.394531 80.699219 L 90.414062 80.695312 C 90.175781 80.851562 90.042969 81.125 90.074219 81.410156 C 89.917969 81.171875 89.644531 81.039062 89.359375 81.066406 L 89.375 81.058594 C 89.601562 80.902344 89.730469 80.632812 89.703125 80.359375 Z M 105.335938 78.09375 L 105.335938 78.097656 C 105.488281 78.328125 105.753906 78.457031 106.03125 78.4375 L 106.046875 78.433594 C 105.808594 78.589844 105.675781 78.863281 105.707031 79.148438 C 105.550781 78.910156 105.277344 78.777344 104.992188 78.804688 L 105.007812 78.796875 C 105.238281 78.640625 105.363281 78.375 105.335938 78.097656 Z M 103.5 93.4375 C 103.25 93.050781 102.804688 92.839844 102.347656 92.886719 L 102.371094 92.871094 C 102.742188 92.617188 102.945312 92.183594 102.898438 91.738281 L 102.898438 91.734375 L 102.902344 91.738281 C 103.148438 92.113281 103.578125 92.324219 104.023438 92.289062 L 104.054688 92.285156 C 103.667969 92.535156 103.453125 92.980469 103.5 93.4375 Z M 74.34375 102.148438 L 74.347656 102.152344 C 74.496094 102.386719 74.761719 102.515625 75.039062 102.492188 L 75.058594 102.492188 C 74.816406 102.644531 74.6875 102.921875 74.714844 103.203125 C 74.5625 102.964844 74.285156 102.832031 74.003906 102.863281 L 74.019531 102.851562 C 74.246094 102.695312 74.371094 102.429688 74.34375 102.15625 Z M 64.109375 109.410156 C 63.660156 109.570312 63.167969 109.332031 63.011719 108.886719 C 62.898438 108.5625 62.988281 108.222656 63.214844 107.996094 C 63.355469 108.074219 63.5 108.148438 63.648438 108.207031 C 63.980469 108.347656 64.328125 108.441406 64.679688 108.492188 C 64.730469 108.886719 64.5 109.273438 64.109375 109.410156 Z M 52.953125 99.054688 L 43.671875 92.136719 L 40.5625 89.816406 C 39.714844 89.183594 39.269531 88.21875 39.265625 87.234375 C 39.269531 86.566406 39.472656 85.894531 39.90625 85.316406 L 61.285156 56.644531 L 62.4375 55.097656 L 74.984375 38.269531 C 75.617188 37.421875 76.582031 36.980469 77.5625 36.976562 C 78.230469 36.976562 78.902344 37.183594 79.480469 37.617188 L 102.296875 54.628906 C 103.144531 55.257812 103.589844 56.226562 103.589844 57.207031 C 103.589844 57.875 103.382812 58.546875 102.953125 59.125 L 67.875 106.171875 C 67.792969 106.285156 67.703125 106.386719 67.609375 106.484375 C 67.585938 106.507812 67.558594 106.527344 67.535156 106.550781 C 67.460938 106.625 67.386719 106.695312 67.304688 106.757812 C 67.28125 106.777344 67.257812 106.792969 67.234375 106.8125 C 67.148438 106.875 67.0625 106.9375 66.976562 106.988281 C 66.953125 107.003906 66.929688 107.015625 66.90625 107.027344 C 66.816406 107.082031 66.722656 107.132812 66.625 107.175781 C 66.207031 107.363281 65.753906 107.464844 65.292969 107.464844 C 64.625 107.464844 63.953125 107.257812 63.375 106.828125 Z M 44.070312 66.371094 C 44.273438 62.691406 47.421875 59.875 51.101562 60.078125 C 52.230469 60.140625 53.273438 60.484375 54.179688 61.03125 C 51.410156 61.441406 49.21875 63.746094 49.058594 66.648438 C 48.988281 67.90625 49.3125 69.089844 49.917969 70.09375 L 47.910156 72.785156 C 45.511719 71.667969 43.914062 69.171875 44.070312 66.371094 Z M 37.164062 90.722656 C 37.640625 90.75 38.003906 91.15625 37.976562 91.628906 C 37.949219 92.105469 37.542969 92.46875 37.066406 92.441406 C 36.59375 92.417969 36.230469 92.007812 36.253906 91.535156 C 36.28125 91.058594 36.6875 90.695312 37.164062 90.722656 Z M 39.898438 41.628906 C 39.421875 41.601562 39.058594 41.195312 39.085938 40.71875 C 39.109375 40.246094 39.519531 39.882812 39.992188 39.90625 C 40.46875 39.933594 40.832031 40.339844 40.804688 40.816406 C 40.78125 41.292969 40.371094 41.65625 39.898438 41.628906 Z M 57.398438 50.1875 C 57.835938 50.101562 58.199219 49.789062 58.335938 49.363281 L 58.34375 49.335938 C 58.425781 49.789062 58.757812 50.15625 59.199219 50.289062 C 58.746094 50.371094 58.375 50.699219 58.246094 51.140625 L 58.238281 51.113281 C 58.148438 50.675781 57.824219 50.320312 57.398438 50.191406 L 57.390625 50.1875 Z M 41.824219 58.003906 C 42.09375 57.953125 42.316406 57.757812 42.402344 57.496094 L 42.40625 57.480469 C 42.457031 57.757812 42.660156 57.984375 42.933594 58.066406 C 42.652344 58.117188 42.425781 58.320312 42.34375 58.59375 L 42.339844 58.578125 C 42.285156 58.304688 42.085938 58.085938 41.824219 58.007812 L 41.820312 58.003906 Z M 46.847656 42.765625 C 46.570312 42.816406 46.339844 43.019531 46.257812 43.289062 L 46.253906 43.273438 C 46.199219 43.003906 46 42.785156 45.738281 42.703125 L 45.734375 42.703125 L 45.738281 42.703125 C 46.007812 42.648438 46.230469 42.453125 46.316406 42.191406 L 46.320312 42.175781 C 46.371094 42.453125 46.574219 42.683594 46.847656 42.765625 Z M 59.929688 41.878906 C 59.957031 41.40625 60.363281 41.042969 60.839844 41.066406 C 61.316406 41.09375 61.679688 41.5 61.652344 41.976562 C 61.625 42.453125 61.21875 42.816406 60.742188 42.789062 C 60.269531 42.761719 59.90625 42.355469 59.929688 41.878906 Z M 32.941406 98.355469 C 31.230469 98.261719 29.90625 96.84375 29.90625 95.152344 C 29.90625 95.089844 29.910156 95.03125 29.910156 94.96875 L 33.175781 36.375 C 33.269531 34.664062 34.6875 33.339844 36.378906 33.339844 C 36.441406 33.339844 36.5 33.339844 36.5625 33.34375 L 64.976562 34.925781 C 65.835938 34.976562 66.589844 35.351562 67.136719 35.929688 C 67.683594 36.511719 68.011719 37.285156 68.011719 38.132812 C 68.011719 38.191406 68.011719 38.253906 68.007812 38.316406 L 67.554688 46.4375 L 64.058594 51.128906 L 64.773438 38.320312 L 36.390625 36.738281 L 33.148438 94.964844 L 46.679688 95.71875 L 51.613281 99.398438 Z M 111.464844 65.675781 C 111.15625 64.796875 110.585938 64.078125 109.875 63.582031 C 109.160156 63.085938 108.308594 62.8125 107.421875 62.8125 C 106.949219 62.8125 106.46875 62.890625 106 63.054688 L 99.710938 65.269531 L 103.8125 59.765625 C 104.386719 59 104.664062 58.097656 104.664062 57.207031 C 104.664062 55.902344 104.066406 54.609375 102.9375 53.765625 L 80.121094 36.753906 C 79.355469 36.183594 78.453125 35.90625 77.5625 35.90625 C 76.257812 35.902344 74.964844 36.503906 74.125 37.628906 L 68.71875 44.878906 L 69.078125 38.375 C 69.085938 38.292969 69.085938 38.214844 69.085938 38.132812 C 69.085938 35.871094 67.320312 33.984375 65.039062 33.855469 L 36.621094 32.273438 C 36.539062 32.269531 36.460938 32.265625 36.378906 32.265625 C 34.121094 32.265625 32.230469 34.03125 32.101562 36.316406 L 28.839844 94.910156 C 28.835938 94.992188 28.832031 95.070312 28.832031 95.152344 C 28.832031 97.410156 30.597656 99.300781 32.882812 99.429688 L 52.425781 100.515625 L 57.472656 114.851562 C 57.78125 115.734375 58.351562 116.453125 59.0625 116.949219 C 59.777344 117.441406 60.628906 117.71875 61.515625 117.71875 C 61.988281 117.71875 62.46875 117.640625 62.9375 117.472656 L 118.292969 97.988281 C 119.175781 97.679688 119.894531 97.109375 120.386719 96.398438 C 120.882812 95.683594 121.160156 94.832031 121.160156 93.945312 C 121.160156 93.472656 121.082031 92.992188 120.914062 92.523438 L 111.464844 65.675781 " fill-opacity="1" fill-rule="nonzero"/></g><path fill="#000000" d="M 65.210938 99.46875 C 64.925781 99.851562 64.386719 99.929688 64.003906 99.644531 C 63.621094 99.359375 63.542969 98.820312 63.828125 98.4375 C 64.113281 98.054688 64.652344 97.976562 65.035156 98.261719 C 65.417969 98.546875 65.496094 99.085938 65.210938 99.46875 Z M 48.472656 86.988281 C 48.1875 87.371094 47.648438 87.449219 47.265625 87.164062 C 46.886719 86.878906 46.804688 86.339844 47.089844 85.957031 C 47.375 85.574219 47.914062 85.496094 48.296875 85.78125 C 48.679688 86.066406 48.757812 86.605469 48.472656 86.988281 Z M 77.511719 45.15625 C 77.796875 44.777344 78.335938 44.695312 78.71875 44.980469 C 79.097656 45.265625 79.179688 45.804688 78.894531 46.1875 C 78.609375 46.570312 78.070312 46.648438 77.6875 46.363281 C 77.304688 46.078125 77.226562 45.539062 77.511719 45.15625 Z M 94.25 57.636719 C 94.535156 57.253906 95.074219 57.175781 95.457031 57.460938 C 95.835938 57.746094 95.917969 58.285156 95.632812 58.667969 C 95.347656 59.050781 94.808594 59.128906 94.425781 58.84375 C 94.042969 58.558594 93.964844 58.019531 94.25 57.636719 Z M 53.898438 82.433594 L 53.894531 82.429688 L 53.898438 82.429688 C 54.3125 82.605469 54.785156 82.539062 55.136719 82.261719 L 55.160156 82.242188 C 54.976562 82.667969 55.050781 83.15625 55.34375 83.507812 C 54.921875 83.328125 54.433594 83.398438 54.078125 83.695312 L 54.089844 83.667969 C 54.257812 83.253906 54.183594 82.777344 53.898438 82.433594 Z M 60.203125 94.546875 L 60.199219 94.542969 L 60.203125 94.542969 C 60.460938 94.652344 60.753906 94.609375 60.96875 94.4375 L 60.984375 94.429688 C 60.871094 94.6875 60.914062 94.992188 61.097656 95.210938 C 60.835938 95.097656 60.535156 95.140625 60.316406 95.324219 L 60.320312 95.308594 C 60.425781 95.050781 60.378906 94.757812 60.203125 94.546875 Z M 88.996094 64.242188 C 88.570312 64.058594 88.082031 64.132812 87.730469 64.425781 L 87.742188 64.398438 C 87.90625 63.984375 87.832031 63.511719 87.550781 63.164062 L 87.546875 63.160156 L 87.550781 63.164062 C 87.964844 63.335938 88.4375 63.273438 88.789062 62.992188 L 88.8125 62.976562 C 88.628906 63.398438 88.699219 63.886719 88.996094 64.242188 Z M 82.855469 51.148438 C 82.59375 51.035156 82.292969 51.082031 82.074219 51.261719 L 82.082031 51.246094 C 82.183594 50.988281 82.136719 50.699219 81.960938 50.484375 L 81.960938 50.480469 L 81.964844 50.484375 C 82.21875 50.589844 82.511719 50.550781 82.726562 50.378906 L 82.742188 50.367188 C 82.628906 50.628906 82.671875 50.929688 82.855469 51.148438 Z M 69.65625 87.734375 L 69.660156 87.734375 C 69.914062 87.84375 70.207031 87.800781 70.421875 87.628906 L 70.4375 87.617188 C 70.324219 87.878906 70.367188 88.183594 70.550781 88.402344 C 70.289062 88.289062 69.988281 88.332031 69.769531 88.515625 L 69.773438 88.5 C 69.878906 88.242188 69.832031 87.949219 69.65625 87.734375 Z M 76.835938 67.933594 C 77.742188 68.609375 78.425781 69.472656 78.878906 70.425781 C 76.347656 69.238281 73.246094 69.949219 71.507812 72.28125 C 69.769531 74.609375 69.972656 77.785156 71.835938 79.871094 C 70.789062 79.714844 69.769531 79.304688 68.863281 78.628906 C 65.910156 76.425781 65.300781 72.246094 67.5 69.292969 C 69.703125 66.339844 73.882812 65.730469 76.835938 67.933594 Z M 71.140625 61.746094 C 70.878906 61.632812 70.578125 61.675781 70.359375 61.859375 L 70.367188 61.84375 C 70.46875 61.585938 70.421875 61.292969 70.246094 61.082031 L 70.246094 61.078125 L 70.25 61.078125 C 70.503906 61.1875 70.796875 61.144531 71.011719 60.976562 L 71.027344 60.964844 C 70.914062 61.226562 70.957031 61.527344 71.140625 61.746094 Z M 100.253906 57.34375 L 77.464844 40.351562 L 42.605469 87.101562 L 65.394531 104.09375 L 100.253906 57.34375 " fill-opacity="1" fill-rule="nonzero"/><path fill="#04050d" d="M 95.261719 88.414062 C 96.214844 88.078125 96.71875 87.027344 96.382812 86.070312 C 96.046875 85.113281 94.996094 84.613281 94.039062 84.949219 C 93.082031 85.285156 92.582031 86.335938 92.917969 87.289062 C 93.253906 88.246094 94.304688 88.75 95.261719 88.414062 " fill-opacity="1" fill-rule="nonzero"/><path fill="#04050d" d="M 99.207031 86.308594 C 99.8125 86.097656 100.128906 85.433594 99.917969 84.828125 C 99.703125 84.222656 99.042969 83.902344 98.4375 84.117188 C 97.832031 84.332031 97.511719 84.992188 97.726562 85.597656 C 97.9375 86.203125 98.601562 86.523438 99.207031 86.308594 " fill-opacity="1" fill-rule="nonzero"/><path fill="#04050d" d="M 102.359375 84.882812 C 102.808594 84.722656 103.046875 84.230469 102.886719 83.78125 C 102.730469 83.332031 102.238281 83.097656 101.789062 83.253906 C 101.339844 83.414062 101.101562 83.90625 101.261719 84.355469 C 101.417969 84.804688 101.910156 85.039062 102.359375 84.882812 " fill-opacity="1" fill-rule="nonzero"/><path fill="#04050d" d="M 49.457031 57.699219 C 50.472656 57.753906 51.335938 56.980469 51.394531 55.964844 C 51.449219 54.953125 50.675781 54.085938 49.664062 54.03125 C 48.648438 53.976562 47.78125 54.75 47.726562 55.761719 C 47.671875 56.777344 48.445312 57.640625 49.457031 57.699219 " fill-opacity="1" fill-rule="nonzero"/><path fill="#04050d" d="M 49.742188 52.609375 C 50.382812 52.644531 50.929688 52.152344 50.964844 51.515625 C 51 50.875 50.511719 50.324219 49.871094 50.289062 C 49.230469 50.253906 48.679688 50.742188 48.644531 51.386719 C 48.609375 52.023438 49.101562 52.574219 49.742188 52.609375 " fill-opacity="1" fill-rule="nonzero"/><path fill="#04050d" d="M 49.949219 48.867188 C 50.425781 48.894531 50.832031 48.53125 50.859375 48.054688 C 50.882812 47.578125 50.519531 47.171875 50.046875 47.144531 C 49.570312 47.121094 49.164062 47.484375 49.136719 47.957031 C 49.109375 48.433594 49.472656 48.839844 49.949219 48.867188 " fill-opacity="1" fill-rule="nonzero"/><g clip-path="url(#97e2e32a26)"><path fill="#04050d" d="M 119.507812 95.785156 C 119.136719 96.320312 118.601562 96.742188 117.9375 96.976562 L 62.582031 116.460938 C 62.226562 116.585938 61.867188 116.644531 61.515625 116.644531 C 60.855469 116.644531 60.210938 116.4375 59.675781 116.066406 C 59.140625 115.695312 58.71875 115.160156 58.484375 114.496094 L 53.722656 100.964844 L 58.605469 104.609375 L 62.734375 107.6875 C 62.890625 107.804688 63.050781 107.902344 63.214844 107.996094 C 63.355469 108.074219 63.5 108.148438 63.648438 108.207031 C 63.980469 108.347656 64.328125 108.441406 64.679688 108.492188 C 64.882812 108.523438 65.089844 108.539062 65.292969 108.539062 C 65.6875 108.539062 66.082031 108.476562 66.460938 108.371094 C 66.46875 108.40625 66.476562 108.441406 66.480469 108.476562 C 66.507812 108.632812 66.601562 108.769531 66.738281 108.851562 C 66.875 108.933594 67.039062 108.949219 67.191406 108.898438 L 109.632812 93.957031 C 109.785156 93.902344 109.90625 93.785156 109.960938 93.628906 C 110.011719 93.476562 109.996094 93.308594 109.910156 93.167969 C 109.808594 93.003906 109.714844 92.820312 109.640625 92.609375 L 109.136719 92.785156 L 109.640625 92.609375 C 109.527344 92.28125 109.480469 91.984375 109.480469 91.707031 C 109.480469 91.382812 109.546875 91.09375 109.664062 90.828125 C 109.839844 90.429688 110.136719 90.085938 110.515625 89.820312 C 110.890625 89.558594 111.339844 89.378906 111.796875 89.3125 C 111.953125 89.289062 112.09375 89.195312 112.175781 89.058594 C 112.257812 88.921875 112.277344 88.753906 112.222656 88.601562 L 107.113281 74.089844 C 107.0625 73.941406 106.949219 73.824219 106.800781 73.769531 C 106.65625 73.710938 106.492188 73.722656 106.355469 73.796875 C 105.921875 74.03125 105.421875 74.160156 104.9375 74.160156 C 104.460938 74.160156 104.003906 74.035156 103.617188 73.777344 C 103.230469 73.519531 102.90625 73.128906 102.691406 72.527344 C 102.632812 72.351562 102.589844 72.183594 102.566406 72.015625 C 102.539062 71.859375 102.445312 71.722656 102.308594 71.640625 C 102.171875 71.558594 102.007812 71.542969 101.855469 71.59375 L 92.550781 74.871094 L 95.097656 71.457031 L 98.558594 66.8125 L 106.355469 64.066406 C 106.710938 63.945312 107.066406 63.886719 107.421875 63.886719 C 108.082031 63.886719 108.726562 64.09375 109.261719 64.464844 C 109.796875 64.835938 110.21875 65.371094 110.453125 66.03125 L 119.902344 92.878906 C 120.027344 93.234375 120.085938 93.59375 120.085938 93.945312 C 120.085938 94.605469 119.878906 95.25 119.507812 95.785156 Z M 32.941406 98.355469 C 31.230469 98.261719 29.90625 96.84375 29.90625 95.152344 C 29.90625 95.089844 29.910156 95.03125 29.910156 94.96875 L 33.175781 36.375 C 33.269531 34.664062 34.6875 33.339844 36.378906 33.339844 C 36.441406 33.339844 36.5 33.339844 36.5625 33.34375 L 64.976562 34.925781 C 65.835938 34.976562 66.589844 35.351562 67.136719 35.929688 C 67.683594 36.511719 68.011719 37.285156 68.011719 38.132812 C 68.011719 38.191406 68.011719 38.253906 68.007812 38.316406 L 67.554688 46.4375 L 64.058594 51.128906 L 61.488281 54.574219 L 62.03125 44.824219 C 62.039062 44.664062 61.976562 44.507812 61.855469 44.398438 C 61.734375 44.289062 61.570312 44.238281 61.410156 44.265625 C 61.265625 44.289062 61.117188 44.300781 60.957031 44.300781 C 60.902344 44.300781 60.847656 44.300781 60.789062 44.296875 C 60.378906 44.273438 60.039062 44.179688 59.753906 44.039062 C 59.328125 43.828125 59.019531 43.507812 58.804688 43.113281 C 58.589844 42.722656 58.480469 42.253906 58.480469 41.78125 C 58.480469 41.535156 58.511719 41.285156 58.574219 41.042969 C 58.609375 40.890625 58.578125 40.722656 58.484375 40.59375 C 58.390625 40.464844 58.242188 40.386719 58.082031 40.378906 L 42.71875 39.523438 C 42.5625 39.511719 42.410156 39.574219 42.304688 39.6875 C 42.195312 39.800781 42.140625 39.957031 42.15625 40.113281 C 42.167969 40.210938 42.171875 40.3125 42.171875 40.414062 C 42.171875 41.082031 41.953125 41.742188 41.550781 42.21875 C 41.347656 42.457031 41.101562 42.652344 40.808594 42.789062 C 40.511719 42.925781 40.167969 43.007812 39.753906 43.007812 C 39.699219 43.007812 39.640625 43.007812 39.578125 43.003906 C 39.394531 42.992188 39.222656 42.964844 39.058594 42.925781 C 38.902344 42.890625 38.738281 42.921875 38.613281 43.015625 C 38.484375 43.113281 38.40625 43.257812 38.398438 43.417969 L 35.890625 88.417969 C 35.882812 88.570312 35.941406 88.722656 36.054688 88.832031 C 36.164062 88.941406 36.320312 88.996094 36.476562 88.980469 C 36.574219 88.972656 36.671875 88.964844 36.769531 88.964844 C 36.816406 88.964844 36.859375 88.96875 36.90625 88.96875 C 37.316406 88.992188 37.65625 89.085938 37.941406 89.226562 C 38.367188 89.441406 38.675781 89.761719 38.890625 90.152344 C 39.105469 90.546875 39.214844 91.011719 39.214844 91.484375 C 39.214844 91.734375 39.183594 91.984375 39.121094 92.226562 C 39.082031 92.382812 39.117188 92.546875 39.210938 92.675781 C 39.304688 92.804688 39.453125 92.886719 39.613281 92.894531 L 43.160156 93.09375 L 46.679688 95.71875 L 51.613281 99.398438 Z M 74.984375 38.269531 C 75.617188 37.421875 76.582031 36.980469 77.5625 36.976562 C 78.230469 36.976562 78.902344 37.183594 79.480469 37.617188 L 102.296875 54.628906 C 103.144531 55.257812 103.589844 56.226562 103.589844 57.207031 C 103.589844 57.875 103.382812 58.546875 102.953125 59.125 L 67.875 106.171875 C 67.792969 106.285156 67.703125 106.386719 67.609375 106.484375 C 67.585938 106.507812 67.558594 106.527344 67.535156 106.550781 C 67.460938 106.625 67.386719 106.695312 67.304688 106.757812 C 67.28125 106.777344 67.257812 106.792969 67.234375 106.8125 C 67.148438 106.875 67.0625 106.9375 66.976562 106.988281 C 66.953125 107.003906 66.929688 107.015625 66.90625 107.027344 C 66.816406 107.082031 66.722656 107.132812 66.625 107.175781 C 66.207031 107.363281 65.753906 107.464844 65.292969 107.464844 C 64.625 107.464844 63.953125 107.257812 63.375 106.828125 L 52.953125 99.054688 L 43.671875 92.136719 L 40.5625 89.816406 C 39.714844 89.183594 39.269531 88.21875 39.265625 87.234375 C 39.269531 86.566406 39.472656 85.894531 39.90625 85.316406 L 61.285156 56.644531 L 62.4375 55.097656 Z M 40.246094 90.917969 L 40.855469 91.371094 L 41.601562 91.929688 L 40.269531 91.855469 C 40.28125 91.734375 40.289062 91.609375 40.289062 91.484375 C 40.289062 91.296875 40.273438 91.105469 40.246094 90.917969 Z M 39.4375 44.066406 C 39.464844 44.070312 39.488281 44.074219 39.519531 44.074219 C 39.597656 44.078125 39.675781 44.082031 39.753906 44.082031 C 40.3125 44.082031 40.820312 43.96875 41.261719 43.761719 C 41.925781 43.453125 42.425781 42.941406 42.753906 42.351562 C 43.050781 41.820312 43.207031 41.226562 43.238281 40.625 L 57.425781 41.414062 C 57.414062 41.539062 57.410156 41.660156 57.410156 41.78125 C 57.410156 42.628906 57.667969 43.488281 58.226562 44.164062 C 58.503906 44.5 58.855469 44.789062 59.277344 45 C 59.699219 45.210938 60.1875 45.339844 60.730469 45.367188 C 60.796875 45.371094 60.859375 45.375 60.925781 45.375 L 60.328125 56.132812 L 54.710938 63.664062 L 49.917969 70.09375 L 47.910156 72.785156 L 39.046875 84.675781 C 38.472656 85.445312 38.195312 86.347656 38.195312 87.234375 C 38.195312 87.566406 38.234375 87.898438 38.308594 88.222656 C 37.921875 88.042969 37.480469 87.933594 36.996094 87.902344 Z M 36.964844 87.898438 L 36.96875 87.898438 C 36.96875 87.898438 36.96875 87.898438 36.964844 87.898438 Z M 101.65625 72.804688 C 101.664062 72.828125 101.671875 72.855469 101.679688 72.882812 C 101.960938 73.679688 102.4375 74.285156 103.023438 74.671875 C 103.601562 75.058594 104.277344 75.234375 104.9375 75.234375 C 105.402344 75.234375 105.859375 75.148438 106.292969 74.992188 L 111.011719 88.394531 C 110.417969 88.582031 109.863281 88.90625 109.414062 89.34375 C 109.113281 89.640625 108.859375 89.992188 108.683594 90.390625 C 108.507812 90.789062 108.40625 91.234375 108.40625 91.707031 C 108.40625 92.109375 108.476562 92.535156 108.628906 92.964844 C 108.652344 93.027344 108.679688 93.085938 108.707031 93.144531 L 68.199219 107.402344 C 68.265625 107.34375 68.324219 107.285156 68.382812 107.222656 C 68.398438 107.210938 68.410156 107.195312 68.425781 107.179688 C 68.535156 107.066406 68.636719 106.945312 68.734375 106.8125 L 78.59375 93.589844 L 84.792969 85.277344 L 91.402344 76.414062 Z M 120.914062 92.523438 L 111.464844 65.675781 C 111.15625 64.796875 110.585938 64.078125 109.875 63.582031 C 109.160156 63.085938 108.308594 62.8125 107.421875 62.8125 C 106.949219 62.8125 106.46875 62.890625 106 63.054688 L 99.710938 65.269531 L 103.8125 59.765625 C 104.386719 59 104.664062 58.097656 104.664062 57.207031 C 104.664062 55.902344 104.066406 54.609375 102.9375 53.765625 L 80.121094 36.753906 C 79.355469 36.183594 78.453125 35.90625 77.5625 35.90625 C 76.257812 35.902344 74.964844 36.503906 74.125 37.628906 L 68.71875 44.878906 L 69.078125 38.375 C 69.085938 38.292969 69.085938 38.214844 69.085938 38.132812 C 69.085938 35.871094 67.320312 33.984375 65.039062 33.855469 L 36.621094 32.273438 C 36.539062 32.269531 36.460938 32.265625 36.378906 32.265625 C 34.121094 32.265625 32.230469 34.03125 32.101562 36.316406 L 28.839844 94.910156 C 28.835938 94.992188 28.832031 95.070312 28.832031 95.152344 C 28.832031 97.410156 30.597656 99.300781 32.882812 99.429688 L 52.425781 100.515625 L 57.472656 114.851562 C 57.78125 115.734375 58.351562 116.453125 59.0625 116.949219 C 59.777344 117.441406 60.628906 117.71875 61.515625 117.71875 C 61.988281 117.71875 62.46875 117.640625 62.9375 117.472656 L 118.292969 97.988281 C 119.175781 97.679688 119.894531 97.109375 120.386719 96.398438 C 120.882812 95.683594 121.160156 94.832031 121.160156 93.945312 C 121.160156 93.472656 121.082031 92.992188 120.914062 92.523438 " fill-opacity="1" fill-rule="nonzero"/></g><path fill="#04050d" d="M 75.957031 48.140625 C 75.976562 48.160156 75.996094 48.175781 76.019531 48.195312 C 76.695312 48.699219 77.425781 48.933594 78.121094 48.929688 C 78.828125 48.929688 79.488281 48.699219 80.039062 48.324219 C 80.421875 48.066406 80.75 47.738281 81.023438 47.371094 L 92.421875 55.867188 C 91.886719 56.539062 91.550781 57.375 91.546875 58.25 C 91.546875 58.742188 91.65625 59.242188 91.894531 59.710938 C 92.128906 60.183594 92.496094 60.617188 92.988281 60.984375 L 93.308594 60.554688 L 92.988281 60.984375 C 93.042969 61.027344 93.097656 61.058594 93.152344 61.09375 L 66.972656 96.207031 C 66.949219 96.191406 66.929688 96.171875 66.90625 96.15625 C 66.234375 95.652344 65.503906 95.417969 64.808594 95.417969 C 64.078125 95.417969 63.398438 95.667969 62.832031 96.066406 C 62.441406 96.339844 62.109375 96.6875 61.839844 97.074219 L 50.257812 88.441406 C 50.792969 87.769531 51.128906 86.933594 51.132812 86.054688 C 51.132812 85.566406 51.023438 85.0625 50.785156 84.59375 C 50.554688 84.128906 50.195312 83.703125 49.714844 83.335938 Z M 48.683594 83.949219 C 48.8125 84.019531 48.933594 84.09375 49.050781 84.179688 C 49.421875 84.457031 49.667969 84.761719 49.828125 85.078125 C 49.988281 85.390625 50.058594 85.71875 50.058594 86.054688 C 50.0625 86.800781 49.683594 87.585938 49.097656 88.121094 C 48.980469 88.226562 48.914062 88.382812 48.921875 88.542969 C 48.933594 88.703125 49.011719 88.847656 49.140625 88.945312 L 61.671875 98.289062 C 61.800781 98.386719 61.964844 98.417969 62.121094 98.382812 C 62.273438 98.34375 62.40625 98.238281 62.476562 98.09375 C 62.695312 97.636719 63.039062 97.230469 63.449219 96.945312 C 63.859375 96.65625 64.324219 96.492188 64.808594 96.492188 C 65.269531 96.492188 65.753906 96.636719 66.265625 97.015625 C 66.414062 97.125 66.539062 97.242188 66.65625 97.367188 C 66.765625 97.484375 66.917969 97.546875 67.078125 97.539062 C 67.238281 97.53125 67.382812 97.449219 67.480469 97.324219 L 94.375 61.25 C 94.472656 61.121094 94.503906 60.953125 94.464844 60.796875 C 94.421875 60.640625 94.3125 60.507812 94.164062 60.441406 C 93.988281 60.363281 93.808594 60.257812 93.628906 60.125 C 93.257812 59.847656 93.011719 59.542969 92.851562 59.230469 C 92.691406 58.914062 92.621094 58.585938 92.621094 58.25 C 92.617188 57.503906 92.996094 56.71875 93.578125 56.1875 C 93.695312 56.082031 93.761719 55.925781 93.753906 55.765625 C 93.746094 55.605469 93.664062 55.457031 93.539062 55.363281 L 81.203125 46.167969 C 81.078125 46.070312 80.917969 46.039062 80.765625 46.074219 C 80.613281 46.109375 80.480469 46.207031 80.410156 46.347656 C 80.179688 46.78125 79.839844 47.164062 79.441406 47.433594 C 79.039062 47.703125 78.589844 47.855469 78.121094 47.855469 C 77.660156 47.855469 77.171875 47.710938 76.664062 47.335938 C 76.515625 47.222656 76.386719 47.105469 76.269531 46.980469 C 76.164062 46.867188 76.007812 46.804688 75.847656 46.8125 C 75.691406 46.820312 75.542969 46.898438 75.449219 47.027344 L 48.507812 83.15625 C 48.417969 83.28125 48.382812 83.441406 48.414062 83.59375 C 48.449219 83.746094 48.546875 83.875 48.683594 83.949219 " fill-opacity="1" fill-rule="nonzero"/><path fill="#04050d" d="M 76.785156 65.039062 C 77.597656 65.648438 78.746094 65.480469 79.351562 64.664062 C 79.960938 63.851562 79.792969 62.703125 78.980469 62.097656 C 78.164062 61.488281 77.015625 61.65625 76.410156 62.46875 C 75.800781 63.285156 75.96875 64.433594 76.785156 65.039062 " fill-opacity="1" fill-rule="nonzero"/><path fill="#04050d" d="M 79.828125 60.953125 C 80.34375 61.335938 81.074219 61.230469 81.457031 60.71875 C 81.839844 60.203125 81.734375 59.476562 81.21875 59.089844 C 80.703125 58.707031 79.976562 58.8125 79.59375 59.328125 C 79.210938 59.84375 79.316406 60.570312 79.828125 60.953125 " fill-opacity="1" fill-rule="nonzero"/><path fill="#04050d" d="M 82.070312 57.949219 C 82.453125 58.234375 82.992188 58.15625 83.277344 57.773438 C 83.5625 57.390625 83.480469 56.851562 83.101562 56.566406 C 82.71875 56.285156 82.179688 56.363281 81.894531 56.742188 C 81.609375 57.125 81.6875 57.664062 82.070312 57.949219 " fill-opacity="1" fill-rule="nonzero"/><path fill="#04050d" d="M 63.878906 82.347656 C 64.691406 82.953125 65.84375 82.785156 66.449219 81.972656 C 67.054688 81.160156 66.886719 80.007812 66.074219 79.402344 C 65.261719 78.796875 64.109375 78.964844 63.503906 79.777344 C 62.898438 80.589844 63.066406 81.742188 63.878906 82.347656 " fill-opacity="1" fill-rule="nonzero"/><path fill="#04050d" d="M 61.640625 85.351562 C 62.152344 85.734375 62.882812 85.628906 63.265625 85.113281 C 63.648438 84.601562 63.542969 83.871094 63.027344 83.488281 C 62.511719 83.105469 61.785156 83.210938 61.402344 83.726562 C 61.019531 84.238281 61.125 84.96875 61.640625 85.351562 " fill-opacity="1" fill-rule="nonzero"/><path fill="#04050d" d="M 59.757812 87.875 C 60.140625 88.160156 60.679688 88.082031 60.964844 87.699219 C 61.25 87.316406 61.167969 86.777344 60.789062 86.492188 C 60.40625 86.210938 59.867188 86.289062 59.582031 86.667969 C 59.296875 87.050781 59.375 87.589844 59.757812 87.875 " fill-opacity="1" fill-rule="nonzero"/></svg>