<svg xmlns="http://www.w3.org/2000/svg" xmlns:xlink="http://www.w3.org/1999/xlink" width="200" zoomAndPan="magnify" viewBox="0 0 150 149.999998" height="200" preserveAspectRatio="xMidYMid meet" version="1.0"><path fill="#254f91" d="M 75 0 L 61.890625 9.007812 L 46.289062 5.714844 L 37.574219 19.042969 L 21.972656 21.972656 L 19.042969 37.574219 L 5.714844 46.289062 L 8.9375 61.890625 L 0 75 L 8.9375 88.183594 L 5.714844 103.710938 L 19.042969 112.425781 L 21.972656 128.027344 L 37.574219 131.03125 L 46.289062 144.289062 L 61.890625 141.066406 L 75 150 L 88.109375 141.066406 L 103.710938 144.289062 L 112.425781 131.03125 L 128.027344 128.027344 L 130.957031 112.425781 L 144.285156 103.710938 L 141.0625 88.183594 L 150 75 L 141.0625 61.890625 L 144.285156 46.289062 L 130.957031 37.574219 L 128.027344 21.972656 L 112.425781 19.042969 L 103.710938 5.714844 L 88.109375 9.007812 Z M 75 23.4375 C 103.476562 23.4375 126.5625 46.523438 126.5625 75 C 126.5625 103.476562 103.476562 126.5625 75 126.5625 C 46.523438 126.5625 23.4375 103.476562 23.4375 75 C 23.4375 46.523438 46.523438 23.4375 75 23.4375 Z M 97.777344 51.417969 L 67.308594 83.9375 L 51.34375 69.726562 L 41.96875 80.199219 L 63.0625 98.949219 L 68.1875 103.492188 L 72.875 98.511719 L 108.03125 61.011719 Z M 97.777344 51.417969 " fill-opacity="1" fill-rule="nonzero"/></svg>