<svg xmlns="http://www.w3.org/2000/svg" xmlns:xlink="http://www.w3.org/1999/xlink" width="200" zoomAndPan="magnify" viewBox="0 0 150 149.999998" height="200" preserveAspectRatio="xMidYMid meet" version="1.0"><defs><clipPath id="59bd69b912"><path d="M 16.277344 0 L 134.027344 0 L 134.027344 150 L 16.277344 150 Z M 16.277344 0 " clip-rule="nonzero"/></clipPath></defs><path fill="#254f91" d="M 45.980469 104.082031 C 45.980469 104.082031 45.980469 104.125 45.980469 104.125 C 45.980469 104.125 45.980469 104.171875 45.980469 104.171875 L 45.980469 144.105469 L 101.304688 144.105469 L 101.304688 94.441406 L 45.980469 94.441406 Z M 52.171875 102.3125 L 81.980469 102.3125 C 82.996094 102.3125 83.792969 103.109375 83.792969 104.125 C 83.792969 105.144531 82.996094 105.941406 81.980469 105.941406 L 52.171875 105.941406 C 51.152344 105.941406 50.359375 105.144531 50.359375 104.125 C 50.359375 103.152344 51.199219 102.3125 52.171875 102.3125 Z M 52.171875 110.097656 L 75.875 110.097656 C 76.894531 110.097656 77.691406 110.894531 77.691406 111.910156 C 77.691406 112.925781 76.894531 113.722656 75.875 113.722656 L 52.171875 113.722656 C 51.152344 113.722656 50.359375 112.925781 50.359375 111.910156 C 50.359375 110.894531 51.199219 110.097656 52.171875 110.097656 Z M 52.171875 117.835938 L 73.664062 117.835938 C 74.683594 117.835938 75.476562 118.632812 75.476562 119.648438 C 75.476562 120.667969 74.683594 121.464844 73.664062 121.464844 L 52.171875 121.464844 C 51.152344 121.464844 50.359375 120.667969 50.359375 119.648438 C 50.359375 118.675781 51.199219 117.835938 52.171875 117.835938 Z M 52.171875 125.621094 L 67.074219 125.621094 C 68.09375 125.621094 68.890625 126.417969 68.890625 127.433594 C 68.890625 128.449219 68.09375 129.246094 67.074219 129.246094 L 52.171875 129.246094 C 51.152344 129.246094 50.359375 128.449219 50.359375 127.433594 C 50.359375 126.417969 51.199219 125.621094 52.171875 125.621094 Z M 52.171875 125.621094 " fill-opacity="1" fill-rule="nonzero"/><path fill="#254f91" d="M 36.558594 102.3125 L 42.398438 102.3125 L 42.398438 92.582031 C 42.398438 91.566406 43.195312 90.769531 44.210938 90.769531 L 103.207031 90.769531 C 104.226562 90.769531 105.019531 91.566406 105.019531 92.582031 L 105.019531 102.3125 L 110.859375 102.3125 L 110.859375 85.726562 L 36.558594 85.726562 Z M 36.558594 102.3125 " fill-opacity="1" fill-rule="nonzero"/><path fill="#254f91" d="M 94.496094 27.792969 L 94.496094 32.390625 L 98.917969 32.390625 Z M 94.496094 27.792969 " fill-opacity="1" fill-rule="nonzero"/><path fill="#254f91" d="M 114.839844 55.742188 C 113.46875 55.742188 112.320312 56.980469 112.320312 58.484375 C 112.320312 59.988281 113.425781 61.226562 114.839844 61.226562 C 116.210938 61.226562 117.359375 59.988281 117.359375 58.484375 C 117.359375 56.9375 116.253906 55.742188 114.839844 55.742188 Z M 114.839844 55.742188 " fill-opacity="1" fill-rule="nonzero"/><path fill="#254f91" d="M 114.53125 47.960938 L 104.976562 47.960938 L 104.976562 60.296875 C 104.976562 61.316406 104.179688 62.113281 103.164062 62.113281 L 44.167969 62.113281 C 43.148438 62.113281 42.351562 61.316406 42.351562 60.296875 L 42.351562 52.25 C 39.035156 51.496094 35.984375 50.039062 33.332031 47.960938 L 32.757812 47.960938 C 27.140625 47.960938 22.539062 52.824219 22.539062 58.792969 L 22.539062 91.523438 C 22.539062 97.492188 27.09375 102.355469 32.757812 102.355469 L 32.84375 102.355469 L 32.84375 83.960938 C 32.84375 82.941406 33.640625 82.144531 34.65625 82.144531 L 112.539062 82.144531 C 113.558594 82.144531 114.351562 82.941406 114.351562 83.960938 L 114.351562 102.3125 L 114.441406 102.3125 C 120.058594 102.3125 124.65625 97.449219 124.65625 91.476562 L 124.65625 58.75 C 124.746094 52.824219 120.148438 47.960938 114.53125 47.960938 Z M 32.492188 64.144531 L 28.464844 64.144531 C 27.449219 64.144531 26.652344 63.351562 26.652344 62.332031 C 26.652344 61.316406 27.449219 60.519531 28.464844 60.519531 L 32.492188 60.519531 C 33.507812 60.519531 34.304688 61.316406 34.304688 62.332031 C 34.304688 63.351562 33.464844 64.144531 32.492188 64.144531 Z M 32.492188 58.75 L 28.464844 58.75 C 27.449219 58.75 26.652344 57.953125 26.652344 56.9375 C 26.652344 55.921875 27.449219 55.125 28.464844 55.125 L 32.492188 55.125 C 33.507812 55.125 34.304688 55.921875 34.304688 56.9375 C 34.304688 57.953125 33.464844 58.75 32.492188 58.75 Z M 114.839844 64.855469 C 111.433594 64.855469 108.691406 61.980469 108.691406 58.484375 C 108.691406 54.992188 111.433594 52.117188 114.839844 52.117188 C 118.246094 52.117188 120.988281 54.992188 120.988281 58.484375 C 120.988281 61.980469 118.246094 64.855469 114.839844 64.855469 Z M 114.839844 64.855469 " fill-opacity="1" fill-rule="nonzero"/><path fill="#254f91" d="M 44.34375 48.933594 C 44.386719 48.933594 44.476562 48.933594 44.519531 48.976562 C 45.359375 49.109375 46.246094 49.152344 47.085938 49.152344 C 57.742188 49.152344 66.414062 40 66.414062 28.722656 C 66.414062 17.441406 57.742188 8.289062 47.085938 8.289062 C 36.425781 8.289062 27.757812 17.441406 27.757812 28.722656 C 27.804688 38.980469 35.011719 47.515625 44.34375 48.933594 Z M 32.625 28.058594 C 33.550781 27.660156 34.613281 28.058594 35.011719 28.984375 L 39.125 38.183594 L 57.257812 19.078125 C 57.964844 18.371094 59.113281 18.328125 59.824219 19.035156 C 60.53125 19.742188 60.574219 20.894531 59.867188 21.601562 L 39.921875 42.5625 L 39.875 42.652344 C 39.832031 42.695312 39.789062 42.742188 39.742188 42.785156 C 39.742188 42.785156 39.699219 42.828125 39.65625 42.828125 C 39.523438 42.917969 39.390625 43.007812 39.257812 43.050781 C 39.167969 43.09375 39.035156 43.136719 38.949219 43.136719 C 38.816406 43.183594 38.683594 43.183594 38.550781 43.183594 C 38.503906 43.183594 38.417969 43.183594 38.371094 43.183594 C 38.328125 43.183594 38.285156 43.183594 38.285156 43.183594 C 38.238281 43.183594 38.238281 43.183594 38.195312 43.183594 C 38.0625 43.136719 37.929688 43.09375 37.796875 43.050781 C 37.753906 43.050781 37.753906 43.007812 37.710938 43.007812 C 37.621094 42.960938 37.53125 42.917969 37.445312 42.828125 C 37.398438 42.785156 37.355469 42.742188 37.3125 42.695312 C 37.265625 42.652344 37.222656 42.609375 37.222656 42.609375 C 37.179688 42.5625 37.179688 42.5625 37.132812 42.519531 C 37.132812 42.519531 37.132812 42.519531 37.132812 42.476562 C 37.089844 42.429688 37.089844 42.429688 37.046875 42.386719 C 37 42.296875 36.957031 42.210938 36.914062 42.121094 L 31.695312 30.535156 C 31.296875 29.5625 31.695312 28.457031 32.625 28.058594 Z M 32.625 28.058594 " fill-opacity="1" fill-rule="nonzero"/><path fill="#254f91" d="M 47.128906 52.78125 C 46.730469 52.78125 46.378906 52.78125 45.980469 52.734375 L 45.980469 58.484375 L 101.304688 58.484375 L 101.304688 36.019531 L 92.683594 36.019531 C 91.664062 36.019531 90.867188 35.222656 90.867188 34.203125 L 90.867188 25.007812 L 69.816406 25.007812 C 69.996094 26.199219 70.082031 27.4375 70.082031 28.675781 C 70.082031 41.988281 59.777344 52.78125 47.128906 52.78125 Z M 47.128906 52.78125 " fill-opacity="1" fill-rule="nonzero"/><g clip-path="url(#59bd69b912)"><path fill="#254f91" d="M 73.664062 182.363281 C 59.378906 182.363281 45.492188 179.53125 32.359375 174.003906 C 19.710938 168.652344 8.34375 161 -1.386719 151.269531 C -11.160156 141.453125 -18.8125 130.132812 -24.117188 117.527344 C -29.648438 104.480469 -32.476562 90.59375 -32.476562 76.21875 C -32.476562 61.933594 -29.648438 48.046875 -24.117188 34.914062 C -18.722656 22.175781 -11.070312 10.808594 -1.386719 1.167969 C 8.433594 -8.605469 19.753906 -16.257812 32.359375 -21.5625 C 45.40625 -27.09375 59.292969 -29.921875 73.664062 -29.921875 C 87.949219 -29.921875 101.835938 -27.09375 114.972656 -21.5625 C 127.621094 -16.210938 138.988281 -8.5625 148.71875 1.167969 C 158.492188 10.984375 166.140625 22.308594 171.449219 34.914062 C 176.976562 48.046875 179.808594 61.933594 179.808594 76.21875 C 179.808594 90.503906 176.976562 104.390625 171.449219 117.527344 C 166.097656 130.175781 158.445312 141.542969 148.71875 151.269531 C 138.898438 161.046875 127.578125 168.695312 114.972656 174.003906 C 101.925781 179.53125 88.039062 182.363281 73.664062 182.363281 Z M 73.621094 -26.5625 C 16.96875 -26.5625 -29.160156 19.566406 -29.160156 76.21875 C -29.160156 132.875 16.921875 179 73.621094 179 C 130.320312 179 176.402344 132.875 176.402344 76.21875 C 176.402344 19.566406 130.273438 -26.5625 73.621094 -26.5625 Z M 73.621094 -26.5625 " fill-opacity="1" fill-rule="nonzero"/></g></svg>