<svg xmlns="http://www.w3.org/2000/svg" xmlns:xlink="http://www.w3.org/1999/xlink" width="200" zoomAndPan="magnify" viewBox="0 0 150 149.999998" height="200" preserveAspectRatio="xMidYMid meet" version="1.0"><defs><clipPath id="af12c51675"><path d="M 6 21 L 67.492188 21 L 67.492188 114 L 6 114 Z M 6 21 " clip-rule="nonzero"/></clipPath><clipPath id="ea9326f1c0"><path d="M 46 99 L 67.492188 99 L 67.492188 114 L 46 114 Z M 46 99 " clip-rule="nonzero"/></clipPath><clipPath id="cd604c4d29"><path d="M 64.316406 54.121094 L 146.816406 54.121094 L 146.816406 120 L 64.316406 120 Z M 64.316406 54.121094 " clip-rule="nonzero"/></clipPath></defs><g clip-path="url(#af12c51675)"><path fill="#254f91" d="M 52.660156 21.433594 L 39.097656 28.941406 C 35.417969 30.988281 34.761719 31.332031 32.773438 33.757812 C 19.65625 51.71875 13.441406 67.503906 7.179688 91.382812 C 3.484375 105.464844 18.226562 113.082031 30.105469 113.097656 C 38.695312 113.101562 41.015625 112.03125 47.832031 109.675781 C 48.601562 109.414062 49.046875 108.710938 48.402344 107.96875 C 46.78125 106.070312 46.300781 105.265625 45.058594 102.691406 C 41.320312 103.855469 36.6875 104.539062 32.617188 103.957031 C 29.433594 103.503906 26.597656 102.28125 24.777344 99.917969 C 24.328125 99.335938 25.171875 98.683594 25.644531 99.046875 C 28.550781 100.328125 31.203125 101.09375 33.914062 101.359375 C 38.554688 101.824219 43.359375 100.859375 49.878906 98.601562 C 58.171875 95.722656 66.179688 102.148438 69.480469 109.847656 C 80.511719 106.910156 85.445312 80.726562 81.273438 78.320312 C 73.691406 74.269531 62.339844 77.476562 55.703125 88.570312 C 54.6875 90.273438 52.664062 89.683594 53.578125 87.9375 C 56.964844 81.488281 51.941406 79.40625 46.074219 79.511719 C 37.898438 79.667969 30.613281 84.117188 28.925781 89.550781 C 28.410156 91.214844 26.480469 91.035156 26.847656 89.199219 C 28.148438 82.667969 35.035156 82.308594 34.519531 75.789062 C 33.738281 65.835938 34.019531 59.226562 39.0625 49.605469 C 39.816406 48.058594 37.398438 45.246094 36.988281 43.8125 C 36.628906 42.550781 37.089844 41.375 37.828125 42.457031 C 39.035156 44.214844 41.816406 46.304688 44.113281 46.578125 L 48.621094 47.121094 C 51.335938 47.445312 52.007812 47.628906 54.117188 46.261719 L 58.320312 43.542969 C 58.765625 43.257812 59.335938 43.234375 59.804688 43.480469 C 60.867188 44.058594 61.617188 44.3125 62.085938 44.324219 C 62.558594 44.324219 62.949219 44.214844 63.746094 43.445312 L 66.808594 40.472656 C 68 39.3125 68.085938 37.441406 66.769531 35.777344 L 56.050781 22.234375 C 54.933594 20.828125 53.898438 20.75 52.660156 21.433594 Z M 52.660156 21.433594 " fill-opacity="1" fill-rule="evenodd"/></g><g clip-path="url(#ea9326f1c0)"><path fill="#254f91" d="M 53.554688 100.011719 C 50.933594 100.214844 49.425781 101.414062 46.710938 102.160156 C 51.765625 110.808594 58.851562 115.996094 67.230469 111.503906 C 63.769531 104.933594 59.203125 99.574219 53.554688 100.011719 Z M 53.554688 100.011719 " fill-opacity="1" fill-rule="evenodd"/></g><g clip-path="url(#cd604c4d29)"><path fill="#254f91" d="M 64.316406 74.785156 L 64.316406 70.542969 C 64.316406 61.484375 71.660156 54.140625 80.722656 54.140625 L 130.210938 54.140625 C 139.269531 54.140625 146.613281 61.484375 146.613281 70.542969 L 146.613281 74.839844 L 71.453125 74.839844 C 69.082031 74.839844 66.699219 74.785156 64.316406 74.785156 Z M 66.675781 108.210938 C 65.890625 108.050781 65.101562 107.980469 64.316406 107.992188 L 64.316406 114.234375 C 64.316406 117.300781 66.804688 119.789062 69.875 119.789062 L 76 119.789062 C 76 119.71875 76.003906 119.652344 76.003906 119.582031 C 75.957031 114.085938 72.070312 109.316406 66.675781 108.210938 Z M 146.613281 114.234375 L 146.613281 107.996094 C 142.515625 107.882812 138.515625 110.027344 136.363281 113.578125 C 135.222656 115.464844 134.675781 117.632812 134.710938 119.789062 L 141.058594 119.789062 C 144.125 119.789062 146.613281 117.300781 146.613281 114.234375 Z M 135.480469 110.597656 C 138.191406 107.285156 142.402344 105.464844 146.613281 105.542969 L 146.613281 77.359375 C 144.234375 77.355469 141.847656 77.304688 139.476562 77.304688 L 117.324219 77.304688 L 117.324219 85.332031 C 117.324219 86.972656 117.238281 88.59375 116.722656 90.171875 C 115.042969 95.285156 110.230469 98.742188 104.863281 98.796875 C 101.886719 98.796875 99.023438 97.707031 96.757812 95.796875 C 94.796875 94.144531 93.371094 91.820312 92.765625 89.332031 C 92.40625 87.859375 92.402344 86.386719 92.402344 84.886719 L 92.402344 77.304688 L 64.316406 77.304688 L 64.316406 105.539062 C 65.941406 105.519531 67.574219 105.777344 69.128906 106.34375 C 74.695312 108.367188 78.417969 113.664062 78.46875 119.582031 C 78.46875 119.652344 78.464844 119.71875 78.464844 119.789062 L 132.257812 119.789062 C 132.226562 116.503906 133.332031 113.222656 135.480469 110.597656 Z M 113.34375 77.523438 L 114.859375 77.523438 L 114.859375 84.25 C 114.859375 85.347656 114.925781 86.488281 114.792969 87.582031 C 114.519531 89.8125 113.457031 91.910156 111.855469 93.480469 C 109.984375 95.316406 107.476562 96.308594 104.863281 96.332031 C 100.238281 96.332031 96.164062 93.0625 95.117188 88.566406 C 94.832031 87.351562 94.867188 86.125 94.867188 84.886719 L 94.867188 77.523438 Z M 109.902344 86.976562 C 109.902344 84.222656 107.667969 81.988281 104.910156 81.988281 C 102.15625 81.988281 99.921875 84.222656 99.921875 86.976562 C 99.921875 89.734375 102.15625 91.96875 104.910156 91.96875 C 107.667969 91.96875 109.902344 89.734375 109.902344 86.976562 Z M 109.902344 86.976562 " fill-opacity="1" fill-rule="nonzero"/></g></svg>