<svg xmlns="http://www.w3.org/2000/svg" xmlns:xlink="http://www.w3.org/1999/xlink" width="200" zoomAndPan="magnify" viewBox="0 0 150 149.999998" height="200" preserveAspectRatio="xMidYMid meet" version="1.0"><defs><clipPath id="0c13353036"><path d="M 76 53 L 130.09375 53 L 130.09375 124 L 76 124 Z M 76 53 " clip-rule="nonzero"/></clipPath><clipPath id="f85de89c0a"><path d="M 19.84375 97 L 79 97 L 79 124.765625 L 19.84375 124.765625 Z M 19.84375 97 " clip-rule="nonzero"/></clipPath></defs><path fill="#254f91" d="M 85.027344 57.640625 C 85.175781 57.1875 85.210938 56.6875 85.101562 56.1875 C 84.769531 54.71875 83.3125 53.796875 81.84375 54.128906 C 81.742188 54.152344 81.644531 54.167969 81.546875 54.1875 C 82.542969 55.492188 83.703125 56.644531 85.027344 57.640625 Z M 85.027344 57.640625 " fill-opacity="1" fill-rule="nonzero"/><path fill="#254f91" d="M 75.4375 55.757812 C 75.5 55.3125 75.644531 54.886719 75.863281 54.507812 C 71.804688 54.097656 68.417969 52.355469 65.917969 50.550781 C 64.492188 49.523438 63.375 48.484375 62.632812 47.71875 C 62.261719 47.339844 61.980469 47.023438 61.800781 46.816406 C 61.710938 46.710938 61.648438 46.632812 61.609375 46.582031 C 61.585938 46.558594 61.574219 46.542969 61.566406 46.535156 C 61.398438 46.3125 61.199219 46.125 60.984375 45.972656 C 57.976562 42.957031 54.96875 39.9375 51.960938 36.921875 C 51.84375 36.800781 51.683594 36.683594 51.5 36.578125 C 51.054688 36.199219 50.28125 35.59375 49.226562 34.96875 C 47.605469 34.023438 45.292969 33.011719 42.46875 33 C 39.722656 32.976562 36.585938 34.09375 33.898438 36.796875 C 31.191406 39.492188 28.8125 43.625 26.796875 49.859375 C 26.335938 51.289062 27.125 52.824219 28.554688 53.285156 C 28.832031 53.375 29.113281 53.417969 29.390625 53.417969 C 30.542969 53.417969 31.609375 52.683594 31.984375 51.53125 C 33.816406 45.820312 35.902344 42.46875 37.734375 40.664062 C 39.582031 38.867188 41.058594 38.476562 42.46875 38.449219 C 43.109375 38.445312 43.753906 38.5625 44.371094 38.746094 C 38.914062 45.289062 35.84375 53.339844 33.023438 61.492188 C 32.929688 61.761719 32.875 62.035156 32.84375 62.304688 C 32.5 63.429688 32.617188 64.691406 33.28125 65.773438 C 33.28125 65.773438 33.289062 65.785156 33.304688 65.808594 C 33.507812 66.164062 35.03125 69.039062 35.011719 73.035156 C 35.011719 75.15625 34.617188 77.609375 33.378906 80.375 C 32.136719 83.136719 30.027344 86.234375 26.445312 89.535156 C 24.71875 91.128906 24.609375 93.820312 26.203125 95.550781 C 27.042969 96.460938 28.183594 96.921875 29.332031 96.921875 C 30.363281 96.921875 31.398438 96.550781 32.214844 95.796875 C 36.53125 91.820312 39.390625 87.765625 41.140625 83.863281 C 42.898438 79.964844 43.527344 76.242188 43.523438 73.035156 C 43.523438 72.136719 43.472656 71.28125 43.390625 70.46875 C 44.222656 70.910156 45.949219 71.933594 47.558594 73.550781 C 48.667969 74.65625 49.722656 76.019531 50.496094 77.652344 C 51.265625 79.289062 51.777344 81.195312 51.78125 83.574219 C 51.777344 85.652344 51.378906 88.113281 50.285156 91.046875 C 49.460938 93.25 50.582031 95.699219 52.785156 96.523438 C 53.273438 96.703125 53.777344 96.792969 54.269531 96.792969 C 55.996094 96.792969 57.621094 95.734375 58.257812 94.023438 C 59.664062 90.261719 60.292969 86.765625 60.292969 83.574219 C 60.296875 79.804688 59.40625 76.488281 58.066406 73.757812 C 56.050781 69.648438 53.121094 66.863281 50.730469 65.078125 C 50.09375 64.605469 49.492188 64.203125 48.949219 63.859375 C 50.964844 56.773438 54.207031 54.246094 59.035156 51.832031 C 59.9375 52.730469 61.175781 53.84375 62.726562 54.96875 C 66.167969 57.453125 71.238281 60.015625 77.578125 60.046875 C 77.0625 59.480469 76.566406 58.894531 76.101562 58.277344 C 75.550781 57.554688 75.3125 56.660156 75.4375 55.757812 Z M 75.4375 55.757812 " fill-opacity="1" fill-rule="nonzero"/><path fill="#254f91" d="M 66.785156 28.8125 C 67.21875 29.058594 67.628906 29.347656 68.007812 29.679688 C 68.390625 30.007812 68.734375 30.371094 69.042969 30.769531 C 69.351562 31.164062 69.617188 31.589844 69.84375 32.039062 C 70.066406 32.488281 70.246094 32.953125 70.378906 33.441406 C 70.511719 33.925781 70.597656 34.417969 70.632812 34.917969 C 70.667969 35.421875 70.65625 35.921875 70.59375 36.421875 C 70.53125 36.917969 70.417969 37.40625 70.261719 37.886719 C 70.101562 38.363281 69.898438 38.820312 69.648438 39.257812 C 69.402344 39.691406 69.113281 40.101562 68.78125 40.480469 C 68.453125 40.863281 68.089844 41.207031 67.691406 41.515625 C 67.296875 41.824219 66.871094 42.089844 66.421875 42.316406 C 65.972656 42.539062 65.503906 42.71875 65.019531 42.851562 C 64.535156 42.984375 64.042969 43.070312 63.539062 43.105469 C 63.039062 43.140625 62.539062 43.128906 62.039062 43.066406 C 61.539062 43.003906 61.050781 42.890625 60.574219 42.734375 C 60.097656 42.574219 59.640625 42.371094 59.203125 42.121094 C 58.765625 41.875 58.359375 41.582031 57.976562 41.253906 C 57.597656 40.925781 57.253906 40.5625 56.945312 40.164062 C 56.636719 39.769531 56.371094 39.34375 56.144531 38.894531 C 55.917969 38.445312 55.742188 37.976562 55.609375 37.492188 C 55.472656 37.007812 55.390625 36.515625 55.355469 36.011719 C 55.316406 35.511719 55.332031 35.011719 55.394531 34.511719 C 55.457031 34.011719 55.566406 33.523438 55.726562 33.046875 C 55.886719 32.570312 56.089844 32.113281 56.335938 31.675781 C 56.585938 31.238281 56.875 30.832031 57.207031 30.449219 C 57.535156 30.070312 57.898438 29.726562 58.292969 29.417969 C 58.691406 29.109375 59.117188 28.84375 59.566406 28.617188 C 60.015625 28.390625 60.480469 28.214844 60.96875 28.082031 C 61.453125 27.949219 61.945312 27.863281 62.445312 27.828125 C 62.949219 27.792969 63.449219 27.804688 63.949219 27.867188 C 64.445312 27.929688 64.933594 28.039062 65.410156 28.199219 C 65.890625 28.359375 66.347656 28.5625 66.785156 28.8125 Z M 66.785156 28.8125 " fill-opacity="1" fill-rule="nonzero"/><path fill="#254f91" d="M 106.121094 45.128906 C 106.625 45.148438 107.121094 45.214844 107.609375 45.335938 C 108.097656 45.453125 108.570312 45.617188 109.027344 45.828125 C 109.484375 46.039062 109.914062 46.292969 110.324219 46.585938 C 110.730469 46.882812 111.101562 47.214844 111.445312 47.585938 C 111.785156 47.953125 112.085938 48.351562 112.351562 48.78125 C 112.613281 49.210938 112.832031 49.660156 113.003906 50.132812 C 113.179688 50.605469 113.304688 51.089844 113.382812 51.585938 C 113.460938 52.082031 113.488281 52.582031 113.46875 53.085938 C 113.449219 53.585938 113.382812 54.082031 113.261719 54.570312 C 113.144531 55.0625 112.980469 55.535156 112.769531 55.992188 C 112.558594 56.445312 112.308594 56.878906 112.011719 57.285156 C 111.714844 57.691406 111.382812 58.066406 111.011719 58.40625 C 110.644531 58.75 110.246094 59.050781 109.816406 59.3125 C 109.386719 59.574219 108.9375 59.792969 108.464844 59.96875 C 107.992188 60.140625 107.507812 60.265625 107.011719 60.34375 C 106.515625 60.421875 106.015625 60.453125 105.511719 60.433594 C 105.011719 60.414062 104.515625 60.34375 104.027344 60.226562 C 103.535156 60.109375 103.0625 59.945312 102.605469 59.734375 C 102.152344 59.523438 101.71875 59.269531 101.3125 58.972656 C 100.90625 58.679688 100.53125 58.34375 100.191406 57.976562 C 99.847656 57.605469 99.546875 57.207031 99.285156 56.777344 C 99.023438 56.347656 98.804688 55.898438 98.628906 55.425781 C 98.457031 54.957031 98.332031 54.472656 98.253906 53.972656 C 98.171875 53.476562 98.144531 52.976562 98.164062 52.476562 C 98.183594 51.972656 98.253906 51.476562 98.371094 50.988281 C 98.488281 50.5 98.652344 50.027344 98.863281 49.570312 C 99.074219 49.113281 99.328125 48.683594 99.625 48.277344 C 99.917969 47.867188 100.253906 47.496094 100.621094 47.152344 C 100.992188 46.8125 101.390625 46.511719 101.820312 46.25 C 102.25 45.984375 102.699219 45.769531 103.171875 45.59375 C 103.640625 45.421875 104.125 45.292969 104.625 45.214844 C 105.121094 45.136719 105.621094 45.109375 106.121094 45.128906 Z M 106.121094 45.128906 " fill-opacity="1" fill-rule="nonzero"/><g clip-path="url(#0c13353036)"><path fill="#254f91" d="M 120.878906 60.839844 C 118.398438 59.9375 116.261719 59.84375 115.332031 59.835938 C 114.980469 59.789062 114.664062 59.789062 114.410156 59.851562 C 110.304688 60.8125 106.199219 61.769531 102.09375 62.730469 C 101.597656 62.765625 100.910156 62.796875 100.078125 62.796875 C 97.726562 62.800781 94.230469 62.527344 90.71875 61.347656 C 88.660156 60.65625 86.613281 59.671875 84.726562 58.269531 C 83.375 57.265625 82.105469 56.050781 80.980469 54.570312 C 80.917969 54.488281 80.847656 54.410156 80.78125 54.335938 C 79.835938 53.347656 78.277344 53.203125 77.164062 54.050781 C 76.960938 54.203125 76.792969 54.378906 76.648438 54.566406 C 75.921875 55.515625 75.882812 56.867188 76.640625 57.867188 C 77.234375 58.644531 77.859375 59.363281 78.503906 60.03125 C 81.675781 63.3125 85.429688 65.324219 88.988281 66.511719 C 93.277344 67.941406 97.320312 68.242188 100.078125 68.246094 C 100.117188 68.246094 100.160156 68.246094 100.203125 68.246094 C 102.878906 72.519531 104.4375 76.046875 103.304688 81.878906 C 102.4375 81.339844 101.496094 80.824219 100.480469 80.371094 C 98.546875 79.511719 96.316406 78.863281 93.847656 78.855469 C 90.863281 78.828125 87.566406 79.941406 84.882812 82.347656 C 82.171875 84.746094 80 88.21875 78.226562 92.980469 C 77.40625 95.183594 78.53125 97.632812 80.734375 98.453125 C 81.222656 98.632812 81.722656 98.71875 82.214844 98.71875 C 83.945312 98.71875 85.570312 97.660156 86.207031 95.945312 C 87.644531 92.050781 89.230469 89.847656 90.507812 88.734375 C 91.808594 87.632812 92.722656 87.398438 93.847656 87.371094 C 94.773438 87.363281 95.871094 87.632812 97.019531 88.144531 C 98.742188 88.902344 100.496094 90.203125 101.742188 91.308594 C 102.371094 91.859375 102.875 92.363281 103.210938 92.710938 C 103.378906 92.882812 103.503906 93.019531 103.582031 93.105469 C 103.621094 93.148438 103.648438 93.179688 103.660156 93.195312 C 103.664062 93.199219 103.667969 93.203125 103.667969 93.203125 C 103.667969 93.207031 103.671875 93.207031 103.671875 93.207031 C 104.738281 94.449219 106.367188 94.921875 107.859375 94.578125 C 107.765625 95.527344 107.703125 96.578125 107.703125 97.734375 C 107.695312 103.453125 109.199219 111.601562 114.828125 121.265625 C 115.621094 122.625 117.046875 123.382812 118.511719 123.382812 C 119.238281 123.382812 119.972656 123.199219 120.648438 122.808594 C 122.679688 121.625 123.371094 119.019531 122.1875 116.988281 C 117.273438 108.519531 116.222656 101.992188 116.214844 97.734375 C 116.214844 95.722656 116.457031 94.214844 116.675781 93.257812 C 116.785156 92.777344 116.890625 92.4375 116.953125 92.242188 C 116.988281 92.148438 117.011719 92.085938 117.019531 92.066406 L 117.023438 92.058594 L 117.019531 92.058594 C 117.097656 91.878906 117.15625 91.695312 117.203125 91.511719 C 117.320312 91.265625 117.417969 91 117.480469 90.71875 C 119.332031 82.636719 120.9375 74.507812 120.019531 66.394531 C 120.21875 66.5 120.417969 66.605469 120.613281 66.726562 C 121.660156 67.371094 122.605469 68.25 123.347656 69.601562 C 124.085938 70.957031 124.632812 72.839844 124.636719 75.585938 C 124.636719 77.550781 124.347656 79.945312 123.632812 82.824219 C 123.273438 84.285156 124.160156 85.761719 125.621094 86.125 C 125.839844 86.175781 126.0625 86.203125 126.28125 86.203125 C 127.503906 86.203125 128.613281 85.375 128.921875 84.136719 C 129.722656 80.90625 130.085938 78.082031 130.085938 75.585938 C 130.089844 72.105469 129.363281 69.25 128.132812 66.992188 C 126.285156 63.589844 123.367188 61.742188 120.878906 60.839844 Z M 120.878906 60.839844 " fill-opacity="1" fill-rule="nonzero"/></g><g clip-path="url(#f85de89c0a)"><path fill="#254f91" d="M 19.910156 97.753906 L 78.1875 97.753906 L 78.1875 124.992188 L 19.910156 124.992188 Z M 19.910156 97.753906 " fill-opacity="1" fill-rule="nonzero"/></g></svg>