<svg xmlns="http://www.w3.org/2000/svg" xmlns:xlink="http://www.w3.org/1999/xlink" width="200" zoomAndPan="magnify" viewBox="0 0 150 149.999998" height="200" preserveAspectRatio="xMidYMid meet" version="1.0"><defs><clipPath id="c9cd32b96e"><path d="M 0 0 L 7 0 L 7 2 L 0 2 Z M 0 0 " clip-rule="nonzero"/></clipPath><clipPath id="e84e003528"><path d="M -40.410156 -18.804688 L -2.898438 -43.777344 L 19.007812 -10.875 L -18.503906 14.101562 Z M -40.410156 -18.804688 " clip-rule="nonzero"/></clipPath><clipPath id="8e25399b5f"><path d="M -35.355469 -14.429688 C -35.0625 -7.40625 -29.679688 -3.960938 -25.269531 -3.164062 L 0.492188 1.453125 L 5.878906 -23.824219 C 6.527344 -28.269531 5.523438 -31.855469 2.804688 -34.785156 C -0.957031 -38.839844 -7.046875 -39.871094 -12.007812 -37.296875 C -15.046875 -35.714844 -17.253906 -33.085938 -18.207031 -29.886719 C -18.464844 -29.023438 -18.625 -28.148438 -18.683594 -27.269531 C -19.65625 -27.574219 -20.683594 -27.765625 -21.746094 -27.832031 C -25.449219 -28.0625 -29.074219 -26.722656 -31.699219 -24.144531 C -34.179688 -21.699219 -35.511719 -18.160156 -35.355469 -14.429688 Z M -35.355469 -14.429688 " clip-rule="nonzero"/></clipPath><clipPath id="0a66eff18f"><path d="M 42 88 L 62 88 L 62 119.46875 L 42 119.46875 Z M 42 88 " clip-rule="nonzero"/></clipPath><clipPath id="d9fbb60015"><path d="M 65 69 L 108 69 L 108 119.46875 L 65 119.46875 Z M 65 69 " clip-rule="nonzero"/></clipPath><clipPath id="039bb2b69a"><path d="M 62 30.21875 L 88 30.21875 L 88 55 L 62 55 Z M 62 30.21875 " clip-rule="nonzero"/></clipPath></defs><g clip-path="url(#c9cd32b96e)"><g clip-path="url(#e84e003528)"><g clip-path="url(#8e25399b5f)"><path fill="#ffffff" d="M -40.324219 -18.675781 L -2.8125 -43.648438 L 19.007812 -10.875 L -18.503906 14.101562 Z M -40.324219 -18.675781 " fill-opacity="1" fill-rule="nonzero"/></g></g></g><g clip-path="url(#0a66eff18f)"><path fill="#000000" d="M 50.824219 114.902344 C 50.824219 115.902344 50.015625 116.714844 49.015625 116.714844 L 46.816406 116.714844 C 45.816406 116.714844 45.003906 115.902344 45.003906 114.902344 L 45.003906 112.703125 C 45.003906 111.703125 45.816406 110.890625 46.816406 110.890625 L 49.015625 110.890625 C 50.015625 110.890625 50.824219 111.703125 50.824219 112.703125 Z M 57.882812 88.730469 L 46.222656 88.730469 C 44.015625 88.730469 42.230469 90.519531 42.230469 92.722656 L 42.230469 115.523438 C 42.230469 117.726562 44.015625 119.511719 46.222656 119.511719 L 57.882812 119.511719 C 60.085938 119.511719 61.875 117.726562 61.875 115.523438 L 61.875 92.722656 C 61.875 90.519531 60.085938 88.730469 57.882812 88.730469 " fill-opacity="1" fill-rule="nonzero"/></g><g clip-path="url(#d9fbb60015)"><path fill="#000000" d="M 104.34375 96.796875 C 106.121094 97.6875 107.707031 99.574219 107.089844 101.671875 C 106.582031 103.398438 104.929688 104.558594 103.199219 104.621094 L 103.152344 104.621094 C 103.167969 104.636719 103.1875 104.636719 103.199219 104.652344 C 106.546875 106.398438 106.519531 110.871094 103.199219 112.109375 C 102.867188 112.234375 102.503906 112.332031 102.105469 112.378906 C 102.566406 112.710938 102.933594 113.15625 103.199219 113.648438 C 103.882812 114.851562 103.945312 116.394531 103.199219 117.597656 C 103.199219 117.613281 103.199219 117.613281 103.199219 117.613281 C 103.121094 117.757812 103.027344 117.867188 102.933594 117.996094 C 101.597656 119.644531 99.0625 119.738281 97.125 119.691406 L 89.859375 119.167969 L 79.894531 118.457031 C 77.929688 118.3125 74.851562 117.550781 73.039062 116.757812 C 70.820312 115.773438 68.40625 115.265625 65.964844 115.265625 L 65.964844 92.972656 L 69.644531 92.164062 C 76.277344 89.4375 80.625 80.328125 80.242188 74.457031 C 80.117188 72.507812 80.214844 70.605469 82.386719 69.890625 C 85.003906 69.035156 87.667969 71.839844 87.84375 74.140625 C 88.207031 78.820312 85.894531 84.296875 86.382812 86.976562 C 86.558594 88.007812 87.160156 88.625 88.492188 88.625 L 102.929688 88.625 C 103.011719 88.625 103.105469 88.644531 103.1875 88.660156 C 105.40625 88.816406 107.359375 89.722656 107.769531 92.214844 C 107.882812 92.925781 107.804688 93.578125 107.566406 94.132812 C 106.992188 95.511719 105.914062 96.464844 104.34375 96.796875 " fill-opacity="1" fill-rule="nonzero"/></g><g clip-path="url(#039bb2b69a)"><path fill="#000000" d="M 76.113281 31.351562 L 78.332031 38.175781 C 78.484375 38.648438 78.925781 38.96875 79.417969 38.96875 L 86.59375 38.96875 C 87.703125 38.96875 88.164062 40.386719 87.269531 41.035156 L 81.460938 45.253906 C 81.0625 45.546875 80.890625 46.0625 81.046875 46.53125 L 83.261719 53.359375 C 83.605469 54.414062 82.398438 55.289062 81.503906 54.636719 L 75.699219 50.417969 C 75.296875 50.128906 74.753906 50.128906 74.351562 50.417969 L 68.546875 54.636719 C 67.652344 55.289062 66.445312 54.414062 66.789062 53.359375 L 69.003906 46.53125 C 69.160156 46.0625 68.992188 45.546875 68.589844 45.253906 L 62.785156 41.035156 C 61.886719 40.386719 62.347656 38.96875 63.457031 38.96875 L 70.632812 38.96875 C 71.128906 38.96875 71.566406 38.648438 71.722656 38.175781 L 73.9375 31.351562 C 74.28125 30.296875 75.769531 30.296875 76.113281 31.351562 " fill-opacity="1" fill-rule="nonzero"/></g><path fill="#000000" d="M 101.546875 41.136719 L 103.761719 47.960938 C 103.917969 48.433594 104.355469 48.75 104.851562 48.75 L 112.027344 48.75 C 113.136719 48.75 113.597656 50.167969 112.703125 50.816406 L 106.894531 55.039062 C 106.492188 55.328125 106.324219 55.84375 106.476562 56.316406 L 108.695312 63.144531 C 109.039062 64.195312 107.832031 65.070312 106.9375 64.421875 L 101.128906 60.199219 C 100.730469 59.910156 100.1875 59.910156 99.785156 60.199219 L 93.976562 64.421875 C 93.082031 65.070312 91.878906 64.195312 92.21875 63.144531 L 94.4375 56.316406 C 94.589844 55.84375 94.425781 55.328125 94.023438 55.039062 L 88.214844 50.816406 C 87.320312 50.167969 87.78125 48.75 88.886719 48.75 L 96.066406 48.75 C 96.5625 48.75 97 48.433594 97.152344 47.960938 L 99.371094 41.136719 C 99.710938 40.082031 101.203125 40.082031 101.546875 41.136719 " fill-opacity="1" fill-rule="nonzero"/><path fill="#000000" d="M 117.347656 62.105469 L 119.566406 68.933594 C 119.71875 69.40625 120.160156 69.726562 120.652344 69.726562 L 127.832031 69.726562 C 128.9375 69.726562 129.402344 71.140625 128.503906 71.792969 L 122.699219 76.011719 C 122.296875 76.304688 122.128906 76.820312 122.28125 77.289062 L 124.5 84.117188 C 124.839844 85.167969 123.636719 86.046875 122.738281 85.394531 L 116.933594 81.175781 C 116.535156 80.882812 115.992188 80.882812 115.589844 81.175781 L 109.78125 85.394531 C 108.886719 86.046875 107.679688 85.167969 108.023438 84.117188 L 110.242188 77.289062 C 110.394531 76.820312 110.226562 76.304688 109.824219 76.011719 L 104.019531 71.792969 C 103.125 71.140625 103.585938 69.726562 104.691406 69.726562 L 111.867188 69.726562 C 112.363281 69.726562 112.800781 69.40625 112.957031 68.933594 L 115.175781 62.105469 C 115.515625 61.054688 117.007812 61.054688 117.347656 62.105469 " fill-opacity="1" fill-rule="nonzero"/><path fill="#000000" d="M 48.507812 41.136719 L 46.289062 47.960938 C 46.136719 48.433594 45.695312 48.75 45.203125 48.75 L 38.023438 48.75 C 36.914062 48.75 36.453125 50.167969 37.351562 50.816406 L 43.160156 55.039062 C 43.558594 55.328125 43.726562 55.84375 43.574219 56.316406 L 41.355469 63.144531 C 41.015625 64.195312 42.21875 65.070312 43.113281 64.421875 L 48.921875 60.199219 C 49.324219 59.910156 49.863281 59.910156 50.265625 60.199219 L 56.074219 64.421875 C 56.96875 65.070312 58.175781 64.195312 57.832031 63.144531 L 55.613281 56.316406 C 55.460938 55.84375 55.628906 55.328125 56.027344 55.039062 L 61.835938 50.816406 C 62.730469 50.167969 62.273438 48.75 61.164062 48.75 L 53.988281 48.75 C 53.492188 48.75 53.050781 48.433594 52.898438 47.960938 L 50.679688 41.136719 C 50.335938 40.082031 48.847656 40.082031 48.507812 41.136719 " fill-opacity="1" fill-rule="nonzero"/><path fill="#000000" d="M 32.703125 62.105469 L 30.484375 68.933594 C 30.332031 69.40625 29.890625 69.726562 29.398438 69.726562 L 22.21875 69.726562 C 21.109375 69.726562 20.652344 71.140625 21.546875 71.792969 L 27.355469 76.011719 C 27.753906 76.304688 27.925781 76.820312 27.769531 77.289062 L 25.554688 84.117188 C 25.210938 85.167969 26.417969 86.046875 27.3125 85.394531 L 33.117188 81.175781 C 33.519531 80.882812 34.0625 80.882812 34.460938 81.175781 L 40.269531 85.394531 C 41.164062 86.046875 42.371094 85.167969 42.027344 84.117188 L 39.8125 77.289062 C 39.65625 76.820312 39.824219 76.304688 40.226562 76.011719 L 46.03125 71.792969 C 46.929688 71.140625 46.46875 69.726562 45.359375 69.726562 L 38.183594 69.726562 C 37.6875 69.726562 37.25 69.40625 37.09375 68.933594 L 34.878906 62.105469 C 34.535156 61.054688 33.046875 61.054688 32.703125 62.105469 " fill-opacity="1" fill-rule="nonzero"/></svg>