<svg xmlns="http://www.w3.org/2000/svg" xmlns:xlink="http://www.w3.org/1999/xlink" width="200" zoomAndPan="magnify" viewBox="0 0 150 149.999998" height="200" preserveAspectRatio="xMidYMid meet" version="1.0"><defs><clipPath id="894bc5e292"><path d="M 7.0625 52 L 142.8125 52 L 142.8125 135 L 7.0625 135 Z M 7.0625 52 " clip-rule="nonzero"/></clipPath></defs><g clip-path="url(#894bc5e292)"><path fill="#254f91" d="M 31.84375 130.972656 L 33.039062 129.773438 C 33.125 129.675781 33.183594 129.566406 33.265625 129.472656 L 75.042969 87.691406 L 116.292969 128.941406 C 116.304688 128.964844 117.964844 130.851562 118.933594 131.601562 C 118.957031 131.621094 118.980469 131.636719 119.007812 131.652344 C 121.5 133.570312 124.613281 134.730469 128.003906 134.730469 C 131.785156 134.730469 135.21875 133.304688 137.835938 130.972656 L 139.035156 129.773438 C 141.363281 127.15625 142.796875 123.71875 142.796875 119.9375 C 142.796875 116.054688 141.285156 112.523438 138.832031 109.882812 L 138.660156 109.710938 C 138.667969 109.707031 138.671875 109.707031 138.675781 109.703125 C 138.675781 109.703125 84.4375 55.382812 84.085938 55.109375 C 81.585938 53.171875 78.453125 52.007812 75.042969 52.007812 C 71.636719 52.007812 68.507812 53.171875 66.007812 55.109375 C 65.011719 55.878906 12.46875 108.648438 12.46875 108.648438 L 10.722656 110.394531 C 8.542969 112.972656 7.21875 116.296875 7.21875 119.9375 C 7.21875 123.363281 8.394531 126.507812 10.347656 129.011719 C 11.101562 129.980469 11.972656 130.851562 12.941406 131.601562 C 15.445312 133.558594 18.585938 134.730469 22.011719 134.730469 C 25.660156 134.730469 28.964844 133.378906 31.539062 131.195312 C 31.636719 131.113281 31.746094 131.050781 31.84375 130.972656 " fill-opacity="1" fill-rule="nonzero"/></g></svg>