<svg xmlns="http://www.w3.org/2000/svg" xmlns:xlink="http://www.w3.org/1999/xlink" width="200" zoomAndPan="magnify" viewBox="0 0 150 149.999998" height="200" preserveAspectRatio="xMidYMid meet" version="1.0"><defs><clipPath id="fe79aeba40"><path d="M 3.46875 0 L 146 0 L 146 123 L 3.46875 123 Z M 3.46875 0 " clip-rule="nonzero"/></clipPath></defs><g clip-path="url(#fe79aeba40)"><path fill="#254f91" d="M 125.992188 109.089844 L 55.410156 109.089844 C 55.007812 109.105469 54.605469 109.078125 54.207031 109.011719 C 53.808594 108.945312 53.421875 108.835938 53.046875 108.691406 C 52.667969 108.546875 52.308594 108.367188 51.96875 108.148438 C 51.628906 107.929688 51.3125 107.683594 51.023438 107.402344 C 50.734375 107.121094 50.472656 106.8125 50.246094 106.480469 C 50.015625 106.148438 49.824219 105.796875 49.667969 105.425781 C 49.507812 105.050781 49.390625 104.667969 49.308594 104.273438 C 49.230469 103.878906 49.1875 103.476562 49.1875 103.074219 C 49.1875 102.671875 49.230469 102.269531 49.308594 101.875 C 49.390625 101.480469 49.507812 101.09375 49.667969 100.722656 C 49.824219 100.351562 50.015625 100 50.246094 99.667969 C 50.472656 99.332031 50.734375 99.027344 51.023438 98.746094 C 51.3125 98.464844 51.628906 98.214844 51.96875 98 C 52.308594 97.78125 52.667969 97.601562 53.046875 97.457031 C 53.421875 97.308594 53.808594 97.203125 54.207031 97.136719 C 54.605469 97.070312 55.007812 97.042969 55.410156 97.058594 L 125.992188 97.058594 C 126.769531 97.058594 127.523438 96.929688 128.253906 96.671875 C 128.988281 96.414062 129.65625 96.042969 130.261719 95.558594 C 130.867188 95.074219 131.375 94.5 131.785156 93.84375 C 132.195312 93.183594 132.484375 92.476562 132.65625 91.71875 L 145.492188 33.960938 C 145.601562 33.464844 145.65625 32.957031 145.652344 32.449219 C 145.652344 31.9375 145.589844 31.433594 145.476562 30.9375 C 145.359375 30.441406 145.1875 29.960938 144.964844 29.503906 C 144.742188 29.042969 144.472656 28.617188 144.152344 28.21875 C 143.832031 27.820312 143.472656 27.460938 143.070312 27.144531 C 142.671875 26.828125 142.242188 26.558594 141.78125 26.339844 C 141.320312 26.117188 140.839844 25.953125 140.34375 25.839844 C 139.847656 25.726562 139.34375 25.671875 138.832031 25.671875 L 42.574219 25.671875 C 42.082031 25.667969 41.597656 25.71875 41.121094 25.820312 L 36.386719 5.285156 C 36.214844 4.53125 35.921875 3.832031 35.511719 3.179688 C 35.097656 2.527344 34.589844 1.960938 33.988281 1.480469 C 33.382812 1 32.71875 0.632812 31.988281 0.378906 C 31.261719 0.125 30.511719 0 29.742188 0 L 10.488281 0 C 10.039062 0 9.59375 0.0429688 9.15625 0.132812 C 8.71875 0.21875 8.289062 0.347656 7.878906 0.519531 C 7.464844 0.691406 7.070312 0.898438 6.699219 1.148438 C 6.324219 1.398438 5.980469 1.679688 5.664062 1.996094 C 5.347656 2.3125 5.066406 2.65625 4.816406 3.03125 C 4.570312 3.402344 4.359375 3.796875 4.1875 4.207031 C 4.015625 4.621094 3.886719 5.050781 3.800781 5.488281 C 3.710938 5.925781 3.667969 6.371094 3.667969 6.816406 C 3.667969 7.265625 3.710938 7.710938 3.800781 8.148438 C 3.886719 8.585938 4.015625 9.015625 4.1875 9.425781 C 4.359375 9.839844 4.570312 10.234375 4.816406 10.605469 C 5.066406 10.976562 5.347656 11.324219 5.664062 11.640625 C 5.980469 11.957031 6.324219 12.238281 6.699219 12.488281 C 7.070312 12.734375 7.464844 12.945312 7.878906 13.117188 C 8.289062 13.289062 8.71875 13.417969 9.15625 13.503906 C 9.59375 13.59375 10.039062 13.636719 10.488281 13.636719 L 24.3125 13.636719 L 41.714844 89.023438 C 41.015625 89.703125 40.375 90.425781 39.785156 91.199219 C 39.195312 91.972656 38.664062 92.78125 38.195312 93.632812 C 37.726562 94.484375 37.324219 95.367188 36.984375 96.277344 C 36.648438 97.1875 36.378906 98.117188 36.179688 99.070312 C 35.976562 100.019531 35.851562 100.980469 35.792969 101.953125 C 35.734375 102.921875 35.75 103.890625 35.835938 104.859375 C 35.925781 105.824219 36.082031 106.78125 36.3125 107.726562 C 36.539062 108.671875 36.835938 109.59375 37.203125 110.492188 C 37.570312 111.394531 38 112.261719 38.496094 113.097656 C 38.988281 113.933594 39.542969 114.730469 40.15625 115.484375 C 40.769531 116.238281 41.433594 116.941406 42.152344 117.597656 C 42.871094 118.25 43.632812 118.851562 44.4375 119.390625 C 45.246094 119.933594 46.085938 120.414062 46.964844 120.832031 C 47.84375 121.246094 48.746094 121.597656 49.675781 121.878906 C 50.605469 122.160156 51.550781 122.375 52.511719 122.515625 C 53.472656 122.660156 54.441406 122.730469 55.410156 122.726562 L 125.992188 122.726562 C 126.441406 122.726562 126.882812 122.683594 127.324219 122.597656 C 127.761719 122.507812 128.1875 122.378906 128.601562 122.207031 C 129.015625 122.035156 129.410156 121.828125 129.78125 121.578125 C 130.152344 121.328125 130.496094 121.046875 130.8125 120.730469 C 131.132812 120.414062 131.414062 120.070312 131.664062 119.695312 C 131.910156 119.324219 132.121094 118.933594 132.292969 118.519531 C 132.464844 118.105469 132.59375 117.679688 132.679688 117.238281 C 132.769531 116.800781 132.8125 116.355469 132.8125 115.910156 C 132.8125 115.460938 132.769531 115.019531 132.679688 114.578125 C 132.59375 114.140625 132.464844 113.714844 132.292969 113.300781 C 132.121094 112.886719 131.910156 112.492188 131.664062 112.121094 C 131.414062 111.75 131.132812 111.40625 130.8125 111.089844 C 130.496094 110.769531 130.152344 110.488281 129.78125 110.238281 C 129.410156 109.992188 129.015625 109.78125 128.601562 109.609375 C 128.1875 109.4375 127.761719 109.308594 127.324219 109.222656 C 126.882812 109.132812 126.441406 109.089844 125.992188 109.089844 Z M 125.992188 109.089844 " fill-opacity="1" fill-rule="nonzero"/></g><path fill="#254f91" d="M 74.660156 139.773438 C 74.660156 140.445312 74.59375 141.109375 74.460938 141.769531 C 74.332031 142.425781 74.136719 143.066406 73.878906 143.6875 C 73.625 144.308594 73.308594 144.894531 72.933594 145.453125 C 72.5625 146.011719 72.136719 146.53125 71.664062 147.003906 C 71.1875 147.480469 70.671875 147.902344 70.113281 148.277344 C 69.554688 148.648438 68.964844 148.964844 68.34375 149.222656 C 67.726562 149.476562 67.085938 149.671875 66.425781 149.804688 C 65.769531 149.933594 65.101562 150 64.433594 150 C 63.761719 150 63.09375 149.933594 62.4375 149.804688 C 61.777344 149.671875 61.136719 149.476562 60.519531 149.222656 C 59.898438 148.964844 59.308594 148.648438 58.75 148.277344 C 58.191406 147.902344 57.675781 147.480469 57.199219 147.003906 C 56.726562 146.53125 56.300781 146.011719 55.929688 145.453125 C 55.554688 144.894531 55.238281 144.308594 54.984375 143.6875 C 54.726562 143.066406 54.53125 142.425781 54.402344 141.769531 C 54.269531 141.109375 54.203125 140.445312 54.203125 139.773438 C 54.203125 139.101562 54.269531 138.4375 54.402344 137.777344 C 54.53125 137.117188 54.726562 136.480469 54.984375 135.859375 C 55.238281 135.238281 55.554688 134.648438 55.929688 134.089844 C 56.300781 133.53125 56.726562 133.015625 57.199219 132.539062 C 57.675781 132.066406 58.191406 131.640625 58.75 131.269531 C 59.308594 130.894531 59.898438 130.582031 60.519531 130.324219 C 61.136719 130.066406 61.777344 129.871094 62.4375 129.742188 C 63.09375 129.609375 63.761719 129.546875 64.433594 129.546875 C 65.101562 129.546875 65.769531 129.609375 66.425781 129.742188 C 67.085938 129.871094 67.726562 130.066406 68.34375 130.324219 C 68.964844 130.582031 69.554688 130.894531 70.113281 131.269531 C 70.671875 131.640625 71.1875 132.066406 71.664062 132.539062 C 72.136719 133.015625 72.5625 133.53125 72.933594 134.089844 C 73.308594 134.648438 73.625 135.238281 73.878906 135.859375 C 74.136719 136.480469 74.332031 137.117188 74.460938 137.777344 C 74.59375 138.4375 74.660156 139.101562 74.660156 139.773438 Z M 74.660156 139.773438 " fill-opacity="1" fill-rule="nonzero"/><path fill="#254f91" d="M 122.386719 139.773438 C 122.386719 140.445312 122.320312 141.109375 122.191406 141.769531 C 122.058594 142.425781 121.863281 143.066406 121.609375 143.6875 C 121.351562 144.308594 121.035156 144.894531 120.664062 145.453125 C 120.289062 146.011719 119.867188 146.53125 119.390625 147.003906 C 118.914062 147.480469 118.398438 147.902344 117.839844 148.277344 C 117.28125 148.648438 116.691406 148.964844 116.074219 149.222656 C 115.453125 149.476562 114.8125 149.671875 114.15625 149.804688 C 113.496094 149.933594 112.832031 150 112.160156 150 C 111.488281 150 110.824219 149.933594 110.164062 149.804688 C 109.503906 149.671875 108.867188 149.476562 108.246094 149.222656 C 107.625 148.964844 107.035156 148.648438 106.476562 148.277344 C 105.917969 147.902344 105.402344 147.480469 104.925781 147.003906 C 104.453125 146.53125 104.027344 146.011719 103.65625 145.453125 C 103.28125 144.894531 102.96875 144.308594 102.710938 143.6875 C 102.453125 143.066406 102.257812 142.425781 102.128906 141.769531 C 101.996094 141.109375 101.933594 140.445312 101.933594 139.773438 C 101.933594 139.101562 101.996094 138.4375 102.128906 137.777344 C 102.257812 137.117188 102.453125 136.480469 102.710938 135.859375 C 102.96875 135.238281 103.28125 134.648438 103.65625 134.089844 C 104.027344 133.53125 104.453125 133.015625 104.925781 132.539062 C 105.402344 132.066406 105.917969 131.640625 106.476562 131.269531 C 107.035156 130.894531 107.625 130.582031 108.246094 130.324219 C 108.867188 130.066406 109.503906 129.871094 110.164062 129.742188 C 110.824219 129.609375 111.488281 129.546875 112.160156 129.546875 C 112.832031 129.546875 113.496094 129.609375 114.15625 129.742188 C 114.8125 129.871094 115.453125 130.066406 116.074219 130.324219 C 116.691406 130.582031 117.28125 130.894531 117.839844 131.269531 C 118.398438 131.640625 118.914062 132.066406 119.390625 132.539062 C 119.867188 133.015625 120.289062 133.53125 120.664062 134.089844 C 121.035156 134.648438 121.351562 135.238281 121.609375 135.859375 C 121.863281 136.480469 122.058594 137.117188 122.191406 137.777344 C 122.320312 138.4375 122.386719 139.101562 122.386719 139.773438 Z M 122.386719 139.773438 " fill-opacity="1" fill-rule="nonzero"/></svg>