<svg xmlns="http://www.w3.org/2000/svg" xmlns:xlink="http://www.w3.org/1999/xlink" width="200" zoomAndPan="magnify" viewBox="0 0 150 149.999998" height="200" preserveAspectRatio="xMidYMid meet" version="1.0"><defs><clipPath id="191147c644"><path d="M 16.0625 31 L 117 31 L 117 132.285156 L 16.0625 132.285156 Z M 16.0625 31 " clip-rule="nonzero"/></clipPath><clipPath id="4b936fb6c5"><path d="M 84 17.535156 L 133.8125 17.535156 L 133.8125 67 L 84 67 Z M 84 17.535156 " clip-rule="nonzero"/></clipPath></defs><g clip-path="url(#191147c644)"><path fill="#254f91" d="M 104.035156 115.464844 C 103.769531 115.839844 103.042969 116.132812 102.09375 116.171875 C 102 116.226562 101.886719 116.226562 101.652344 116.226562 L 51.308594 116.226562 C 47.53125 116.226562 43.703125 116.171875 39.921875 116.132812 C 38.191406 116.132812 36.417969 116.074219 34.695312 116.074219 C 33.074219 116.074219 31.476562 116.394531 29.800781 116.226562 C 29.738281 116.226562 29.707031 116.226562 29.589844 116.171875 C 29.46875 116.171875 29.300781 116.132812 29.128906 116.015625 C 28.085938 115.347656 30.25 113.726562 30.636719 113.230469 C 31.792969 111.777344 44.519531 93.941406 44.699219 93.734375 C 46.414062 91.179688 48.757812 89.734375 51.195312 89.734375 C 54.804688 89.734375 56.628906 93.5625 59.472656 95.164062 C 63.195312 97.34375 65.636719 94.441406 67.472656 91.503906 C 68.714844 89.554688 69.984375 87.554688 71.210938 85.550781 C 71.933594 84.394531 72.695312 83.167969 73.425781 81.941406 C 74.316406 80.550781 75.195312 79.164062 76.085938 77.730469 L 77.867188 74.832031 C 78.039062 74.605469 78.152344 74.445312 78.265625 74.222656 C 78.933594 73.269531 79.695312 72.65625 80.308594 72.65625 C 80.882812 72.65625 81.550781 73.269531 82.15625 74.277344 C 88.378906 85.402344 94.652344 96.675781 100.753906 107.617188 L 103.710938 112.964844 C 103.976562 113.34375 104.097656 113.789062 104.214844 114.125 C 104.269531 114.566406 104.324219 115.113281 104.035156 115.464844 Z M 45.910156 46.332031 C 53.199219 46.273438 59.097656 52.152344 59.097656 59.5 C 59.097656 66.777344 53.316406 72.617188 46.027344 72.65625 C 38.746094 72.65625 32.867188 66.722656 32.867188 59.5 C 32.867188 52.265625 38.691406 46.386719 45.910156 46.332031 Z M 109.476562 71.882812 C 93.003906 71.882812 79.640625 58.53125 79.640625 42.046875 C 79.640625 38.242188 80.355469 34.605469 81.644531 31.261719 L 29.1875 31.261719 C 28.019531 31.261719 26.859375 31.375 25.746094 31.546875 C 20.238281 32.433594 16.140625 37.046875 16.140625 42.5 C 16.140625 68.378906 16.082031 94.230469 16.140625 120.058594 C 16.140625 126.566406 21.800781 132.28125 28.308594 132.339844 L 104.992188 132.339844 C 107.265625 132.339844 109.316406 131.613281 111.097656 130.289062 C 114.488281 127.6875 115.996094 124.121094 115.996094 119.90625 C 116.050781 107.070312 116.050781 94.175781 116.050781 81.273438 L 116.050781 71.160156 C 113.933594 71.628906 111.738281 71.882812 109.476562 71.882812 " fill-opacity="1" fill-rule="nonzero"/></g><g clip-path="url(#4b936fb6c5)"><path fill="#254f91" d="M 123.183594 39.675781 L 120.265625 42.445312 C 120.046875 42.65625 119.699219 42.648438 119.480469 42.433594 L 113.3125 36.167969 C 112.957031 35.8125 112.351562 36.0625 112.351562 36.558594 L 112.351562 58.242188 C 112.351562 58.550781 112.101562 58.804688 111.792969 58.804688 L 107.671875 58.804688 C 107.363281 58.804688 107.109375 58.550781 107.109375 58.242188 L 107.109375 35.875 C 107.109375 35.378906 106.503906 35.125 106.15625 35.472656 L 98.988281 42.570312 C 98.753906 42.800781 98.367188 42.785156 98.15625 42.523438 L 95.722656 39.488281 C 95.546875 39.265625 95.5625 38.945312 95.765625 38.742188 L 109.066406 25.457031 C 109.285156 25.238281 109.640625 25.238281 109.859375 25.457031 L 123.199219 38.875 C 123.417969 39.097656 123.414062 39.464844 123.183594 39.675781 Z M 109.476562 17.558594 C 95.957031 17.558594 84.988281 28.523438 84.988281 42.046875 C 84.988281 55.574219 95.957031 66.53125 109.476562 66.53125 C 123.003906 66.53125 133.964844 55.574219 133.964844 42.046875 C 133.964844 28.523438 123.003906 17.558594 109.476562 17.558594 " fill-opacity="1" fill-rule="nonzero"/></g></svg>