<svg xmlns="http://www.w3.org/2000/svg" xmlns:xlink="http://www.w3.org/1999/xlink" width="200" zoomAndPan="magnify" viewBox="0 0 150 149.999998" height="200" preserveAspectRatio="xMidYMid meet" version="1.0"><defs><clipPath id="cfa40ee166"><path d="M 0 0 L 149.25 0 L 149.25 150 L 0 150 Z M 0 0 " clip-rule="nonzero"/></clipPath></defs><g clip-path="url(#cfa40ee166)"><path fill="#111b21" d="M 127.503906 21.78125 C 113.476562 7.742188 94.816406 0.0078125 74.9375 0 C 33.976562 0 0.636719 33.316406 0.625 74.269531 C 0.617188 87.359375 4.039062 100.136719 10.542969 111.398438 L 0 149.890625 L 39.394531 139.5625 C 50.25 145.480469 62.46875 148.597656 74.90625 148.601562 L 74.9375 148.601562 C 115.894531 148.601562 149.234375 115.28125 149.25 74.328125 C 149.257812 54.480469 141.535156 35.824219 127.503906 21.785156 Z M 74.9375 136.058594 L 74.914062 136.058594 C 63.832031 136.054688 52.960938 133.074219 43.476562 127.453125 L 41.21875 126.113281 L 17.839844 132.242188 L 24.082031 109.460938 L 22.613281 107.125 C 16.429688 97.296875 13.164062 85.933594 13.167969 74.273438 C 13.183594 40.238281 40.890625 12.542969 74.964844 12.542969 C 91.460938 12.550781 106.96875 18.980469 118.632812 30.648438 C 130.292969 42.316406 136.710938 57.828125 136.703125 74.320312 C 136.6875 108.359375 108.980469 136.054688 74.9375 136.054688 Z M 108.816406 89.824219 C 106.960938 88.894531 97.832031 84.40625 96.128906 83.789062 C 94.425781 83.167969 93.191406 82.859375 91.953125 84.71875 C 90.714844 86.578125 87.15625 90.757812 86.074219 91.992188 C 84.992188 93.234375 83.90625 93.386719 82.050781 92.457031 C 80.195312 91.527344 74.210938 89.566406 67.117188 83.246094 C 61.597656 78.324219 57.871094 72.25 56.789062 70.390625 C 55.703125 68.53125 56.671875 67.527344 57.601562 66.605469 C 58.433594 65.769531 59.457031 64.4375 60.386719 63.351562 C 61.316406 62.269531 61.621094 61.496094 62.242188 60.257812 C 62.863281 59.019531 62.554688 57.9375 62.089844 57.007812 C 61.625 56.078125 57.914062 46.941406 56.363281 43.226562 C 54.855469 39.609375 53.324219 40.101562 52.1875 40.042969 C 51.105469 39.988281 49.867188 39.976562 48.628906 39.976562 C 47.386719 39.976562 45.378906 40.441406 43.675781 42.300781 C 41.972656 44.15625 37.175781 48.648438 37.175781 57.78125 C 37.175781 66.910156 43.828125 75.738281 44.757812 76.980469 C 45.6875 78.21875 57.851562 96.960938 76.476562 105.003906 C 80.90625 106.914062 84.367188 108.058594 87.0625 108.914062 C 91.511719 110.328125 95.558594 110.128906 98.757812 109.648438 C 102.324219 109.117188 109.746094 105.160156 111.289062 100.824219 C 112.835938 96.492188 112.835938 92.773438 112.375 92 C 111.910156 91.226562 110.671875 90.761719 108.8125 89.832031 Z M 108.816406 89.824219 " fill-opacity="1" fill-rule="evenodd"/></g></svg>